<?xml version="1.0" standalone="no"?>
<!DOCTYPE svg PUBLIC "-//W3C//DTD SVG 20010904//EN"
 "http://www.w3.org/TR/2001/REC-SVG-20010904/DTD/svg10.dtd">
<svg version="1.0" xmlns="http://www.w3.org/2000/svg"
 width="1484.000000pt" height="1484.000000pt" viewBox="0 0 1484.000000 1484.000000"
 preserveAspectRatio="xMidYMid meet">
<metadata>
Created by potrace 1.11, written by Peter Selinger 2001-2013
</metadata>
<g transform="translate(0.000000,1484.000000) scale(0.100000,-0.100000)"
fill="#000000" stroke="none">
<path d="M1840 10792 l0 -1159 570 -359 c412 -259 569 -362 565 -372 -3 -8
-388 -652 -857 -1431 -1903 -3166 -2111 -3513 -2112 -3526 0 -8 189 -138 424
-291 1031 -671 1159 -754 1172 -759 9 -4 45 46 109 152 53 87 187 309 299 493
323 533 561 926 725 1195 84 138 327 538 540 890 213 352 510 840 658 1085
149 245 353 582 455 750 259 427 255 420 262 425 4 2 333 -197 731 -443 398
-246 797 -492 886 -547 l162 -100 5 -90 c3 -49 10 -391 16 -760 6 -368 22
-1203 35 -1855 14 -652 25 -1188 25 -1192 0 -5 439 -8 975 -8 l975 0 0 133 c0
72 -13 791 -29 1597 -17 806 -33 1629 -36 1830 l-7 365 29 16 c15 9 285 175
598 369 544 336 1083 669 1096 676 4 2 52 -69 107 -159 55 -89 276 -450 492
-802 216 -352 514 -838 663 -1080 148 -242 372 -606 497 -810 1219 -1987 1287
-2097 1303 -2119 13 -18 59 9 841 504 581 369 825 528 821 538 -3 8 -191 316
-419 686 -227 369 -790 1283 -1251 2031 -1255 2038 -1375 2233 -1375 2242 0 4
49 38 108 74 109 68 597 371 889 553 l163 101 0 1152 c0 647 -4 1154 -9 1157
-5 3 -143 -78 -307 -181 -165 -102 -373 -232 -464 -288 -191 -119 -274 -170
-1415 -880 -978 -609 -1073 -667 -1715 -1067 -261 -162 -594 -369 -740 -460
-146 -91 -368 -229 -495 -308 -126 -78 -268 -167 -315 -196 -47 -30 -91 -54
-98 -54 -7 0 -29 11 -50 24 -32 21 -357 223 -957 596 -82 51 -285 177 -450
280 -165 103 -420 262 -567 353 -531 331 -806 502 -948 590 -80 50 -354 221
-610 380 -256 159 -593 369 -750 467 -834 518 -994 618 -1086 676 -56 35 -109
67 -118 70 -15 6 -16 -93 -16 -1154z"/>
</g>
</svg>
