<?xml version="1.0" encoding="UTF-8"?>
<!DOCTYPE svg PUBLIC "-//W3C//DTD SVG 1.1//EN" "http://www.w3.org/Graphics/SVG/1.1/DTD/svg11.dtd">
<!-- Creator: CorelDRAW X7 -->
<svg xmlns="http://www.w3.org/2000/svg" xml:space="preserve" width="591px" height="591px" version="1.1" style="shape-rendering:geometricPrecision; text-rendering:geometricPrecision; image-rendering:optimizeQuality; fill-rule:evenodd; clip-rule:evenodd"
viewBox="0 0 591 591"
 xmlns:xlink="http://www.w3.org/1999/xlink">
 <defs>
  <style type="text/css">
   <![CDATA[
    .fil0 {fill:white}
   ]]>
  </style>
 </defs>
 <g id="Layer_x0020_1">
  <metadata id="CorelCorpID_0Corel-Layer"/>
  <path class="fil0" d="M296 591c163,0 295,-132 295,-295 0,-164 -132,-296 -295,-296 -164,0 -296,132 -296,296 0,163 132,295 296,295zm0 -537c62,0 119,24 162,63l-163 102 -163 -102c43,-39 100,-63 164,-63zm168 68c45,44 73,106 73,174 0,24 -3,48 -10,70l-98 -160 36 -22 -1 -62zm43 291c-41,74 -121,124 -211,124 -91,0 -171,-50 -212,-124l20 0 107 -176 54 34 3 152 59 0 -2 -153 53 -33 107 176 22 0zm-443 -48c-7,-22 -10,-45 -10,-69 0,-68 27,-128 71,-172l0 60 35 22 -96 159z"/>
 </g>
</svg>
