<?xml version="1.0" encoding="UTF-8"?>
<!DOCTYPE svg PUBLIC "-//W3C//DTD SVG 1.1//EN" "http://www.w3.org/Graphics/SVG/1.1/DTD/svg11.dtd">
<!-- Creator: CorelDRAW X7 -->
<svg xmlns="http://www.w3.org/2000/svg" xml:space="preserve" width="1181px" height="330px" version="1.1" style="shape-rendering:geometricPrecision; text-rendering:geometricPrecision; image-rendering:optimizeQuality; fill-rule:evenodd; clip-rule:evenodd"
viewBox="0 0 2002 560"
 xmlns:xlink="http://www.w3.org/1999/xlink">
 <defs>
  <style type="text/css">
   <![CDATA[
    .fil0 {fill:#250125}
   ]]>
  </style>
 </defs>
 <g id="Layer_x0020_1">
  <metadata id="CorelCorpID_0Corel-Layer"/>
  <g id="_525724440">
   <path class="fil0" d="M280 560c154,0 280,-126 280,-280 0,-155 -126,-280 -280,-280 -155,0 -280,125 -280,280 0,154 125,280 280,280zm0 -509c59,0 113,23 154,60l-155 96 -154 -96c41,-37 95,-60 155,-60zm160 65c42,41 69,100 69,164 0,23 -4,46 -10,67l-93 -152 34 -21 0 -58zm40 275c-39,70 -114,118 -200,118 -86,0 -161,-48 -200,-118l19 0 101 -167 51 32 2 144 57 0 -2 -144 50 -31 101 166 21 0zm-419 -45c-7,-21 -10,-43 -10,-66 0,-64 26,-121 67,-163l0 57 34 21 -91 151z"/>
   <path class="fil0" d="M661 415l56 -144 85 144 84 -144 57 144 58 0 -85 -215 -22 -55 -28 52 -64 118 -64 -118 -28 -52 -22 55 -85 215 58 0zm0 0l-58 0 58 0zm426 -220l109 0 0 -49 -164 0 0 269 164 0 0 -50 -109 0 0 -59 81 0 0 -49 -81 0 0 -62zm0 62l0 -62 0 62zm147 -111l0 49 0 -49zm0 0l170 0 0 49 -59 0 0 220 -55 0 0 -220 -56 0 0 -49zm325 169c11,-4 21,-10 30,-18 18,-16 29,-38 29,-63 0,-24 -11,-45 -29,-62 -19,-17 -43,-26 -70,-26 -27,0 -53,-1 -80,-1l0 270 54 0 0 -92 8 0 61 92 63 0 -66 -100zm-66 -120l26 0c12,0 23,3 31,11 9,8 13,18 13,28 0,11 -4,21 -13,29 -8,7 -19,11 -31,11l-26 0 0 -79zm216 -49l0 269 -54 0 0 -269 54 0zm42 2l65 0 -65 0zm65 0l58 84 58 -84 65 0 -91 130 96 137 -65 0 -63 -91 -63 91 -65 0 96 -137 -91 -130 65 0z"/>
  </g>
 </g>
</svg>
