<?xml version="1.0" encoding="UTF-8"?>
<!DOCTYPE svg PUBLIC "-//W3C//DTD SVG 1.1//EN" "http://www.w3.org/Graphics/SVG/1.1/DTD/svg11.dtd">
<!-- Creator: CorelDRAW X7 -->
<svg xmlns="http://www.w3.org/2000/svg" xml:space="preserve" width="1181px" height="383px" version="1.1" style="shape-rendering:geometricPrecision; text-rendering:geometricPrecision; image-rendering:optimizeQuality; fill-rule:evenodd; clip-rule:evenodd"
viewBox="0 0 29525 9567"
 xmlns:xlink="http://www.w3.org/1999/xlink">
 <defs>
  <style type="text/css">
   <![CDATA[
    .fil1 {fill:#730373}
    .fil0 {fill:white}
    .fil2 {fill:white;fill-rule:nonzero}
   ]]>
  </style>
 </defs>
 <g id="Layer_x0020_1">
  <metadata id="CorelCorpID_0Corel-Layer"/>
  <g id="_562958088">
   <path class="fil0" d="M29525 4092l0 5475 -859 0c-7967,0 -15934,0 -23901,0 -2622,0 -4765,-2142 -4765,-4764l0 -38c0,-2622 2143,-4765 4765,-4765 6164,0 12329,0 18493,0l6267 0 0 4092z"/>
   <path class="fil1" d="M9819 8708l798 -2020 1190 2020 1190 -2020 806 2020 813 0 -1197 -3023 -309 -781 -399 741 -904 1663 -896 -1663 -399 -741 -309 781 -1197 3023 813 0zm0 0l-813 0 813 0zm6012 -3104l1537 0 0 -687 -2305 0 0 3791 2305 0 0 -693 -1537 0 0 -842 1145 0 0 -687 -1145 0 0 -882zm0 882l0 -882 0 882zm2073 -1569l0 687 0 -687zm0 0l2395 0 0 687 -828 0 0 3104 -768 0 0 -3104 -799 0 0 -687zm4589 2391c151,-61 286,-142 414,-256 264,-222 415,-540 415,-886 0,-345 -159,-643 -415,-885 -256,-236 -602,-364 -986,-364 -378,0 -747,-6 -1130,-6l0 3797 768 0 0 -1286 113 0 859 1286 896 0 -934 -1400zm-934 -1704l362 0c173,0 324,54 444,163 121,114 181,250 181,399 0,156 -60,292 -181,400 -120,109 -271,163 -444,163l-362 0 0 -1125zm3053 -687l0 3791 -768 0 0 -3791 768 0zm589 34l912 0 -912 0zm912 0l820 1178 821 -1178 912 0 -1281 1831 1348 1926 -911 0 -889 -1279 -888 1279 -911 0 1348 -1926 -1281 -1831 912 0z"/>
   <polygon class="fil1" points="28666,3903 9006,3903 9006,860 28666,860 "/>
   <path class="fil1" d="M8576 8708l-3811 0c-2148,0 -3906,-1757 -3906,-3906l0 -37c0,-2148 1758,-3905 3906,-3905l3811 0 0 7848z"/>
   <path class="fil0" d="M4718 1740c-1681,0 -3044,1363 -3044,3044 0,1681 1363,3043 3044,3043 1681,0 3043,-1362 3043,-3043 0,-1681 -1362,-3044 -3043,-3044zm0 435c-677,0 -1294,258 -1758,681l1766 1098 1756 -1091c-464,-427 -1084,-688 -1764,-688zm-1821 741c-486,474 -788,1136 -788,1868 0,265 40,522 114,763l1058 -1729 -387 -239 3 -663zm-461 3133c445,801 1300,1343 2282,1343 981,0 1836,-542 2281,-1343l-217 0 -1151 -1896 -589 363 -25 1641 -642 0 25 -1648 -572 -353 -1158 1893 -234 0zm4779 -511c72,-239 111,-492 111,-754 0,-724 -294,-1378 -770,-1851l2 646 -379 239 1036 1720z"/>
   <path class="fil2" d="M10482 2574l0 664 -276 0 0 -1711 582 0c197,0 345,47 445,140 99,94 149,223 149,386 0,161 -51,289 -153,382 -102,92 -249,139 -441,139l-306 0zm277 -226c228,0 342,-98 342,-295 0,-97 -28,-171 -82,-222 -54,-51 -141,-76 -260,-76l-277 0 0 593 277 0z"/>
   <path id="1" class="fil2" d="M12653 1505c159,0 302,37 431,111 128,75 229,179 303,312 73,133 110,284 110,452 0,168 -37,319 -110,452 -74,133 -175,238 -303,313 -129,75 -272,113 -431,113 -160,0 -304,-38 -432,-113 -129,-75 -230,-180 -304,-313 -75,-133 -112,-284 -112,-452 0,-168 37,-319 112,-452 74,-133 175,-237 304,-312 128,-74 272,-111 432,-111zm0 257c-109,0 -207,25 -293,75 -86,50 -152,122 -200,216 -48,93 -71,203 -71,327 0,124 23,234 71,327 48,94 114,166 200,216 86,50 184,75 293,75 109,0 205,-25 290,-75 85,-50 151,-122 199,-216 48,-93 71,-203 71,-327 0,-124 -23,-234 -71,-327 -48,-94 -114,-166 -199,-216 -85,-50 -181,-75 -290,-75z"/>
   <polygon id="2" class="fil2" points="16180,1527 15753,3238 15414,3238 15052,1915 14691,3238 14352,3238 13925,1527 14228,1527 14524,2918 14900,1527 15205,1527 15581,2918 15877,1527 "/>
   <polygon id="3" class="fil2" points="16940,1750 16940,2268 17570,2268 17570,2482 16940,2482 16940,3013 17643,3013 17643,3238 16663,3238 16663,1527 17643,1527 17643,1750 "/>
   <path id="4" class="fil2" d="M19048 3238l-427 -683 -196 0 0 683 -277 0 0 -1711 604 0c196,0 344,47 445,143 101,95 151,221 151,378 0,134 -37,244 -112,330 -75,85 -184,140 -326,164l448 696 -310 0zm-623 -880l305 0c223,0 335,-98 335,-296 0,-93 -27,-166 -81,-219 -55,-52 -139,-79 -254,-79l-305 0 0 594z"/>
   <polygon id="5" class="fil2" points="20111,1750 20111,2268 20741,2268 20741,2482 20111,2482 20111,3013 20814,3013 20814,3238 19835,3238 19835,1527 20814,1527 20814,1750 "/>
   <path id="6" class="fil2" d="M22789 2380c0,173 -35,324 -106,452 -70,129 -173,228 -308,299 -134,72 -296,107 -483,107l-572 0 0 -1711 572 0c187,0 349,35 483,105 135,70 238,169 308,297 71,128 106,278 106,451zm-919 608c205,0 363,-53 473,-160 110,-106 165,-256 165,-448 0,-192 -55,-342 -165,-448 -110,-107 -268,-160 -473,-160l-274 0 0 1216 274 0z"/>
   <path id="7" class="fil2" d="M25331 2356c103,21 187,70 251,148 63,77 95,168 95,271 0,142 -47,255 -143,338 -95,84 -233,125 -414,125l-681 0 0 -1711 669 0c171,0 302,38 394,115 91,77 137,182 137,316 0,108 -29,196 -85,263 -57,67 -131,112 -223,135zm-616 -92l342 0c97,0 171,-23 222,-68 50,-45 76,-109 76,-189 0,-80 -26,-142 -76,-187 -51,-45 -128,-68 -232,-68l-332 0 0 512zm349 746c105,0 186,-24 244,-71 57,-48 86,-115 86,-200 0,-86 -29,-153 -88,-201 -58,-49 -139,-73 -244,-73l-347 0 0 545 349 0z"/>
   <polygon id="8" class="fil2" points="27465,1527 26896,2615 26896,3238 26617,3238 26617,2615 26045,1527 26365,1527 26758,2319 27150,1527 "/>
  </g>
 </g>
</svg>
