<?xml version="1.0" encoding="UTF-8"?>
<!DOCTYPE svg PUBLIC "-//W3C//DTD SVG 1.1//EN" "http://www.w3.org/Graphics/SVG/1.1/DTD/svg11.dtd">
<!-- Creator: CorelDRAW X7 -->
<svg xmlns="http://www.w3.org/2000/svg" xml:space="preserve" width="1181px" height="376px" version="1.1" style="shape-rendering:geometricPrecision; text-rendering:geometricPrecision; image-rendering:optimizeQuality; fill-rule:evenodd; clip-rule:evenodd"
viewBox="0 0 29525 9399"
 xmlns:xlink="http://www.w3.org/1999/xlink">
 <defs>
  <style type="text/css">
   <![CDATA[
    .fil1 {fill:#730373}
    .fil0 {fill:white}
    .fil2 {fill:white;fill-rule:nonzero}
   ]]>
  </style>
 </defs>
 <g id="Layer_x0020_1">
  <metadata id="CorelCorpID_0Corel-Layer"/>
  <path class="fil0" d="M3758 0c7029,0 14057,0 21086,0 2576,0 4681,2105 4681,4681l0 37c0,2576 -2105,4681 -4681,4681 -8281,0 -16563,0 -24844,0 1257,-3173 2480,-6255 3758,-9399z"/>
  <path class="fil1" d="M2231 8497l772 -1955 1152 1955 1151 -1955 780 1955 787 0 -1159 -2926 -298 -755 -387 716 -874 1610 -867 -1610 -387 -716 -298 755 -1159 2926 787 0zm0 0l-787 0 787 0zm5818 -3004l1487 0 0 -664 -2231 0 0 3668 2231 0 0 -671 -1487 0 0 -815 1108 0 0 -664 -1108 0 0 -854zm0 854l0 -854 0 854zm2006 -1518l0 664 0 -664zm0 0l2318 0 0 664 -802 0 0 3004 -743 0 0 -3004 -773 0 0 -664zm4441 2313c146,-59 277,-137 401,-248 255,-215 401,-522 401,-857 0,-334 -154,-622 -401,-857 -248,-228 -583,-351 -955,-351 -366,0 -723,-7 -1093,-7l0 3675 743 0 0 -1245 109 0 831 1245 868 0 -904 -1355zm-904 -1649l350 0c168,0 313,52 430,158 117,110 175,242 175,386 0,151 -58,283 -175,387 -117,105 -262,157 -430,157l-350 0 0 -1088zm2954 -664l0 3668 -743 0 0 -3668 743 0zm571 32l881 0 -881 0zm881 0l795 1140 794 -1140 882 0 -1239 1772 1305 1864 -882 0 -860 -1238 -860 1238 -882 0 1305 -1864 -1239 -1772 881 0z"/>
  <polygon class="fil1" points="20515,3847 3285,3847 4481,902 20515,902 "/>
  <path class="fil2" d="M5913 2557l0 664 -277 0 0 -1711 582 0c197,0 346,47 445,141 99,93 149,222 149,385 0,162 -51,289 -153,382 -101,93 -248,139 -441,139l-305 0zm276 -225c228,0 342,-99 342,-296 0,-97 -27,-171 -81,-222 -54,-51 -141,-76 -261,-76l-276 0 0 594 276 0z"/>
  <path id="1" class="fil2" d="M7665 1869c130,0 246,27 350,82 103,55 184,134 242,238 58,103 87,224 87,363 0,141 -29,263 -87,366 -58,104 -139,183 -242,238 -104,55 -220,82 -350,82 -129,0 -245,-27 -347,-82 -103,-55 -184,-135 -243,-239 -59,-104 -88,-226 -88,-365 0,-139 29,-260 88,-363 59,-104 140,-183 243,-238 102,-55 218,-82 347,-82zm0 240c-71,0 -136,16 -196,48 -60,33 -108,82 -144,149 -36,67 -55,149 -55,246 0,99 19,181 55,248 36,66 84,115 144,148 60,32 125,48 196,48 72,0 137,-16 197,-48 60,-33 108,-82 144,-148 36,-67 55,-149 55,-248 0,-97 -19,-179 -55,-246 -36,-67 -84,-116 -144,-149 -60,-32 -125,-48 -197,-48z"/>
  <polygon id="2" class="fil2" points="10482,1886 10111,3221 9806,3221 9476,2189 9142,3221 8839,3221 8468,1886 8747,1886 9001,2967 9336,1886 9627,1886 9966,2967 10221,1886 "/>
  <path id="3" class="fil2" d="M11913 2489c0,46 -4,85 -10,119l-1028 0c5,138 43,239 114,306 71,66 159,99 264,99 92,0 170,-23 234,-70 64,-47 103,-109 118,-187l295 0c-17,94 -55,177 -111,250 -57,72 -130,129 -221,171 -90,41 -191,61 -303,61 -129,0 -243,-27 -343,-82 -99,-55 -177,-134 -234,-238 -56,-103 -84,-225 -84,-366 0,-139 28,-260 84,-363 57,-104 135,-183 234,-238 100,-55 214,-82 343,-82 131,0 246,27 343,81 98,54 173,129 226,223 52,95 79,200 79,316zm-279 -7c3,-87 -12,-160 -45,-219 -33,-59 -78,-103 -136,-131 -57,-28 -120,-43 -188,-43 -108,0 -198,34 -271,100 -73,66 -113,164 -119,293l759 0z"/>
  <path id="4" class="fil2" d="M12456 2148c45,-88 109,-157 193,-208 85,-51 182,-76 291,-76l0 301 -82 0c-121,0 -219,29 -292,88 -74,59 -110,156 -110,292l0 676 -277 0 0 -1335 277 0 0 262z"/>
  <path id="5" class="fil2" d="M14388 2489c0,46 -4,85 -10,119l-1028 0c5,138 43,239 114,306 71,66 159,99 264,99 92,0 170,-23 234,-70 64,-47 103,-109 118,-187l295 0c-17,94 -55,177 -111,250 -57,72 -130,129 -221,171 -90,41 -191,61 -303,61 -129,0 -243,-27 -343,-82 -99,-55 -177,-134 -234,-238 -56,-103 -84,-225 -84,-366 0,-139 28,-260 84,-363 57,-104 135,-183 234,-238 100,-55 214,-82 343,-82 131,0 246,27 343,81 98,54 173,129 226,223 52,95 79,200 79,316zm-279 -7c3,-87 -12,-160 -45,-219 -33,-59 -78,-103 -136,-131 -57,-28 -120,-43 -188,-43 -108,0 -198,34 -271,100 -73,66 -112,164 -119,293l759 0z"/>
  <path id="6" class="fil2" d="M15190 1869c121,0 225,30 310,90 86,59 146,138 180,237l0 -768 278 0 0 1793 -278 0 0 -310c-34,99 -94,178 -180,238 -85,60 -189,89 -310,89 -116,0 -220,-27 -312,-82 -91,-55 -162,-134 -214,-238 -52,-103 -78,-225 -78,-366 0,-139 26,-260 78,-363 52,-104 123,-183 214,-238 92,-55 196,-82 312,-82zm85 242c-123,0 -221,39 -295,118 -73,78 -110,186 -110,323 0,138 37,246 110,324 74,78 172,118 295,118 77,0 147,-19 208,-55 62,-36 110,-88 146,-154 35,-66 53,-144 53,-233 0,-87 -18,-164 -53,-231 -36,-67 -84,-119 -146,-155 -61,-37 -131,-55 -208,-55z"/>
  <path id="7" class="fil2" d="M17624 1869c116,0 220,27 311,82 92,55 163,134 215,238 51,103 77,224 77,363 0,141 -26,263 -77,366 -52,104 -123,183 -215,238 -91,55 -195,82 -311,82 -121,0 -225,-29 -311,-89 -85,-60 -145,-139 -179,-238l0 310 -276 0 0 -1793 276 0 0 768c34,-99 94,-178 179,-237 86,-60 190,-90 311,-90zm-85 242c-78,0 -147,18 -209,55 -61,36 -109,88 -145,155 -36,67 -53,144 -53,231 0,89 17,167 53,233 36,66 84,118 145,154 62,36 131,55 209,55 123,0 221,-40 296,-118 74,-78 111,-186 111,-324 0,-135 -37,-243 -111,-322 -75,-79 -173,-119 -296,-119z"/>
  <polygon id="8" class="fil2" points="18652,1886 19052,2868 19422,1886 19730,1886 18923,3857 18615,3857 18904,3190 18341,1886 "/>
  <path class="fil1" d="M21006 8497l3688 0c2079,0 3780,-1701 3780,-3780l0 -36c0,-2079 -1701,-3779 -3780,-3779l-3688 0 0 7595z"/>
  <path class="fil0" d="M24740 1754c1626,0 2945,1319 2945,2945 0,1627 -1319,2945 -2945,2945 -1627,0 -2945,-1318 -2945,-2945 0,-1626 1318,-2945 2945,-2945zm0 421c655,0 1252,250 1701,659l-1710 1062 -1699 -1056c450,-413 1049,-665 1708,-665zm1762 717c470,459 762,1099 762,1807 0,257 -38,506 -110,739l-1024 -1673 375 -231 -3 -642zm446 3032c-431,775 -1258,1300 -2208,1300 -950,0 -1777,-525 -2208,-1300l210 0 1114 -1835 570 351 24 1588 622 0 -25 -1594 554 -342 1121 1832 226 0zm-4625 -494c-70,-232 -108,-477 -108,-731 0,-700 285,-1333 746,-1791l-2 626 367 230 -1003 1666z"/>
 </g>
</svg>
