<?xml version="1.0" encoding="UTF-8"?>
<!DOCTYPE svg PUBLIC "-//W3C//DTD SVG 1.1//EN" "http://www.w3.org/Graphics/SVG/1.1/DTD/svg11.dtd">
<!-- Creator: CorelDRAW X7 -->
<svg xmlns="http://www.w3.org/2000/svg" xml:space="preserve" width="540px" height="540px" version="1.1" style="shape-rendering:geometricPrecision; text-rendering:geometricPrecision; image-rendering:optimizeQuality; fill-rule:evenodd; clip-rule:evenodd"
viewBox="0 0 270 270"
 xmlns:xlink="http://www.w3.org/1999/xlink">
 <defs>
  <style type="text/css">
   <![CDATA[
    .fil1 {fill:#730373}
    .fil0 {fill:#730373;fill-rule:nonzero}
   ]]>
  </style>
 </defs>
 <g id="Layer_x0020_1">
  <metadata id="CorelCorpID_0Corel-Layer"/>
  <g id="_368066952">
   <path class="fil0" d="M135 264c71,0 129,-58 129,-129 0,-71 -58,-129 -129,-129 -71,0 -129,58 -129,129 0,71 58,129 129,129zm135 -129c0,75 -60,135 -135,135 -75,0 -135,-60 -135,-135 0,-75 60,-135 135,-135 75,0 135,60 135,135z"/>
   <path class="fil0" d="M135 264c26,0 49,-14 66,-37 6,-9 11,-18 16,-29l1 2 1 1 3 1c-5,10 -10,20 -16,28 -18,25 -43,40 -71,40 -37,0 -69,-28 -87,-68l2 -1 1 -1 2 -2c16,39 47,66 82,66zm94 -129c0,-18 -3,-34 -7,-49l0 -18c8,20 13,43 13,67 0,3 -1,6 -1,9l-5 -9zm-23 -84c-17,-28 -43,-45 -71,-45 -26,0 -49,14 -66,37 -2,3 -3,5 -5,8l-5 -3c2,-3 3,-6 5,-8 18,-25 43,-40 71,-40 30,0 58,19 76,48l-5 3zm-158 36c-4,14 -7,31 -7,47l-5 10c0,-3 -1,-6 -1,-9 0,-24 5,-46 13,-66l0 18z"/>
   <path class="fil0" d="M135 264c14,0 27,-14 37,-37 9,-20 14,-46 16,-76l5 8c-2,28 -8,52 -16,71 -10,25 -25,40 -42,40 -29,0 -53,-48 -58,-111l5 -9c3,64 26,114 53,114zm45 -197c-9,-37 -26,-61 -45,-61 -14,0 -27,14 -37,37 -3,7 -6,15 -8,24l-5 -3c2,-9 5,-16 8,-24 10,-25 25,-40 42,-40 21,0 40,25 50,64l-5 3z"/>
   <path class="fil0" d="M138 3l0 90 -3 2 -3 -2 0 -90 6 0zm0 204l0 60 -6 0 0 -60 6 0z"/>
   <path class="fil0" d="M11 176l5 0 -1 3 -1 1 1 2 -4 0 0 -6zm55 0l48 0 0 6 -51 0 3 -6zm91 0l46 0 4 6 -50 0 0 -6zm97 0l5 0 0 6 -4 0 1 -2 -1 -1 -1 -3z"/>
   <polygon class="fil0" points="37,44 233,44 233,50 221,50 221,50 215,47 213,47 207,50 62,50 57,47 55,47 49,50 49,50 37,50 "/>
   <path class="fil0" d="M10 88l38 0 0 1 0 1 2 3 0 1 1 0 -41 0 0 -6zm114 0l22 0 -9 6 -4 0 -9 -6zm98 0l38 0 0 6 -41 0 0 0 1 -1 1 -3 1 -1 0 -1z"/>
   <path class="fil0" d="M3 132l40 0 -4 6 -36 0 0 -6zm90 0l20 0 1 1 0 5 -25 0 4 -6zm64 0l19 0 4 6 -23 0 0 -6 0 0zm70 0l40 0 0 6 -36 0 -4 -6z"/>
   <polygon class="fil0" points="37,220 233,220 233,226 37,226 "/>
   <polygon class="fil1" points="57,53 135,102 213,53 216,52 216,55 216,88 216,89 215,89 200,99 249,179 250,181 248,182 224,196 223,197 222,195 173,115 151,129 152,199 152,201 150,201 122,201 121,201 120,199 119,129 96,115 48,195 47,197 45,196 22,182 20,181 21,180 70,99 55,89 54,89 54,88 54,55 54,52 "/>
  </g>
 </g>
</svg>
