<?xml version="1.0" encoding="UTF-8"?>
<!DOCTYPE svg PUBLIC "-//W3C//DTD SVG 1.1//EN" "http://www.w3.org/Graphics/SVG/1.1/DTD/svg11.dtd">
<!-- Creator: CorelDRAW X7 -->
<svg xmlns="http://www.w3.org/2000/svg" xml:space="preserve" width="794px" height="622px" version="1.1" style="shape-rendering:geometricPrecision; text-rendering:geometricPrecision; image-rendering:optimizeQuality; fill-rule:evenodd; clip-rule:evenodd"
viewBox="0 0 1015 796"
 xmlns:xlink="http://www.w3.org/1999/xlink">
 <defs>
  <style type="text/css">
   <![CDATA[
    .fil6 {fill:none}
    .fil0 {fill:#29072C}
    .fil5 {fill:#730373;fill-rule:nonzero}
    .fil1 {fill:#8785EB;fill-rule:nonzero}
    .fil3 {fill:#1A59A5;fill-rule:nonzero;fill-opacity:0.870588}
    .fil4 {fill:#349CDB;fill-rule:nonzero;fill-opacity:0.870588}
    .fil2 {fill:#4DC4FF;fill-rule:nonzero;fill-opacity:0.870588}
   ]]>
  </style>
   <mask id="id0">
  <linearGradient id="id1" gradientUnits="userSpaceOnUse" x1="509.307" y1="85.9238" x2="349.652" y2="204.543">
   <stop offset="0" style="stop-opacity:1; stop-color:white"/>
   <stop offset="1" style="stop-opacity:0; stop-color:white"/>
  </linearGradient>
    <rect style="fill:url(#id1)" x="332" y="50" width="195" height="190"/>
   </mask>
   <mask id="id2">
  <linearGradient id="id3" gradientUnits="userSpaceOnUse" x1="361.086" y1="507.679" x2="201.431" y2="626.298">
   <stop offset="0" style="stop-opacity:1; stop-color:white"/>
   <stop offset="1" style="stop-opacity:0; stop-color:white"/>
  </linearGradient>
    <rect style="fill:url(#id3)" x="184" y="472" width="195" height="190"/>
   </mask>
   <mask id="id4">
  <linearGradient id="id5" gradientUnits="userSpaceOnUse" x1="859.233" y1="490.354" x2="699.58" y2="608.971">
   <stop offset="0" style="stop-opacity:1; stop-color:white"/>
   <stop offset="1" style="stop-opacity:0; stop-color:white"/>
  </linearGradient>
    <rect style="fill:url(#id5)" x="682" y="455" width="195" height="190"/>
   </mask>
    <mask id="id6">
  <linearGradient id="id7" gradientUnits="userSpaceOnUse" x1="593.235" y1="373.758" x2="433.58" y2="492.375">
   <stop offset="0" style="stop-opacity:1; stop-color:white"/>
   <stop offset="1" style="stop-opacity:0; stop-color:white"/>
  </linearGradient>
     <rect style="fill:url(#id7)" x="416" y="338" width="195" height="190"/>
    </mask>
 </defs>
 <g id="Layer_x0020_1">
  <metadata id="CorelCorpID_0Corel-Layer"/>
  <rect class="fil0" y="114" width="923" height="579"/>
  <g id="_534839024">
   <path class="fil1" d="M290 721c0,0 3,1 9,4 6,3 14,8 24,14l0 0 0 1c1,8 2,18 3,29l0 1 0 0c-9,8 -19,16 -28,25l0 0 -2 1 -1 -1c-11,-6 -22,-13 -32,-19l0 -1 0 0c-1,-11 -2,-21 -3,-29l0 -1 1 -1c9,-7 16,-13 21,-17 5,-4 8,-6 8,-6 0,0 -2,3 -7,7 -5,5 -12,11 -20,19 0,-1 0,-1 1,-2 0,9 1,19 2,29 0,0 0,-1 -1,-1 10,6 21,12 32,19 -1,0 -1,0 -2,0l0 0c10,-9 19,-17 28,-25 0,1 0,2 -1,2 0,-11 -1,-20 -2,-29 0,1 1,1 1,2 -10,-7 -18,-12 -23,-15 -5,-4 -8,-6 -8,-6z"/>
   <path class="fil1" d="M264 774c0,-1 10,-11 24,-23 1,-1 2,-2 3,-3 0,1 0,1 0,2 -2,-17 -2,-29 -1,-29 1,0 3,12 5,28l0 1 -1 1c-1,1 -2,2 -3,3 -14,12 -26,21 -27,20z"/>
   <path class="fil1" d="M293 749c0,0 8,3 16,8 9,6 16,11 15,12 0,1 -8,-3 -17,-8 -8,-5 -15,-11 -14,-12z"/>
  </g>
  <g id="_534840104">
   <path class="fil1" d="M866 412c0,0 2,-4 8,-13 5,-8 13,-19 23,-34l0 0 1 0c13,-1 28,-1 44,-2l1 0 0 1c11,14 23,29 35,45l0 0 1 1 0 1c-12,17 -23,32 -33,46l-1 1 -1 0c-16,0 -30,1 -43,1l-1 0 -1 -1c-10,-14 -19,-25 -24,-33 -6,-8 -9,-12 -9,-13 0,0 4,4 10,12 6,8 15,19 26,32 0,0 -1,0 -1,0 13,-1 27,-1 43,-2 0,1 -1,1 -1,1 10,-14 21,-30 32,-46 0,1 0,2 0,2l0 0c-12,-16 -24,-31 -35,-45 1,1 2,1 2,1 -16,0 -31,1 -44,1 1,0 1,-1 2,-1 -11,14 -19,26 -25,33 -6,8 -9,13 -9,12z"/>
   <path class="fil1" d="M944 456c0,1 -15,-16 -32,-38 -1,-2 -3,-4 -4,-5 0,0 1,0 2,0 -25,1 -44,0 -44,-1 0,-1 19,-2 43,-3l1 0 1 1c1,2 3,4 4,5 17,22 30,41 29,41z"/>
   <path class="fil1" d="M910 411c-1,0 5,-11 14,-24 9,-13 17,-22 18,-22 1,1 -6,12 -15,24 -9,13 -17,23 -17,22z"/>
  </g>
  <g id="_534840848">
   <path class="fil1" d="M894 186c0,-1 11,-5 27,-11l1 0 1 0c5,4 11,8 18,13l1 1 0 1c0,9 0,18 0,29l0 0 0 1 -1 1c-10,3 -19,6 -28,8l0 1 -1 -1c-7,-5 -13,-9 -18,-13l-1 -1 0 -1c0,-17 1,-28 1,-28 1,0 2,11 2,28 0,0 0,0 0,-1 5,4 11,8 18,13 -1,0 -1,0 -2,0 9,-3 18,-6 28,-9 -1,0 -1,1 -2,2l0 0c0,-11 0,-20 0,-29 0,0 0,1 1,1 -7,-5 -13,-9 -18,-13 0,0 1,0 1,0 -17,5 -27,8 -28,8z"/>
   <path class="fil1" d="M913 227c-1,0 -2,-11 -3,-25 0,-1 0,-2 0,-3 1,0 1,1 1,1 -10,-7 -17,-14 -17,-14 1,-1 9,4 20,11l0 0 0 1c1,2 1,3 1,4 0,14 -1,25 -2,25z"/>
   <path class="fil1" d="M912 198c0,-1 6,-3 13,-6 8,-2 14,-3 15,-2 0,1 -6,4 -13,6 -8,2 -14,4 -15,2z"/>
  </g>
  <g id="_534841376">
   <path class="fil1" d="M455 638c0,0 2,-1 6,-4 4,-3 10,-6 18,-11 16,-9 38,-23 65,-39l1 -1 1 1c22,9 47,19 74,31l1 0 0 1c8,32 16,66 25,102l0 0 0 2 -1 1c-32,18 -62,36 -90,52l-1 1 0 0c-28,-12 -53,-23 -75,-32l0 -1 -1 0c-7,-32 -13,-57 -17,-75 -2,-9 -3,-16 -4,-21 -1,-4 -2,-7 -2,-7 1,0 1,2 3,7 1,5 3,12 5,20 4,18 11,44 18,75 0,0 0,-1 0,-1 21,9 47,20 74,31 0,0 -1,0 -2,0 28,-16 58,-34 90,-53 0,1 -1,1 -1,2l0 0c-9,-36 -17,-71 -24,-102 0,0 0,1 1,1 -28,-11 -53,-22 -75,-32 1,0 1,0 2,0 -28,16 -50,30 -66,39 -8,4 -14,7 -18,10 -4,2 -7,3 -7,3z"/>
   <path class="fil1" d="M554 772c0,0 -3,-10 -7,-26 -5,-17 -10,-39 -16,-64 -1,-4 -2,-8 -3,-12 0,1 1,1 1,1 -21,-9 -40,-17 -53,-23 -13,-6 -21,-9 -21,-10 1,0 9,3 22,8 14,5 32,13 53,22l1 0 1 1c1,4 2,8 3,12 6,25 11,48 14,64 4,16 6,27 5,27z"/>
   <path class="fil1" d="M530 670c-1,-1 19,-14 44,-29 24,-14 45,-25 45,-24 1,1 -19,13 -43,28 -25,14 -46,26 -46,25z"/>
  </g>
  <g id="_534842648">
   <polygon class="fil2" points="500,82 527,185 435,240 409,136 "/>
  </g>
  <g id="_534843440">
   <polygon class="fil3" points="435,240 359,209 332,105 409,136 "/>
  </g>
  <g id="_534844256">
   <polygon class="fil4" points="409,136 332,105 424,51 500,82 "/>
  </g>
  <polygon class="fil5" style="mask:url(#id0)" points="500,82 424,51 332,105 359,209 435,240 527,185 "/>
  <path class="fil1" d="M392 178c0,0 -6,5 -17,11 -11,7 -26,16 -43,26 -17,10 -33,18 -44,25 -11,6 -18,9 -19,9 0,-1 7,-5 18,-12 10,-7 26,-16 43,-26 16,-9 32,-18 43,-24 11,-6 19,-10 19,-9z"/>
  <g id="_534844424">
   <g>
    <g>
     <polygon class="fil2" points="352,504 378,607 287,662 261,558 "/>
    </g>
    <g>
     <polygon class="fil3" points="287,662 211,630 184,527 261,558 "/>
    </g>
    <g>
     <polygon class="fil4" points="261,558 184,527 275,472 352,504 "/>
    </g>
   </g>
  </g>
  <polygon class="fil5" style="mask:url(#id2)" points="352,504 275,472 184,527 211,630 287,662 378,607 "/>
  <g id="_534845432">
   <g>
    <g>
     <polygon class="fil2" points="850,486 877,590 785,644 759,541 "/>
    </g>
    <g>
     <polygon class="fil3" points="785,644 709,613 682,510 759,541 "/>
    </g>
    <g>
     <polygon class="fil4" points="759,541 682,510 774,455 850,486 "/>
    </g>
   </g>
  </g>
  <polygon class="fil5" style="mask:url(#id4)" points="850,486 774,455 682,510 709,613 785,644 877,590 "/>
  <g id="_534845912">
   <g>
    <g>
     <polygon class="fil2" points="584,370 611,473 519,528 493,424 "/>
    </g>
    <g>
     <polygon class="fil3" points="519,528 443,496 416,393 493,424 "/>
    </g>
    <g>
     <polygon class="fil4" points="493,424 416,393 508,339 584,370 "/>
    </g>
   </g>
  </g>
  <g id="_534848168">
   <polygon class="fil5" style="mask:url(#id6)" points="584,370 508,339 416,393 443,496 519,528 611,473 "/>
  </g>
  <path class="fil1" d="M468 463c0,1 -6,5 -15,11 -10,6 -23,14 -38,22 -15,9 -29,17 -39,22 -10,5 -16,8 -17,8 0,-1 6,-4 15,-10 10,-6 24,-15 38,-23 15,-9 29,-17 39,-22 10,-5 16,-8 17,-8z"/>
  <path class="fil1" d="M739 586c0,1 -6,5 -16,11 -10,6 -24,15 -40,24 -15,9 -29,17 -40,22 -10,6 -17,9 -17,9 0,-1 6,-5 16,-11 10,-6 24,-15 39,-24 16,-9 30,-17 40,-22 11,-6 17,-9 18,-9z"/>
  <path class="fil1" d="M500 387c0,0 -3,-9 -7,-23 -4,-15 -9,-35 -14,-58 -6,-22 -10,-43 -14,-57 -3,-15 -5,-24 -4,-25 1,0 3,9 7,24 4,15 9,35 15,57 5,23 10,43 13,58 3,15 5,24 4,24z"/>
  <path class="fil1" d="M263 518c0,1 -3,-8 -7,-22 -3,-14 -8,-34 -14,-56 -5,-22 -9,-41 -12,-56 -3,-14 -5,-23 -5,-23 1,0 4,8 7,23 4,14 9,33 14,55 6,22 10,42 13,56 3,14 5,23 4,23z"/>
  <path class="fil1" d="M769 495c0,0 -3,-8 -6,-22 -4,-13 -9,-32 -14,-52 -5,-21 -9,-40 -12,-53 -3,-14 -4,-22 -4,-22 1,-1 3,8 7,21 4,14 8,32 13,53 5,20 10,39 12,53 3,13 5,22 4,22z"/>
  <path class="fil1" d="M459 643c-1,1 -8,-2 -21,-7 -12,-6 -29,-13 -48,-22 -18,-9 -35,-17 -47,-23 -12,-6 -20,-10 -19,-11 0,0 8,3 20,8 12,6 29,13 48,22 19,9 35,17 48,23 12,6 19,10 19,10z"/>
  <path class="fil1" d="M688 506c0,1 -8,-2 -21,-7 -12,-4 -29,-11 -48,-19 -19,-8 -35,-15 -48,-21 -12,-5 -19,-9 -19,-10 0,0 8,3 21,7 12,5 29,12 48,20 18,8 35,15 48,21 12,5 19,9 19,9z"/>
  <path class="fil1" d="M556 449c0,3 -2,4 -4,4 -3,0 -4,-1 -4,-4 0,-2 1,-4 4,-4 2,0 4,2 4,4z"/>
  <path class="fil1" d="M504 387c0,2 -2,4 -4,4 -2,0 -4,-2 -4,-4 0,-2 2,-4 4,-4 2,0 4,2 4,4z"/>
  <path class="fil1" d="M472 463c0,2 -2,4 -4,4 -2,0 -4,-2 -4,-4 0,-2 2,-4 4,-4 2,0 4,2 4,4z"/>
  <path class="fil1" d="M330 580c0,3 -2,5 -4,5 -3,0 -4,-2 -4,-5 0,-2 1,-4 4,-4 2,0 4,2 4,4z"/>
  <path class="fil1" d="M267 518c0,3 -1,5 -4,5 -2,0 -4,-2 -4,-5 0,-2 2,-4 4,-4 3,0 4,2 4,4z"/>
  <path class="fil1" d="M773 495c0,2 -1,4 -4,4 -2,0 -4,-2 -4,-4 0,-2 2,-4 4,-4 3,0 4,2 4,4z"/>
  <path class="fil1" d="M396 179c0,2 -2,4 -4,4 -2,0 -4,-2 -4,-4 0,-2 2,-4 4,-4 2,0 4,2 4,4z"/>
  <path class="fil1" d="M743 586c0,3 -2,4 -4,4 -3,0 -4,-1 -4,-4 0,-2 1,-4 4,-4 2,0 4,2 4,4z"/>
  <g id="_534850472">
   <path class="fil1" d="M98 242c0,0 2,-1 6,-4 4,-3 10,-6 18,-11 15,-9 38,-23 65,-39l1 -1 1 1c21,9 47,19 74,31l1 0 0 1c8,32 16,66 25,102l0 0 0 2 -1 1c-32,18 -62,36 -90,52l-1 1 -1 0c-27,-12 -52,-23 -74,-32l-1 -1 0 0c-7,-32 -13,-57 -17,-75 -2,-9 -4,-16 -5,-21 -1,-4 -1,-7 -1,-7 0,0 1,3 2,7 2,5 3,12 6,20 4,18 11,44 18,75 0,0 0,-1 -1,-1 22,9 47,20 75,31 -1,0 -1,0 -2,0 28,-16 58,-34 90,-53 0,1 -1,2 -1,2l0 0c-9,-36 -17,-70 -25,-102 1,0 1,1 2,1 -28,-11 -53,-22 -75,-31 1,-1 1,-1 2,-1 -28,17 -50,30 -66,39 -8,4 -14,7 -18,10 -4,2 -7,3 -7,3z"/>
   <path class="fil1" d="M197 376c0,0 -3,-10 -8,-26 -4,-17 -10,-39 -16,-64 -1,-4 -2,-8 -2,-12 0,1 0,1 1,2 -21,-9 -40,-18 -53,-24 -13,-6 -21,-9 -21,-10 0,0 9,3 22,8 14,5 32,13 53,22l1 0 1 1c0,4 1,8 2,12 6,25 12,48 15,64 4,16 6,27 5,27z"/>
   <path class="fil1" d="M173 274c-1,-1 19,-14 43,-29 25,-14 46,-25 46,-24 1,1 -19,13 -44,28 -24,15 -45,26 -45,25z"/>
  </g>
  <g id="_534851648">
   <path class="fil1" d="M621 217c-1,0 2,-1 6,-4 4,-2 10,-6 17,-11 16,-9 38,-23 65,-39l1 0 1 0c22,9 47,20 74,31l1 1 0 0c8,32 16,67 25,103l0 0 1 1 -2 1c-31,19 -62,36 -90,53l0 0 -1 0c-28,-12 -53,-23 -75,-32l0 0 0 -1c-8,-31 -14,-57 -18,-75 -2,-9 -3,-16 -4,-20 -1,-5 -2,-8 -1,-8 0,0 0,3 2,7 1,5 3,12 5,21 5,17 11,43 19,74 -1,0 -1,0 -1,-1 22,9 47,20 74,31 0,0 -1,0 -1,1 27,-17 57,-35 89,-54 0,1 0,2 -1,3l0 0c-8,-37 -17,-71 -24,-103 0,1 1,1 1,2 -27,-12 -53,-23 -74,-32 0,0 1,0 1,0 -28,16 -50,29 -66,38 -8,4 -14,8 -18,10 -4,2 -6,4 -6,3z"/>
   <path class="fil1" d="M720 351c-1,0 -4,-10 -8,-26 -5,-16 -10,-39 -16,-64 -1,-4 -2,-8 -3,-12 0,1 1,1 1,2 -21,-9 -39,-17 -53,-23 -13,-6 -21,-10 -20,-11 0,0 8,3 21,8 14,6 33,13 54,22l1 0 0 1c1,4 2,8 3,12 6,25 11,48 15,64 3,17 5,27 5,27z"/>
   <path class="fil1" d="M695 249c-1,-1 19,-14 44,-28 24,-15 45,-26 46,-25 0,1 -19,14 -44,28 -25,15 -46,26 -46,25z"/>
  </g>
  <rect class="fil6" width="1015" height="781"/>
 </g>
</svg>
