<?xml version="1.0" encoding="UTF-8"?>
<!DOCTYPE svg PUBLIC "-//W3C//DTD SVG 1.1//EN" "http://www.w3.org/Graphics/SVG/1.1/DTD/svg11.dtd">
<!-- Creator: CorelDRAW X7 -->
<svg xmlns="http://www.w3.org/2000/svg" xml:space="preserve" width="720px" height="720px" version="1.1" style="shape-rendering:geometricPrecision; text-rendering:geometricPrecision; image-rendering:optimizeQuality; fill-rule:evenodd; clip-rule:evenodd"
viewBox="0 0 1203 1203"
 xmlns:xlink="http://www.w3.org/1999/xlink">
 <defs>
  <style type="text/css">
   <![CDATA[
    .fil0 {fill:#F3BA2E}
   ]]>
  </style>
 </defs>
 <g id="Layer_x0020_1">
  <metadata id="CorelCorpID_0Corel-Layer"/>
  <g id="_561639632">
   <path class="fil0" d="M232 369c1,4 30,31 33,35l94 93c3,3 6,7 9,8l233 -232 234 233c4,-3 13,-12 17,-16l111 -112c2,-2 7,-5 8,-9l-369 -369 0 0c-3,1 -4,3 -6,5l-41 40c-24,25 -320,320 -323,324z"/>
   <path class="fil0" d="M602 931l-226 -226c-3,-3 -5,-6 -8,-7l-136 135c1,4 19,21 22,24l324 324c3,2 21,21 24,22 4,-2 184,-183 185,-184l179 -179c2,-2 4,-4 5,-7l-136 -136 -233 234z"/>
   <path class="fil0" d="M463 602l138 138 139 -139 -138 -137 -32 31c0,0 -1,0 -1,1l-7 7c0,0 -1,0 -1,1l-26 26c-1,1 -2,1 -3,2l-22 23c0,0 -1,1 -1,1l-37 37c-1,1 -1,1 -2,2l-2 2c-1,1 -1,1 -1,1l-4 4z"/>
   <path class="fil0" d="M0 601c1,3 3,4 6,7l10 10c1,2 1,2 2,2l54 54c1,1 2,2 4,4 3,3 5,5 8,8l34 34c2,2 16,14 17,17 3,0 5,-3 9,-7l120 -119c2,-3 7,-6 8,-10l-136 -135c-3,1 -31,30 -34,33 -12,12 -23,22 -34,34 -12,11 -22,22 -34,34 -5,5 -32,31 -34,34z"/>
   <path class="fil0" d="M932 602l135 136c3,-1 14,-13 17,-17l111 -110c3,-3 7,-6 8,-10l-3 -3c0,0 -1,-1 -1,-1l-33 -33c-2,-2 -1,-1 -2,-2l-27 -27c-15,-14 -33,-34 -48,-48l-14 -14c-1,-1 0,0 -1,-1 0,0 0,0 -1,0l-1 -2c-3,-3 -3,-2 -3,-4 -4,0 -6,3 -10,7l-119 120c-3,2 -8,6 -8,9z"/>
  </g>
 </g>
</svg>
