<?xml version="1.0" encoding="UTF-8" standalone="no"?>
<!DOCTYPE svg PUBLIC "-//W3C//DTD SVG 1.1//EN" "http://www.w3.org/Graphics/SVG/1.1/DTD/svg11.dtd">
<svg width="845" height="200" viewBox="0 0 845 200" version="1.1" xmlns="http://www.w3.org/2000/svg" xmlns:xlink="http://www.w3.org/1999/xlink" xml:space="preserve" xmlns:serif="http://www.serif.com/" style="fill-rule:evenodd;clip-rule:evenodd;stroke-linejoin:round;stroke-miterlimit:2;">
    <g id="Слой_1">
        <g transform="matrix(1,0,0,1,-1,0)">
            <path d="M205,93.53L205,105.32C204.92,105.649 204.867,105.983 204.84,106.32C204.641,110.139 204.17,113.938 203.43,117.69C197.75,146.357 182.62,168.64 158.04,184.54C145.864,192.358 132.082,197.334 117.72,199.1C115.31,199.42 112.88,199.64 110.46,199.9L98.67,199.9C98.391,199.827 98.107,199.773 97.82,199.74C90.334,199.288 82.928,197.945 75.76,195.74C51.19,188.16 32.2,173.34 18.62,151.56C18.42,151.24 18.08,150.95 18.21,150.5C18.3,150.5 18.37,150.43 18.43,150.45L19.25,150.74C22.294,152.047 25.459,153.052 28.7,153.74C31.5,154.24 34.29,154.74 37.11,155.05C40.755,155.607 44.465,155.607 48.11,155.05C53.473,154.013 58.962,153.797 64.39,154.41L66.02,154.54C66.61,154.662 67.22,154.662 67.81,154.54C67.667,154.444 67.517,154.36 67.36,154.29C61.622,152.245 55.532,151.367 49.45,151.71C48.29,151.815 47.123,151.835 45.96,151.77C40.924,151.31 36.144,149.336 32.25,146.11C26.303,141.466 21.106,135.934 16.84,129.71C12.13,122.91 9.52,115.2 7.61,107.23C6.77,103.72 6.29,100.16 5.69,96.61L5.69,95.06C5.93,95.59 6.2,96.06 6.41,96.64C7.842,100.505 9.903,104.107 12.51,107.3C15.37,110.68 18.83,112.85 23.44,112.72C23.802,112.729 24.163,112.762 24.52,112.82C29.734,113.673 34.814,115.206 39.63,117.38C42.1,118.38 44.52,119.56 47.1,120.72C46.814,120.329 46.432,120.019 45.99,119.82C37.496,114.267 29.764,107.627 22.99,100.07C17.085,93.548 13.91,84.996 14.13,76.2C14.235,68.517 15.334,60.88 17.4,53.48C17.465,53.062 17.715,52.694 18.08,52.48C20.74,77.48 34.08,94.6 56.45,105.35C56.388,104.981 56.179,104.652 55.87,104.44C50.562,99.235 45.686,93.606 41.29,87.61C33.47,77 29.54,65.29 30.74,52C31.618,42.538 34.727,33.418 39.81,25.39C39.93,25.21 40,24.89 40.42,25.04L40.42,26.04C40.191,31.094 40.339,36.158 40.86,41.19C41.52,46.55 42.47,51.84 45.02,56.69C49.02,64.31 54.49,70.81 60.51,76.87C60.622,76.967 60.746,77.048 60.88,77.11C60.97,76.67 60.7,76.43 60.55,76.16C56.653,69.205 53.367,61.924 50.73,54.4C48.569,48.533 47.882,42.224 48.73,36.03C50.15,26.35 54.49,18.03 60.58,10.51C61.05,9.94 61.58,9.39 62.07,8.8C62.24,9.017 62.24,9.323 62.07,9.54C59.966,14.235 58.778,19.289 58.57,24.43C58.1,33.411 59.214,42.405 61.86,51C62.894,55.026 64.791,58.78 67.42,62C67.75,62.38 68.02,62.86 68.66,63C68.673,62.824 68.673,62.646 68.66,62.47C67.328,55.126 66.842,47.654 67.21,40.2C67.526,33.462 69.011,26.829 71.6,20.6C73.488,15.916 76.463,11.747 80.28,8.44C84.086,5.194 88.584,2.861 93.43,1.62L95.43,1.62C94.109,2.328 92.836,3.123 91.62,4C87.01,7.681 83.447,12.509 81.29,18C78.852,24.088 77.499,30.556 77.29,37.11C76.78,45.36 77.28,53.642 78.78,61.77C81.78,76.96 89.32,89.57 100.57,99.98C107.82,106.69 116.49,109.25 126.3,107.25C129.94,106.51 133.38,105.25 136.08,102.52C136.95,101.65 137.87,100.57 137.33,99.25C136.79,97.93 135.33,98.14 134.18,97.98C133.45,97.87 132.31,98.55 132.09,97.9C131.87,97.25 132.91,96.57 133.5,96C137.933,91.535 142.607,87.315 147.5,83.36C150.59,80.92 152.5,77.6 154.11,74.13C154.63,73.04 154.24,72.55 153.11,72.79C152.24,72.98 152.2,72.64 152.31,71.94C152.48,70.83 152.61,69.71 152.72,68.59C152.991,67.071 152.796,65.506 152.16,64.1C150.11,60.114 146.255,57.354 141.82,56.7C139.08,56.25 136.37,56.7 133.66,56.82C129.92,57.01 126.19,57.32 122.45,57.55C121.28,57.62 121.11,57.43 121.45,56.43C122.99,51.43 125.18,46.73 129.06,43.01C130.32,41.8 131.54,40.55 132.74,39.28C133.363,38.76 133.813,38.062 134.03,37.28C134.78,32.83 137.4,29.71 141.15,27.45C144.868,25.348 149.009,24.101 153.27,23.8C164.76,22.61 173.93,27.26 181.84,35.1C193.956,49.605 201.699,67.262 204.16,86C204.51,88.47 204.72,91 205,93.53Z" style="fill:rgb(26,162,160);fill-rule:nonzero;"/>
        </g>
        <g transform="matrix(1,0,0,1,-1,0)">
            <path d="M305.67,81.78C301.505,79.388 296.802,78.088 292,78C287.002,77.945 282.087,79.297 277.82,81.9C273.551,84.494 270.069,88.205 267.75,92.63C262.847,102.168 262.847,113.512 267.75,123.05C270.069,127.475 273.551,131.186 277.82,133.78C282.087,136.383 287.002,137.735 292,137.68C296.595,137.588 301.113,136.482 305.23,134.44C309.848,132.28 314.031,129.29 317.57,125.62L333.3,142.53C327.639,148.45 320.876,153.206 313.39,156.53C306.232,159.888 298.436,161.668 290.53,161.75C280.858,161.885 271.322,159.448 262.9,154.69C254.819,150.137 248.115,143.485 243.5,135.44C238.743,127.123 236.304,117.68 236.44,108.1C236.144,88.956 246.581,71.175 263.44,62.1C279.147,53.724 297.845,52.95 314.19,60C321.354,62.972 327.824,67.399 333.19,73L317.57,91.85C314.332,87.717 310.282,84.29 305.67,81.78Z" style="fill:rgb(26,162,160);fill-rule:nonzero;"/>
        </g>
        <g transform="matrix(1,0,0,1,-1,0)">
            <path d="M409.88,159.9L394.88,131.39L374.88,131.39L374.88,159.9L348,159.9L348,56.9L394.3,56.9C407.913,56.9 418.47,60.06 425.97,66.38C433.47,72.7 437.217,81.573 437.21,93C437.21,100.753 435.643,107.443 432.51,113.07C429.362,118.714 424.602,123.293 418.84,126.22L440.3,159.9L409.88,159.9ZM374.88,109.9L394.43,109.9C399.923,109.9 404.163,108.527 407.15,105.78C410.137,103.033 411.63,99.067 411.63,93.88C411.63,88.88 410.137,85.033 407.15,82.34C404.163,79.647 399.923,78.313 394.43,78.34L374.89,78.34L374.88,109.9Z" style="fill:rgb(26,162,160);fill-rule:nonzero;"/>
        </g>
        <g transform="matrix(1,0,0,1,-1,0)">
            <path d="M457.64,56.87L538.92,56.87L538.92,78.33L484.54,78.33L484.54,97.58L533.63,97.58L533.63,118.89L484.54,119.04L484.54,138.44L540.39,138.44L540.39,159.9L457.64,159.9L457.64,56.87Z" style="fill:rgb(26,162,160);fill-rule:nonzero;"/>
        </g>
        <g transform="matrix(1,0,0,1,-1,0)">
            <path d="M553,56.87L584.31,56.87L603.56,86.12L623,56.87L654.75,56.87L620.75,106.1L657.64,159.9L625.49,159.9L603.59,128L582.13,159.9L550.68,159.9L587.28,107.43L553,56.87Z" style="fill:rgb(26,162,160);fill-rule:nonzero;"/>
        </g>
        <g transform="matrix(1,0,0,1,-1,0)">
            <path d="M745.87,138.29L745.87,159.9L667.38,159.9L667.23,142.12L704.71,103.61C707.436,100.84 709.854,97.782 711.92,94.49C713.78,91.457 714.71,88.86 714.71,86.7C714.842,84.142 713.68,81.682 711.62,80.16C709.56,78.65 706.62,77.88 702.95,77.88C698.176,78.042 693.491,79.222 689.21,81.34C683.888,83.828 678.959,87.083 674.58,91L664.29,71.12C678.503,60.827 692.763,55.683 707.07,55.69C713.379,55.59 719.646,56.739 725.51,59.07C730.562,61.036 734.984,64.341 738.3,68.63C741.369,72.683 742.999,77.647 742.93,82.73C742.93,88.063 741.19,93.527 737.71,99.12C733.491,105.665 728.536,111.705 722.94,117.12L701.94,138.28L745.87,138.29Z" style="fill:rgb(26,162,160);fill-rule:nonzero;"/>
        </g>
        <g transform="matrix(1,0,0,1,-1,0)">
            <path d="M838.32,117.28L838.32,137.71L825.09,137.71L825.09,159.9L800.4,159.9L800.4,137.71L753.8,137.71L753.8,119.48L783.05,56.87L808.63,56.87L781.14,117.28L800.4,117.28L800.4,95.38L825.09,95.38L825.09,117.28L838.32,117.28Z" style="fill:rgb(26,162,160);fill-rule:nonzero;"/>
        </g>
    </g>
</svg>
