<?xml version="1.0" encoding="utf-8"?>
<!-- Generator: Adobe Illustrator 24.1.2, SVG Export Plug-In . SVG Version: 6.00 Build 0)  -->
<svg version="1.1" id="Layer_1" xmlns="http://www.w3.org/2000/svg" xmlns:xlink="http://www.w3.org/1999/xlink" x="0px" y="0px"
	 viewBox="0 0 292 56.5" style="enable-background:new 0 0 292 56.5;" xml:space="preserve">
<style type="text/css">
	.st0{clip-path:url(#SVGID_2_);}
	.st1{clip-path:url(#SVGID_4_);}
	.st2{fill:#FFFFFF;}
</style>
<g>
	<defs>
		<rect id="SVGID_1_" width="292" height="56.5"/>
	</defs>
	<clipPath id="SVGID_2_">
		<use xlink:href="#SVGID_1_"  style="overflow:visible;"/>
	</clipPath>
	<g class="st0">
		<g>
			<defs>
				<rect id="SVGID_3_" width="292" height="56.5"/>
			</defs>
			<clipPath id="SVGID_4_">
				<use xlink:href="#SVGID_3_"  style="overflow:visible;"/>
			</clipPath>
			<g class="st1">
				<path class="st2" d="M61.8,4.7C57.1,2.5,52,0.9,46.7,0c-0.6,1.2-1.4,2.7-1.9,4c-5.6-0.8-11.2-0.8-16.7,0c-0.5-1.3-1.3-2.8-2-4
					c-5.3,0.9-10.3,2.5-15.1,4.7C1.6,19.1-1,33.2,0.3,47c6.3,4.7,12.4,7.6,18.5,9.5c1.5-2,2.8-4.2,4-6.5c-2.2-0.8-4.3-1.8-6.2-3
					c0.5-0.4,1-0.8,1.5-1.2c12,5.6,25,5.6,36.9,0c0.5,0.4,1,0.8,1.5,1.2c-2,1.2-4.1,2.2-6.2,3c1.1,2.3,2.5,4.5,4,6.5
					c6-1.9,12.2-4.7,18.5-9.5C74.2,31,70.1,17.1,61.8,4.7z M24.4,38.5c-3.6,0-6.6-3.4-6.6-7.5s2.9-7.5,6.6-7.5
					c3.7,0,6.6,3.4,6.6,7.5C30.9,35.1,28,38.5,24.4,38.5z M48.6,38.5C45,38.5,42,35.1,42,31s2.9-7.5,6.6-7.5c3.7,0,6.6,3.4,6.6,7.5
					C55.2,35.1,52.3,38.5,48.6,38.5z"/>
				<path class="st2" d="M98,14.4h15.7c3.8,0,7,0.6,9.6,1.8c2.6,1.2,4.6,2.9,5.9,5c1.3,2.1,1.9,4.6,1.9,7.4c0,2.7-0.7,5.2-2,7.4
					c-1.4,2.2-3.4,3.9-6.2,5.2c-2.8,1.3-6.2,1.9-10.3,1.9H98V14.4z M112.4,35.8c2.5,0,4.5-0.7,5.9-1.9c1.4-1.3,2-3.1,2-5.3
					c0-2.1-0.6-3.7-1.8-5c-1.2-1.2-3.1-1.9-5.5-1.9h-4.9v14.1H112.4z"/>
				<path class="st2" d="M154.5,43.1c-2.2-0.6-4.1-1.4-5.9-2.5v-6.8c1.3,1,3.1,1.9,5.3,2.6c2.2,0.7,4.3,1,6.4,1c1,0,1.7-0.1,2.2-0.4
					c0.5-0.3,0.7-0.6,0.7-0.9c0-0.4-0.1-0.8-0.4-1c-0.3-0.3-0.8-0.5-1.6-0.7l-4.8-1.1c-2.8-0.7-4.7-1.6-5.9-2.7
					c-1.2-1.2-1.7-2.7-1.7-4.6c0-1.6,0.5-3,1.5-4.1c1-1.2,2.5-2.1,4.3-2.7c1.9-0.6,4.1-1,6.6-1c2.2,0,4.3,0.2,6.2,0.7
					c1.9,0.5,3.4,1.1,4.7,1.9v6.4c-1.3-0.8-2.7-1.4-4.4-1.8c-1.6-0.5-3.3-0.7-5.1-0.7c-2.5,0-3.8,0.4-3.8,1.3c0,0.4,0.2,0.7,0.6,0.9
					c0.4,0.2,1.1,0.4,2.1,0.6l4,0.7c2.6,0.5,4.6,1.3,5.9,2.4c1.3,1.2,1.9,2.9,1.9,5.2c0,2.5-1.1,4.5-3.2,5.9
					c-2.1,1.5-5.1,2.2-9.1,2.2C158.9,43.9,156.7,43.7,154.5,43.1z"/>
				<path class="st2" d="M183,42.2c-2.3-1.1-4-2.7-5.2-4.7c-1.2-2-1.7-4.2-1.7-6.6c0-2.5,0.6-4.7,1.8-6.6s3-3.5,5.3-4.6
					c2.3-1.1,5.1-1.7,8.4-1.7c4,0,7.4,0.9,10,2.6v7.5c-0.9-0.7-2-1.2-3.3-1.6c-1.2-0.4-2.6-0.6-4-0.6c-2.5,0-4.4,0.5-5.8,1.4
					c-1.4,0.9-2.1,2.1-2.1,3.7c0,1.5,0.7,2.7,2,3.6c1.4,0.9,3.3,1.4,5.9,1.4c1.3,0,2.7-0.2,4-0.6c1.3-0.4,2.4-0.9,3.4-1.5v7.3
					c-2.9,1.8-6.4,2.7-10.2,2.7C188.1,43.9,185.3,43.4,183,42.2z"/>
				<path class="st2" d="M211.5,42.2c-2.3-1.1-4.1-2.7-5.3-4.7c-1.2-2-1.8-4.2-1.8-6.7c0-2.5,0.6-4.7,1.8-6.6c1.2-1.9,3-3.4,5.3-4.5
					c2.3-1.1,5-1.6,8.2-1.6c3.2,0,5.9,0.5,8.2,1.6s4.1,2.6,5.3,4.5c1.2,1.9,1.8,4.1,1.8,6.6c0,2.5-0.6,4.7-1.8,6.7
					c-1.2,2-3,3.6-5.3,4.7c-2.3,1.1-5.1,1.7-8.2,1.7C216.6,43.9,213.8,43.4,211.5,42.2z M223.7,34.9c1-1,1.5-2.3,1.5-4
					c0-1.6-0.5-2.9-1.5-3.9c-1-1-2.3-1.5-4-1.5c-1.7,0-3.1,0.5-4,1.5c-1,1-1.5,2.3-1.5,3.9c0,1.6,0.5,3,1.5,4c1,1,2.3,1.5,4,1.5
					C221.4,36.4,222.7,35.9,223.7,34.9z"/>
				<path class="st2" d="M259.2,19.6v8.9c-1-0.7-2.3-1-4-1c-2.1,0-3.8,0.7-4.9,2c-1.2,1.3-1.7,3.4-1.7,6.2v7.5h-9.8v-24h9.6v7.6
					c0.5-2.8,1.4-4.8,2.6-6.2c1.2-1.3,2.7-2,4.6-2C256.9,18.6,258.1,18.9,259.2,19.6z"/>
				<path class="st2" d="M291.9,13.6v29.5H282v-5.4c-0.8,2-2.1,3.6-3.8,4.6c-1.7,1-3.8,1.6-6.3,1.6c-2.2,0-4.2-0.6-5.8-1.7
					c-1.7-1.1-2.9-2.6-3.8-4.6c-0.9-1.9-1.3-4.1-1.3-6.5c0-2.5,0.4-4.8,1.4-6.8c1-2,2.4-3.6,4.1-4.7c1.8-1.1,3.8-1.7,6.1-1.7
					c4.7,0,7.8,2.1,9.4,6.2V13.6H291.9z M280.6,34.8c1-1,1.5-2.3,1.5-3.9c0-1.5-0.5-2.8-1.5-3.7c-1-1-2.3-1.4-4-1.4
					c-1.7,0-3,0.5-4,1.5c-1,1-1.5,2.2-1.5,3.8s0.5,2.8,1.5,3.8s2.3,1.5,3.9,1.5C278.2,36.3,279.5,35.8,280.6,34.8z"/>
				<path class="st2" d="M139.4,21.7c2.7,0,4.9-2,4.9-4.5s-2.2-4.5-4.9-4.5c-2.7,0-4.9,2-4.9,4.5S136.7,21.7,139.4,21.7z"/>
				<path class="st2" d="M134.5,24.8c3,1.3,6.7,1.4,9.8,0v18.5h-9.8V24.8z"/>
			</g>
		</g>
	</g>
</g>
</svg>
