<?xml version="1.0" encoding="UTF-8"?>
<!DOCTYPE svg PUBLIC "-//W3C//DTD SVG 1.1//EN" "http://www.w3.org/Graphics/SVG/1.1/DTD/svg11.dtd">
<!-- Creator: CorelDRAW X7 -->
<svg xmlns="http://www.w3.org/2000/svg" xml:space="preserve" width="787px" height="787px" version="1.1" style="shape-rendering:geometricPrecision; text-rendering:geometricPrecision; image-rendering:optimizeQuality; fill-rule:evenodd; clip-rule:evenodd"
viewBox="0 0 286 286"
 xmlns:xlink="http://www.w3.org/1999/xlink">
 <defs>
  <style type="text/css">
   <![CDATA[
    .fil0 {fill:none}
    .fil1 {fill:#F0F0F0}
   ]]>
  </style>
 </defs>
 <g id="Layer_x0020_1">
  <metadata id="CorelCorpID_0Corel-Layer"/>
  <g id="_726150928">
   <circle class="fil0" cx="143" cy="143" r="143"/>
   <g>
    <path class="fil1" d="M143 126c1,3 4,18 4,22 0,3 -3,6 -7,6 -4,0 -18,-10 -21,-10 -1,0 -9,4 -11,5 -4,2 -7,5 -12,5 -3,0 -5,-4 -5,-6l2 -14c1,-9 2,-7 -1,-11 -2,-1 -3,-2 -4,-4 -5,-4 -10,-7 -10,-13 0,-3 2,-5 3,-6 2,0 6,-1 8,-1l11 -2c5,0 3,1 7,-7 1,-2 2,-4 3,-6 2,-4 3,-9 9,-9 5,0 6,4 9,9 7,15 4,13 13,14 9,1 19,1 19,8 0,3 -2,5 -3,6 -3,3 -12,12 -14,14zm-112 -62l0 104c0,8 9,17 18,17l14 0c0,2 2,9 3,12l6 24c1,4 2,8 7,8 4,0 5,-2 7,-4l7 -9c1,-1 1,-1 2,-2l24 -29c17,0 35,0 53,0 8,0 19,1 24,-2 7,-4 10,-10 10,-17l0 -100c0,-10 -8,-19 -17,-19l-141 0c-8,0 -17,9 -17,17z"/>
    <path class="fil1" d="M220 167c0,11 -8,22 -17,27 -12,6 -25,4 -39,4l-21 0c-8,0 -6,-2 -6,11 0,5 1,9 4,12 3,3 7,4 12,4l40 0c4,0 4,1 6,3l18 23c3,2 3,3 7,3 2,0 5,-3 5,-4 1,-3 2,-6 2,-9 1,-2 2,-5 2,-8 1,-2 2,-6 2,-8l6 0c7,0 14,-6 14,-13l0 -68c0,-6 -7,-13 -13,-13l-22 0 0 36z"/>
    <path class="fil1" d="M99 111c0,1 2,2 4,4 5,5 6,5 4,12 0,2 0,7 -1,8 4,-1 9,-6 13,-6 2,0 5,2 6,3 2,1 5,2 6,3 0,-4 -1,-8 -1,-12 0,-5 7,-9 9,-12 -2,0 -12,-2 -14,-3 -1,-1 -5,-10 -6,-12 -2,2 -4,9 -6,11 -2,2 -3,2 -7,3 -2,0 -5,1 -7,1z"/>
   </g>
  </g>
 </g>
</svg>
