<?xml version="1.0" encoding="UTF-8" standalone="no"?>
<!DOCTYPE svg PUBLIC "-//W3C//DTD SVG 1.1//EN" "http://www.w3.org/Graphics/SVG/1.1/DTD/svg11.dtd">
<svg width="100%" height="100%" viewBox="0 0 500 76" version="1.1" xmlns="http://www.w3.org/2000/svg" xmlns:xlink="http://www.w3.org/1999/xlink" xml:space="preserve" xmlns:serif="http://www.serif.com/" style="fill-rule:evenodd;clip-rule:evenodd;stroke-linejoin:round;stroke-miterlimit:2;">
    <g id="Artboard1" transform="matrix(1,0,0,0.151534,0,0)">
        <rect x="0" y="0" width="500" height="500" style="fill:none;"/>
        <g id="ic_icon.svg" transform="matrix(0.385512,0,0,2.54407,62.1446,250)">
            <g transform="matrix(1,0,0,1,-161.2,-161.2)">
                <path d="M175.9,110.7C175.4,109.4 173.9,108.8 172.6,109.3C172.3,109.4 172,109.6 171.7,109.9L165.8,115.8L125.1,75.4C109.7,60.1 84.8,60.1 69.4,75.4L11.5,133.4C-3.8,148.9 -3.8,173.8 11.5,189.3L69.5,247C84.9,262.3 109.8,262.3 125.2,247L138.4,233.8C140.5,231.8 142.2,229.3 143.3,226.6C145.1,221.6 144.4,216 141.3,211.6C140.7,210.8 140.1,210 139.3,209.3C132.8,203 122.5,203 116.1,209.4L101.9,223.6C101.1,224.5 100,225.1 98.8,225.3C97.7,225.6 96.5,225.5 95.4,225.1C94.3,224.7 93.2,224.1 92.4,223.2L34.8,165.6C32.7,163.5 32.3,160.3 33.8,157.8L34.1,157.5C34.8,156.8 92.2,99.5 92.7,99C93.6,98.1 94.8,97.5 96,97.2C96.4,97.1 96.8,97.1 97.2,97.1C98.9,97.1 100.5,97.8 101.7,99L142.3,139.3L136.3,145.3C135.3,146.3 135.3,147.9 136.3,148.9C136.5,149.1 136.8,149.3 137.2,149.5L173.8,154C177,154 179.5,151.4 179.5,148.2L175.9,110.7Z" style="fill:url(#_Linear1);fill-rule:nonzero;"/>
                <path d="M34.4,165.2C32.7,163.1 32.5,160.2 33.9,157.9C33.9,157.9 14.8,178.7 24,201.7L36.1,213.7L53.7,184.5L34.4,165.2Z" style="fill:url(#_Linear2);fill-rule:nonzero;"/>
                <path d="M93.7,224.5C115.2,244.2 138.8,233.2 138.8,233.2C140.7,231.3 142.2,229.1 143.1,226.6C139.9,225 116.8,208.5 116.8,208.5L103.2,222.2C98.4,228.1 93.7,224.5 93.7,224.5Z" style="fill:url(#_Linear3);fill-rule:nonzero;"/>
                <path d="M79.6,112.3C79.6,112.3 93.4,98.4 93.4,98.5C93.4,98.6 97.1,95.6 100.9,98.3C100.9,98.3 78,79.5 53.6,91.3L46.4,98.5L79.6,112.3Z" style="fill:url(#_Linear4);fill-rule:nonzero;"/>
                <path d="M146.5,211.7C147,213 148.5,213.6 149.8,213.1C150.1,213 150.4,212.8 150.7,212.5L156.6,206.6L197.3,247C212.7,262.3 237.6,262.3 253,247L310.9,189C326.2,173.5 326.2,148.6 310.9,133.1L252.9,75.4C237.5,60.1 212.6,60.1 197.2,75.4L184.1,88.6C181.9,90.6 180.3,93 179.2,95.8C178.3,98.3 178,100.9 178.4,103.6C179.6,112.6 187.9,119 196.9,117.8C200.5,117.3 203.8,115.7 206.4,113.1L220.6,98.9C221.5,98 222.5,97.4 223.7,97.2C224.8,96.9 226,97 227.1,97.4C228.2,97.8 229.3,98.4 230.1,99.3L287.7,156.9C289.8,159 290.2,162.2 288.7,164.7L288.4,165C287.7,165.7 230.3,223 229.8,223.5C228.9,224.4 227.7,225 226.5,225.3C226.1,225.4 225.7,225.4 225.3,225.4C223.6,225.4 222,224.7 220.8,223.5L180.2,183.2L186.2,177.2C187.2,176.2 187.2,174.6 186.2,173.6C186,173.4 185.7,173.2 185.4,173.1L148.8,168.6C145.6,168.6 143.1,171.2 143.1,174.4L146.5,211.7Z" style="fill:url(#_Linear5);fill-rule:nonzero;"/>
                <path d="M288,157.2C289.7,159.3 289.9,162.2 288.5,164.5C288.5,164.5 307.6,143.7 298.4,120.7L286.3,108.7L268.7,137.9L288,157.2Z" style="fill:url(#_Linear6);fill-rule:nonzero;"/>
                <path d="M228.7,97.9C207.2,78.1 183.6,89.1 183.6,89.1C181.7,91 180.2,93.2 179.2,95.7C182.4,97.3 205.5,113.8 205.5,113.8L219.2,100.2C224,94.3 228.7,97.9 228.7,97.9Z" style="fill:url(#_Linear7);fill-rule:nonzero;"/>
                <path d="M242.8,210.1C242.8,210.1 229,224 229,223.9C229,223.8 225.3,226.8 221.5,224.1C221.5,224.1 244.4,242.9 268.8,231.1L276,223.9L242.8,210.1Z" style="fill:url(#_Linear8);fill-rule:nonzero;"/>
            </g>
        </g>
        <g id="ic_text.svg" transform="matrix(2.28746,0,0,15.0954,326.828,250)">
            <g transform="matrix(1,0,0,1,-75.705,-12)">
                <clipPath id="_clip9">
                    <rect x="0" y="0" width="151.41" height="24"/>
                </clipPath>
                <g clip-path="url(#_clip9)">
                    <g transform="matrix(1,0,0,1,-68.4,-268.8)">
                        <rect x="68.4" y="270.2" width="2.4" height="18.6" style="fill:white;fill-rule:nonzero;"/>
                    </g>
                    <g transform="matrix(1,0,0,1,-68.4,-268.8)">
                        <path d="M73.6,275.3L75.4,275.3L76,276.8C77.5,275.9 78.7,275 80.8,275C83.6,275 85,277.1 85,279.5L85,288.8L82.6,288.8L82.6,279.5C82.615,279.399 82.623,279.298 82.623,279.196C82.623,278.099 81.72,277.196 80.623,277.196C80.582,277.196 80.541,277.197 80.5,277.2C78.865,277.218 77.268,277.704 75.9,278.6L75.9,288.8L73.5,288.8L73.6,275.3Z" style="fill:white;fill-rule:nonzero;"/>
                    </g>
                    <g transform="matrix(1,0,0,1,-68.4,-268.8)">
                        <path d="M86.6,275.7L89,275.3L89,274C88.997,273.932 88.996,273.864 88.996,273.796C88.996,271.127 91.133,268.905 93.8,268.8L94.2,268.8C95.953,268.92 97.692,269.187 99.4,269.6L99.4,271.1L94.9,270.9C93.3,270.8 91.4,271.4 91.4,274.1L91.4,275.3L100.6,275.6L100.6,288.8L98.2,288.8L98.2,277.4L91.4,277.4L91.4,288.8L89,288.8L89,277.4L86.6,277.4L86.6,275.7Z" style="fill:white;fill-rule:nonzero;"/>
                    </g>
                    <g transform="matrix(1,0,0,1,-68.4,-268.8)">
                        <path d="M103.3,275.3L105,275.3L105.6,276.8C107.1,275.9 108.4,275 110.4,275C113.2,275 114.6,277.1 114.6,279.5L114.6,288.8L112.2,288.8L112.2,279.5C112.215,279.399 112.223,279.298 112.223,279.196C112.223,278.099 111.32,277.196 110.223,277.196C110.182,277.196 110.141,277.197 110.1,277.2C108.465,277.218 106.868,277.704 105.5,278.6L105.5,288.8L103.1,288.8L103.3,275.3Z" style="fill:white;fill-rule:nonzero;"/>
                    </g>
                    <g transform="matrix(1,0,0,1,-68.4,-268.8)">
                        <path d="M117,271.5C116.977,271.199 117.2,270.931 117.5,270.9L119.3,270.9C119.62,270.924 119.876,271.18 119.9,271.5L119.9,273.2C119.892,273.491 119.685,273.74 119.4,273.8L117.6,273.8C117.299,273.823 117.031,273.6 117,273.3L117,271.5ZM117.3,275.3L119.7,275.3L119.7,288.8L117.3,288.8L117.3,275.3Z" style="fill:white;fill-rule:nonzero;"/>
                    </g>
                    <g transform="matrix(1,0,0,1,-68.4,-268.8)">
                        <path d="M121.6,275.8L124,275.3L124.5,271.5L126.4,271.5L126.4,275.3L130.1,275.3L130.1,277.4L126.4,277.4L126.4,283.8C126.4,286 127,286.4 127.8,286.7C127.8,286.7 129.8,287.2 129.9,287.2L129.9,288.8L127.4,288.8C125.4,288.8 124,287.6 124,284L124,277.4L121.6,277.4L121.6,275.8Z" style="fill:white;fill-rule:nonzero;"/>
                    </g>
                    <g transform="matrix(1,0,0,1,-68.4,-268.8)">
                        <path d="M137.8,288.8L136.5,292.8L139.1,292.8L144.7,275.3L142.1,275.3L138.5,286.6C138.382,286.635 138.26,286.652 138.137,286.652C137.558,286.652 137.048,286.26 136.9,285.7L136.9,285.6L133.9,275.3L131.4,275.3L134.6,285.8C135.3,288.5 136.9,288.8 137.8,288.8Z" style="fill:white;fill-rule:nonzero;"/>
                    </g>
                    <g transform="matrix(1,0,0,1,-68.4,-268.8)">
                        <path d="M155.08,288.92C153.98,288.935 152.882,288.817 151.81,288.57C150.932,288.351 150.131,287.898 149.49,287.26C148.787,286.497 148.306,285.556 148.1,284.54C147.756,283.025 147.602,281.473 147.64,279.92C147.608,278.433 147.766,276.947 148.11,275.5C148.344,274.487 148.833,273.551 149.53,272.78C150.176,272.112 150.998,271.641 151.9,271.42C152.974,271.144 154.081,271.012 155.19,271.03C155.89,271.03 156.61,271.03 157.36,271.13C158.11,271.23 158.83,271.28 159.52,271.38C160.21,271.48 160.83,271.6 161.37,271.73L161.37,273.54C161.03,273.49 160.57,273.44 159.98,273.39C159.39,273.34 158.74,273.28 157.98,273.24C157.22,273.2 156.47,273.18 155.68,273.18C154.868,273.162 154.057,273.256 153.27,273.46C152.642,273.624 152.078,273.972 151.65,274.46C151.18,275.06 150.867,275.768 150.74,276.52C150.53,277.647 150.436,278.793 150.46,279.94C150.439,281.106 150.529,282.271 150.73,283.42C150.848,284.173 151.146,284.887 151.6,285.5C152.007,285.993 152.56,286.344 153.18,286.5C153.988,286.696 154.818,286.787 155.65,286.77C157.07,286.77 158.23,286.77 159.14,286.68C160.05,286.59 160.79,286.55 161.35,286.49L161.35,288.33C160.79,288.44 160.16,288.54 159.48,288.64C158.8,288.74 158.09,288.8 157.34,288.85C156.59,288.9 155.85,288.92 155.08,288.92Z" style="fill:white;fill-rule:nonzero;"/>
                    </g>
                    <g transform="matrix(1,0,0,1,-68.4,-268.8)">
                        <path d="M163.35,288.78L163.35,275.94L165.2,275.94L165.75,278.1C166.272,277.463 166.885,276.907 167.57,276.45C168.267,275.991 169.086,275.754 169.92,275.77C170.12,275.759 170.32,275.759 170.52,275.77C170.709,275.791 170.897,275.828 171.08,275.88L171.08,278.35L170.38,278.27C170.13,278.255 169.88,278.255 169.63,278.27C169.137,278.262 168.645,278.326 168.17,278.46C167.731,278.597 167.313,278.796 166.93,279.05C166.509,279.349 166.114,279.683 165.75,280.05L165.75,288.81L163.35,288.78Z" style="fill:white;fill-rule:nonzero;"/>
                    </g>
                    <g transform="matrix(1,0,0,1,-68.4,-268.8)">
                        <path d="M178.47,288.8L177.17,292.8L179.77,292.8L185.37,275.3L182.77,275.3L179.17,286.6C179.052,286.635 178.93,286.652 178.807,286.652C178.228,286.652 177.718,286.26 177.57,285.7L177.57,285.6L174.57,275.3L172.07,275.3L175.27,285.8C176,288.5 177.57,288.8 178.47,288.8Z" style="fill:white;fill-rule:nonzero;"/>
                    </g>
                    <g transform="matrix(1,0,0,1,-68.4,-268.8)">
                        <path d="M186.61,292.7L186.61,275.21L188.61,275.21L189.04,276.43C189.386,276.192 189.751,275.981 190.13,275.8C190.576,275.58 191.041,275.402 191.52,275.27C192.013,275.124 192.525,275.049 193.04,275.05C193.772,275.03 194.498,275.195 195.15,275.53C195.729,275.841 196.218,276.295 196.57,276.85C196.957,277.463 197.232,278.14 197.38,278.85C197.547,279.649 197.631,280.464 197.63,281.28C197.655,282.434 197.497,283.585 197.16,284.69C196.91,285.53 196.398,286.27 195.7,286.8C194.909,287.307 193.979,287.555 193.04,287.51C192.344,287.503 191.652,287.409 190.98,287.23C190.308,287.048 189.657,286.793 189.04,286.47L189.04,292.72L186.61,292.7ZM192.29,285.58C192.806,285.592 193.315,285.461 193.76,285.2C194.224,284.876 194.574,284.414 194.76,283.88C195.063,283.041 195.199,282.151 195.16,281.26C195.191,280.391 195.052,279.525 194.75,278.71C194.546,278.152 194.176,277.671 193.69,277.33C193.272,277.053 192.781,276.907 192.28,276.91C191.655,276.905 191.033,277.003 190.44,277.2C189.94,277.378 189.449,277.581 188.97,277.81L188.97,284.72C189.476,284.986 190.009,285.197 190.56,285.35C191.123,285.508 191.705,285.585 192.29,285.58Z" style="fill:white;fill-rule:nonzero;"/>
                    </g>
                    <g transform="matrix(1,0,0,1,-68.4,-268.8)">
                        <path d="M198.55,275.8L200.95,275.3L201.45,271.5L203.35,271.5L203.35,275.3L207.05,275.3L207.05,277.4L203.35,277.4L203.35,283.8C203.35,286 203.95,286.4 204.75,286.7C204.75,286.7 206.75,287.2 206.85,287.2L206.85,288.8L204.35,288.8C202.35,288.8 200.95,287.6 200.95,284L200.95,277.4L198.55,277.4L198.55,275.8Z" style="fill:white;fill-rule:nonzero;"/>
                    </g>
                    <g transform="matrix(1,0,0,1,-68.4,-268.8)">
                        <path d="M214.06,289C213.193,289.014 212.328,288.906 211.49,288.68C210.808,288.485 210.19,288.112 209.7,287.6C209.2,287.003 208.857,286.292 208.7,285.53C208.449,284.442 208.334,283.327 208.36,282.21C208.332,281.064 208.446,279.918 208.7,278.8C208.852,278.036 209.197,277.324 209.7,276.73C210.196,276.231 210.824,275.885 211.51,275.73C213.192,275.35 214.938,275.35 216.62,275.73C217.301,275.89 217.924,276.237 218.42,276.73C218.939,277.316 219.301,278.025 219.47,278.79C219.722,279.902 219.836,281.04 219.81,282.18C219.835,283.31 219.721,284.438 219.47,285.54C219.316,286.3 218.972,287.009 218.47,287.6C217.985,288.115 217.365,288.483 216.68,288.66C215.826,288.891 214.945,289.005 214.06,289ZM214.06,287C214.541,287.006 215.021,286.956 215.49,286.85C215.881,286.751 216.232,286.53 216.49,286.22C216.813,285.793 217.032,285.297 217.13,284.77C217.291,283.927 217.365,283.069 217.35,282.21C217.365,281.358 217.291,280.507 217.13,279.67C217.035,279.152 216.816,278.664 216.49,278.25C216.232,277.94 215.881,277.719 215.49,277.62C215.023,277.502 214.542,277.445 214.06,277.45C213.571,277.444 213.084,277.502 212.61,277.62C212.218,277.718 211.867,277.939 211.61,278.25C211.295,278.667 211.086,279.154 211,279.67C210.847,280.508 210.78,281.359 210.8,282.21C210.78,283.068 210.847,283.926 211,284.77C211.089,285.294 211.297,285.79 211.61,286.22C211.867,286.531 212.218,286.752 212.61,286.85C213.089,286.929 213.576,286.953 214.06,286.92L214.06,287Z" style="fill:white;fill-rule:nonzero;"/>
                    </g>
                </g>
            </g>
        </g>
    </g>
    <defs>
        <linearGradient id="_Linear1" x1="0" y1="0" x2="1" y2="0" gradientUnits="userSpaceOnUse" gradientTransform="matrix(2.30791e-14,376.91,-376.91,2.30791e-14,89.7192,39.05)"><stop offset="0" style="stop-color:rgb(0,191,225);stop-opacity:1"/><stop offset="0.01" style="stop-color:rgb(0,191,225);stop-opacity:1"/><stop offset="0.97" style="stop-color:rgb(39,56,171);stop-opacity:1"/><stop offset="1" style="stop-color:rgb(39,56,171);stop-opacity:1"/></linearGradient>
        <linearGradient id="_Linear2" x1="0" y1="0" x2="1" y2="0" gradientUnits="userSpaceOnUse" gradientTransform="matrix(24.28,20.31,-20.31,24.28,17.2573,171.045)"><stop offset="0" style="stop-color:rgb(27,20,100);stop-opacity:0.49"/><stop offset="0.03" style="stop-color:rgb(27,20,100);stop-opacity:0.49"/><stop offset="1" style="stop-color:rgb(27,20,100);stop-opacity:0"/></linearGradient>
        <linearGradient id="_Linear3" x1="0" y1="0" x2="1" y2="0" gradientUnits="userSpaceOnUse" gradientTransform="matrix(11.56,-16.4,16.4,11.56,111.455,235.989)"><stop offset="0" style="stop-color:rgb(27,20,100);stop-opacity:0.49"/><stop offset="0.03" style="stop-color:rgb(27,20,100);stop-opacity:0.49"/><stop offset="1" style="stop-color:rgb(27,20,100);stop-opacity:0"/></linearGradient>
        <linearGradient id="_Linear4" x1="0" y1="0" x2="1" y2="0" gradientUnits="userSpaceOnUse" gradientTransform="matrix(-8.69,21.47,-21.47,-8.69,78.8797,85.4839)"><stop offset="0" style="stop-color:rgb(27,20,100);stop-opacity:0.49"/><stop offset="0.03" style="stop-color:rgb(27,20,100);stop-opacity:0.49"/><stop offset="1" style="stop-color:rgb(27,20,100);stop-opacity:0"/></linearGradient>
        <linearGradient id="_Linear5" x1="0" y1="0" x2="1" y2="0" gradientUnits="userSpaceOnUse" gradientTransform="matrix(2.30791e-14,376.91,-376.91,2.30791e-14,232.676,39.05)"><stop offset="0" style="stop-color:rgb(0,191,225);stop-opacity:1"/><stop offset="0.01" style="stop-color:rgb(0,191,225);stop-opacity:1"/><stop offset="0.97" style="stop-color:rgb(39,56,171);stop-opacity:1"/><stop offset="1" style="stop-color:rgb(39,56,171);stop-opacity:1"/></linearGradient>
        <linearGradient id="_Linear6" x1="0" y1="0" x2="1" y2="0" gradientUnits="userSpaceOnUse" gradientTransform="matrix(-24.28,-20.31,20.31,-24.28,305.118,151.374)"><stop offset="0" style="stop-color:rgb(27,20,100);stop-opacity:0.49"/><stop offset="0.03" style="stop-color:rgb(27,20,100);stop-opacity:0.49"/><stop offset="1" style="stop-color:rgb(27,20,100);stop-opacity:0"/></linearGradient>
        <linearGradient id="_Linear7" x1="0" y1="0" x2="1" y2="0" gradientUnits="userSpaceOnUse" gradientTransform="matrix(-11.57,16.4,-16.4,-11.57,210.933,86.402)"><stop offset="0" style="stop-color:rgb(27,20,100);stop-opacity:0.49"/><stop offset="0.03" style="stop-color:rgb(27,20,100);stop-opacity:0.49"/><stop offset="1" style="stop-color:rgb(27,20,100);stop-opacity:0"/></linearGradient>
        <linearGradient id="_Linear8" x1="0" y1="0" x2="1" y2="0" gradientUnits="userSpaceOnUse" gradientTransform="matrix(8.68,-21.4699,21.4699,8.68,243.529,236.91)"><stop offset="0" style="stop-color:rgb(27,20,100);stop-opacity:0.49"/><stop offset="0.03" style="stop-color:rgb(27,20,100);stop-opacity:0.49"/><stop offset="1" style="stop-color:rgb(27,20,100);stop-opacity:0"/></linearGradient>
    </defs>
</svg>
