<?xml version="1.0" encoding="UTF-8"?>
<!DOCTYPE svg PUBLIC "-//W3C//DTD SVG 1.1//EN" "http://www.w3.org/Graphics/SVG/1.1/DTD/svg11.dtd">
<!-- Creator: CorelDRAW X7 -->
<svg xmlns="http://www.w3.org/2000/svg" xml:space="preserve" width="700px" height="700px" version="1.1" style="shape-rendering:geometricPrecision; text-rendering:geometricPrecision; image-rendering:optimizeQuality; fill-rule:evenodd; clip-rule:evenodd"
viewBox="0 0 700 700"
 xmlns:xlink="http://www.w3.org/1999/xlink">
 <defs>
  <style type="text/css">
   <![CDATA[
    .fil0 {fill:url(#id12)}
    .fil5 {fill:url(#id13);fill-rule:nonzero}
    .fil1 {fill:url(#id14);fill-rule:nonzero}
    .fil7 {fill:url(#id15);fill-rule:nonzero}
    .fil4 {fill:url(#id16);fill-rule:nonzero}
    .fil3 {fill:url(#id17);fill-rule:nonzero}
    .fil8 {fill:url(#id18);fill-rule:nonzero}
    .fil6 {fill:url(#id19);fill-rule:nonzero}
    .fil2 {fill:url(#id20);fill-rule:nonzero}
   ]]>
  </style>
    <mask id="id0">
  <linearGradient id="id1" gradientUnits="userSpaceOnUse" x1="121.959" y1="389.854" x2="137.405" y2="397.969">
   <stop offset="0" style="stop-opacity:0.486275; stop-color:white"/>
   <stop offset="0.0313725" style="stop-opacity:0.486275; stop-color:white"/>
   <stop offset="1" style="stop-opacity:0; stop-color:white"/>
  </linearGradient>
     <rect style="fill:url(#id1)" x="101" y="344" width="57.8472" height="100.037"/>
    </mask>
    <mask id="id2">
  <linearGradient id="id3" gradientUnits="userSpaceOnUse" x1="270.409" y1="467.797" x2="277.29" y2="450.317">
   <stop offset="0" style="stop-opacity:0.486275; stop-color:white"/>
   <stop offset="0.0313725" style="stop-opacity:0.486275; stop-color:white"/>
   <stop offset="1" style="stop-opacity:0; stop-color:white"/>
  </linearGradient>
     <rect style="fill:url(#id3)" x="229" y="434" width="88.7591" height="50.0181"/>
    </mask>
    <mask id="id4">
  <linearGradient id="id5" gradientUnits="userSpaceOnUse" x1="195.931" y1="230.947" x2="192.128" y2="250.469">
   <stop offset="0" style="stop-opacity:0.486275; stop-color:white"/>
   <stop offset="0.0313725" style="stop-opacity:0.486275; stop-color:white"/>
   <stop offset="1" style="stop-opacity:0; stop-color:white"/>
  </linearGradient>
     <rect style="fill:url(#id5)" x="145" y="218" width="97.6677" height="45.0071"/>
    </mask>
    <mask id="id6">
  <linearGradient id="id7" gradientUnits="userSpaceOnUse" x1="579.516" y1="309.835" x2="561.12" y2="302.49">
   <stop offset="0" style="stop-opacity:0.486275; stop-color:white"/>
   <stop offset="0.0117647" style="stop-opacity:0.486275; stop-color:white"/>
   <stop offset="1" style="stop-opacity:0; stop-color:white"/>
  </linearGradient>
     <rect style="fill:url(#id7)" x="541" y="256" width="57.8465" height="100.038"/>
    </mask>
    <mask id="id8">
  <linearGradient id="id9" gradientUnits="userSpaceOnUse" x1="429.065" y1="232.965" x2="423.183" y2="248.857">
   <stop offset="0" style="stop-opacity:0.486275; stop-color:white"/>
   <stop offset="0.0313725" style="stop-opacity:0.486275; stop-color:white"/>
   <stop offset="1" style="stop-opacity:0; stop-color:white"/>
  </linearGradient>
     <rect style="fill:url(#id9)" x="382" y="216" width="88.8134" height="50.089"/>
    </mask>
    <mask id="id10">
  <linearGradient id="id11" gradientUnits="userSpaceOnUse" x1="501.617" y1="470.065" x2="510.324" y2="448.498">
   <stop offset="0" style="stop-opacity:0.486275; stop-color:white"/>
   <stop offset="0.0117647" style="stop-opacity:0.486275; stop-color:white"/>
   <stop offset="1" style="stop-opacity:0; stop-color:white"/>
  </linearGradient>
     <rect style="fill:url(#id11)" x="457" y="437" width="97.6685" height="45.0173"/>
    </mask>
  <linearGradient id="id12" gradientUnits="userSpaceOnUse" x1="5.52913" y1="267.983" x2="694.471" y2="432.017">
   <stop offset="0" style="stop-opacity:1; stop-color:#8F8F8F"/>
   <stop offset="0.14902" style="stop-opacity:1; stop-color:#6E767D"/>
   <stop offset="0.321569" style="stop-opacity:1; stop-color:#E2E2E2"/>
   <stop offset="0.34902" style="stop-opacity:1; stop-color:#F2F2F2"/>
   <stop offset="0.4" style="stop-opacity:1; stop-color:#DDDEDE"/>
   <stop offset="0.6" style="stop-opacity:1; stop-color:#888A8D"/>
   <stop offset="0.780392" style="stop-opacity:1; stop-color:#EAEAEA"/>
   <stop offset="1" style="stop-opacity:1; stop-color:#7E8284"/>
  </linearGradient>
  <linearGradient id="id13" gradientUnits="userSpaceOnUse" x1="477.35" y1="523.373" x2="477.35" y2="176.604">
   <stop offset="0" style="stop-opacity:1; stop-color:#00BFE1"/>
   <stop offset="0.0117647" style="stop-opacity:1; stop-color:#00BFE1"/>
   <stop offset="0.968627" style="stop-opacity:1; stop-color:#2638AA"/>
   <stop offset="1" style="stop-opacity:1; stop-color:#2638AA"/>
  </linearGradient>
  <linearGradient id="id14" gradientUnits="userSpaceOnUse" xlink:href="#id13" x1="222.642" y1="523.396" x2="222.642" y2="176.637">
  </linearGradient>
  <linearGradient id="id15" gradientUnits="userSpaceOnUse" x1="437.098" y1="268.64" x2="415.149" y2="213.182">
   <stop offset="0" style="stop-opacity:1; stop-color:#1A1364"/>
   <stop offset="0.0313725" style="stop-opacity:1; stop-color:#1A1364"/>
   <stop offset="1" style="stop-opacity:1; stop-color:#1A1364"/>
  </linearGradient>
  <linearGradient id="id16" gradientUnits="userSpaceOnUse" xlink:href="#id15" x1="188.445" y1="210.552" x2="199.613" y2="270.864">
  </linearGradient>
  <linearGradient id="id17" gradientUnits="userSpaceOnUse" xlink:href="#id15" x1="284.791" y1="486.749" x2="262.908" y2="431.365">
  </linearGradient>
  <linearGradient id="id18" gradientUnits="userSpaceOnUse" xlink:href="#id15" x1="500.392" y1="429.127" x2="511.55" y2="489.437">
  </linearGradient>
  <linearGradient id="id19" gradientUnits="userSpaceOnUse" xlink:href="#id15" x1="540.449" y1="320.546" x2="600.187" y2="291.778">
  </linearGradient>
  <linearGradient id="id20" gradientUnits="userSpaceOnUse" xlink:href="#id15" x1="99.8126" y1="408.296" x2="159.551" y2="379.528">
  </linearGradient>
 </defs>
 <g id="Layer_x0020_1">
  <metadata id="CorelCorpID_0Corel-Layer"/>
  <path class="fil0" d="M350 684c92,0 176,-38 236,-98 60,-60 98,-144 98,-236 0,-92 -38,-176 -98,-236 -60,-60 -144,-98 -236,-98 -92,0 -176,38 -236,98 -60,60 -98,144 -98,236 0,92 38,176 98,236 60,60 144,98 236,98zm247 -87c-63,64 -150,103 -247,103 -97,0 -184,-39 -247,-103 -64,-63 -103,-150 -103,-247 0,-97 39,-184 103,-247 63,-64 150,-103 247,-103 97,0 184,39 247,103 64,63 103,150 103,247 0,97 -39,184 -103,247z"/>
  <g id="_559882224">
   <path class="fil1" d="M376 260c-1,-2 -3,-3 -6,-2 0,0 -1,0 -1,1l-9 9 -2 1 -72 -72c-28,-27 -72,-27 -100,0l-103 103c-27,28 -27,73 0,100l104 103c27,27 71,27 99,0l23 -24c4,-3 7,-8 9,-12 3,-9 2,-19 -4,-27 -1,-2 -2,-3 -3,-4 -12,-12 -30,-11 -41,0l-26 25c-1,2 -3,3 -5,3 -2,1 -4,1 -6,0 -2,-1 -4,-2 -6,-3l-102 -103c-4,-4 -5,-9 -2,-14l0 0c2,-2 104,-104 105,-105 2,-1 4,-3 6,-3 1,0 1,0 2,0 3,0 6,1 8,3l72 72 -3 4 -7 7c-2,1 -2,4 0,6 0,0 1,1 1,1l65 8c6,0 10,-5 10,-10l-6 -67z"/>
   <path class="fil2" style="mask:url(#id0)" d="M124 357c-3,-4 -3,-9 -1,-13 0,0 -34,37 -18,78l22 22 31 -52 -34 -35z"/>
   <path class="fil3" style="mask:url(#id2)" d="M230 463c38,35 80,15 80,15 4,-3 6,-7 8,-11 -6,-3 -47,-33 -47,-33l-24 25c-9,10 -17,4 -17,4z"/>
   <path class="fil4" style="mask:url(#id4)" d="M205 263c0,0 24,-25 24,-25 0,0 7,-5 14,0 0,0 -41,-34 -85,-13l-13 13 60 25z"/>
   <path class="fil5" d="M324 440c1,2 3,3 6,3 0,-1 1,-1 1,-2l9 -9 2 -1 72 72c28,27 72,27 100,0l103 -103c27,-28 27,-73 0,-100l-104 -103c-27,-27 -71,-27 -99,0l-23 24c-4,3 -7,8 -9,12 -2,5 -2,10 -1,14 2,16 16,28 33,25 6,0 12,-3 16,-8l26 -25c1,-2 3,-3 5,-3 2,-1 4,-1 6,0 2,1 4,2 6,3l102 103c4,4 5,9 2,14l0 0c-2,2 -104,104 -105,105 -2,1 -4,2 -6,3 -1,0 -1,0 -2,0 -3,0 -6,-1 -8,-3l-72 -72 3 -4 7 -7c2,-1 2,-4 0,-6 0,-1 -1,-1 -1,-1l-65 -8c-6,0 -10,5 -11,10l7 67z"/>
   <path class="fil6" style="mask:url(#id6)" d="M576 343c3,4 3,9 1,13 0,0 34,-37 18,-78l-22 -22 -31 52 34 35z"/>
   <path class="fil7" style="mask:url(#id8)" d="M470 237c-38,-35 -80,-15 -80,-15 -4,3 -6,7 -8,11 6,3 47,33 47,33l24 -25c9,-10 17,-4 17,-4z"/>
   <path class="fil8" style="mask:url(#id10)" d="M495 437c0,0 -24,25 -24,25 0,0 -7,5 -14,0 0,0 41,34 85,13l13 -13 -60 -25z"/>
  </g>
 </g>
</svg>
