<?xml version="1.0" encoding="UTF-8"?>
<!DOCTYPE svg PUBLIC "-//W3C//DTD SVG 1.1//EN" "http://www.w3.org/Graphics/SVG/1.1/DTD/svg11.dtd">
<!-- Creator: CorelDRAW X7 -->
<svg xmlns="http://www.w3.org/2000/svg" xml:space="preserve" width="472px" height="472px" version="1.1" style="shape-rendering:geometricPrecision; text-rendering:geometricPrecision; image-rendering:optimizeQuality; fill-rule:evenodd; clip-rule:evenodd"
viewBox="0 0 178 178"
 xmlns:xlink="http://www.w3.org/1999/xlink">
 <defs>
  <style type="text/css">
   <![CDATA[
    .fil0 {fill:#250125}
   ]]>
  </style>
 </defs>
 <g id="Layer_x0020_1">
  <metadata id="CorelCorpID_0Corel-Layer"/>
  <path class="fil0" d="M89 178c49,0 89,-40 89,-89 0,-49 -40,-89 -89,-89 -49,0 -89,40 -89,89 0,49 40,89 89,89zm0 -162c19,0 36,7 49,19l-49 31 -49 -31c13,-12 30,-19 49,-19zm51 21c13,13 22,32 22,52 0,7 -1,15 -3,21l-30 -48 11 -7 0 -18zm13 87c-13,23 -37,38 -64,38 -27,0 -51,-15 -64,-38l6 0 33 -53 16 11 1 45 18 0 -1 -46 16 -9 32 52 7 0zm-134 -14c-2,-7 -3,-14 -3,-21 0,-20 8,-38 22,-52l0 18 10 7 -29 48z"/>
 </g>
</svg>
