<?xml version="1.0" encoding="UTF-8"?>
<!DOCTYPE svg PUBLIC "-//W3C//DTD SVG 1.1//EN" "http://www.w3.org/Graphics/SVG/1.1/DTD/svg11.dtd">
<!-- Creator: CorelDRAW X7 -->
<svg xmlns="http://www.w3.org/2000/svg" xml:space="preserve" width="700px" height="700px" version="1.1" style="shape-rendering:geometricPrecision; text-rendering:geometricPrecision; image-rendering:optimizeQuality; fill-rule:evenodd; clip-rule:evenodd"
viewBox="0 0 288 288"
 xmlns:xlink="http://www.w3.org/1999/xlink">
 <defs>
  <style type="text/css">
   <![CDATA[
    .fil0 {fill:url(#id0)}
    .fil3 {fill:url(#id1)}
    .fil2 {fill:url(#id2)}
    .fil1 {fill:url(#id3)}
   ]]>
  </style>
  <linearGradient id="id0" gradientUnits="userSpaceOnUse" x1="2.2767" y1="110.346" x2="285.959" y2="177.889">
   <stop offset="0" style="stop-opacity:1; stop-color:#8F8F8F"/>
   <stop offset="0.14902" style="stop-opacity:1; stop-color:#6E767D"/>
   <stop offset="0.321569" style="stop-opacity:1; stop-color:#E2E2E2"/>
   <stop offset="0.34902" style="stop-opacity:1; stop-color:#F2F2F2"/>
   <stop offset="0.4" style="stop-opacity:1; stop-color:#DDDEDE"/>
   <stop offset="0.6" style="stop-opacity:1; stop-color:#888A8D"/>
   <stop offset="0.780392" style="stop-opacity:1; stop-color:#EAEAEA"/>
   <stop offset="1" style="stop-opacity:1; stop-color:#7E8284"/>
  </linearGradient>
  <linearGradient id="id1" gradientUnits="userSpaceOnUse" x1="144.113" y1="166.984" x2="144.113" y2="241.806">
   <stop offset="0" style="stop-opacity:1; stop-color:#0040FF"/>
   <stop offset="0.0196078" style="stop-opacity:1; stop-color:#0046FF"/>
   <stop offset="0.2" style="stop-opacity:1; stop-color:#0077FF"/>
   <stop offset="0.368627" style="stop-opacity:1; stop-color:#009FFF"/>
   <stop offset="0.541176" style="stop-opacity:1; stop-color:#00BEFF"/>
   <stop offset="0.701961" style="stop-opacity:1; stop-color:#00D4FF"/>
   <stop offset="0.858824" style="stop-opacity:1; stop-color:#00E1FF"/>
   <stop offset="1" style="stop-opacity:1; stop-color:#00E6FF"/>
  </linearGradient>
  <linearGradient id="id2" gradientUnits="userSpaceOnUse" xlink:href="#id1" x1="189.216" y1="46.4296" x2="189.216" y2="210.306">
  </linearGradient>
  <linearGradient id="id3" gradientUnits="userSpaceOnUse" xlink:href="#id1" x1="99.0191" y1="46.4296" x2="99.0191" y2="210.306">
  </linearGradient>
 </defs>
 <g id="Layer_x0020_1">
  <metadata id="CorelCorpID_0Corel-Layer"/>
  <path class="fil0" d="M144 282c38,0 72,-16 97,-41 25,-25 41,-59 41,-97 0,-38 -16,-72 -41,-97 -25,-25 -59,-40 -97,-40 -38,0 -72,15 -97,40 -25,25 -40,59 -40,97 0,38 15,72 40,97 25,25 59,41 97,41zm102 -36c-26,26 -62,42 -102,42 -40,0 -76,-16 -102,-42 -26,-26 -42,-62 -42,-102 0,-40 16,-76 42,-102 26,-26 62,-42 102,-42 40,0 76,16 102,42 26,26 42,62 42,102 0,40 -16,76 -42,102z"/>
  <g id="_553704568">
   <polygon class="fil1" points="60,194 88,210 138,154 138,46 "/>
   <polygon class="fil2" points="229,194 201,210 150,154 150,46 "/>
   <polygon class="fil3" points="99,216 144,242 189,216 144,167 "/>
  </g>
 </g>
</svg>
