<?xml version="1.0" encoding="UTF-8"?>
<!DOCTYPE svg PUBLIC "-//W3C//DTD SVG 1.1//EN" "http://www.w3.org/Graphics/SVG/1.1/DTD/svg11.dtd">
<!-- Creator: CorelDRAW X7 -->
<svg xmlns="http://www.w3.org/2000/svg" xml:space="preserve" width="256px" height="256px" version="1.1" style="shape-rendering:geometricPrecision; text-rendering:geometricPrecision; image-rendering:optimizeQuality; fill-rule:evenodd; clip-rule:evenodd"
viewBox="0 0 117 117"
 xmlns:xlink="http://www.w3.org/1999/xlink">
 <defs>
  <style type="text/css">
   <![CDATA[
    .fil1 {fill:#58B9DB}
    .fil0 {fill:url(#id0)}
   ]]>
  </style>
  <linearGradient id="id0" gradientUnits="userSpaceOnUse" x1="0.922339" y1="44.7043" x2="115.85" y2="72.0678">
   <stop offset="0" style="stop-opacity:1; stop-color:#8F8F8F"/>
   <stop offset="0.14902" style="stop-opacity:1; stop-color:#6E767D"/>
   <stop offset="0.321569" style="stop-opacity:1; stop-color:#E2E2E2"/>
   <stop offset="0.34902" style="stop-opacity:1; stop-color:#F2F2F2"/>
   <stop offset="0.4" style="stop-opacity:1; stop-color:#DDDEDE"/>
   <stop offset="0.6" style="stop-opacity:1; stop-color:#888A8D"/>
   <stop offset="0.780392" style="stop-opacity:1; stop-color:#EAEAEA"/>
   <stop offset="1" style="stop-opacity:1; stop-color:#7E8284"/>
  </linearGradient>
 </defs>
 <g id="Layer_x0020_1">
  <metadata id="CorelCorpID_0Corel-Layer"/>
  <path class="fil0" d="M58 114c16,0 30,-6 40,-16 10,-10 16,-24 16,-40 0,-15 -6,-29 -16,-39 -10,-10 -24,-16 -40,-16 -15,0 -29,6 -39,16 -10,10 -16,24 -16,39 0,16 6,30 16,40 10,10 24,16 39,16zm42 -14c-11,10 -25,17 -42,17 -16,0 -30,-7 -41,-17 -10,-11 -17,-25 -17,-42 0,-16 7,-30 17,-41 11,-10 25,-17 41,-17 17,0 31,7 42,17 10,11 17,25 17,41 0,17 -7,31 -17,42z"/>
  <g id="_514564992">
   <rect class="fil1" transform="matrix(0.238401 -0.238401 0.238402 0.238402 18.6837 58.3858)" width="74.5029" height="74.5029"/>
   <rect class="fil1" transform="matrix(0.238401 -0.238401 0.238402 0.238402 40.6245 80.3267)" width="74.5029" height="74.5029"/>
   <rect class="fil1" transform="matrix(0.238401 -0.238401 0.238402 0.238402 40.6245 36.4449)" width="74.5029" height="74.5029"/>
   <rect class="fil1" transform="matrix(0.238401 -0.238401 0.238402 0.238402 62.5654 58.3858)" width="74.5029" height="74.5029"/>
  </g>
 </g>
</svg>
