<?xml version="1.0" encoding="utf-8"?>
<!-- Generator: Adobe Illustrator 24.1.2, SVG Export Plug-In . SVG Version: 6.00 Build 0)  -->
<svg version="1.1" id="Layer_1" xmlns="http://www.w3.org/2000/svg" xmlns:xlink="http://www.w3.org/1999/xlink" x="0px" y="0px"
	 viewBox="0 0 68.4 68.4" style="enable-background:new 0 0 68.4 68.4;" xml:space="preserve">
<style type="text/css">
	.st0{fill-rule:evenodd;clip-rule:evenodd;fill:url(#SVGID_1_);}
	.st1{fill-rule:evenodd;clip-rule:evenodd;fill:#FBFAFC;}
</style>
<linearGradient id="SVGID_1_" gradientUnits="userSpaceOnUse" x1="0" y1="34.2" x2="68.4003" y2="34.2">
	<stop  offset="0" style="stop-color:#250427"/>
	<stop  offset="1" style="stop-color:#892968"/>
</linearGradient>
<circle class="st0" cx="34.2" cy="34.2" r="34.2"/>
<path class="st1" d="M22.2,38.3C27,36.4,41.7,25,45.6,24c-1,2.4-12.4,12.1-14.7,14c-6.6,5.4-3.3,3.7-5.3,11.1L22.2,38.3L22.2,38.3z
	 M9.3,34.7c1.4,2.1,5.9,2.8,9.1,3.8c2.3,0.7,1.9,0.3,2.6,2.1c1.6,3.9,1.9,10.6,5.6,11.9c2.4-2.3,3.7-3.7,6.1-5.7
	c3.3,1.3,8.9,7.9,12.2,7.1c2.4-1,5.1-17.1,5.7-20.3c3.6-17.4,4.2-17.5-3.9-14.3L13.6,31.8C11,32.8,10.3,32.5,9.3,34.7z"/>
</svg>
