<?xml version="1.0" encoding="utf-8"?>
<!-- Generator: Adobe Illustrator 24.1.2, SVG Export Plug-In . SVG Version: 6.00 Build 0)  -->
<svg version="1.1" id="Layer_1" xmlns="http://www.w3.org/2000/svg" xmlns:xlink="http://www.w3.org/1999/xlink" x="0px" y="0px"
	 viewBox="0 0 68.4 68.4" style="enable-background:new 0 0 68.4 68.4;" xml:space="preserve">
<style type="text/css">
	.st0{fill-rule:evenodd;clip-rule:evenodd;fill:url(#SVGID_1_);}
	.st1{fill-rule:evenodd;clip-rule:evenodd;fill:#FFFFFF;}
</style>
<linearGradient id="SVGID_1_" gradientUnits="userSpaceOnUse" x1="0" y1="34.1999" x2="68.4003" y2="34.1999">
	<stop  offset="0" style="stop-color:#250427"/>
	<stop  offset="1" style="stop-color:#892968"/>
</linearGradient>
<circle class="st0" cx="34.2" cy="34.2" r="34.2"/>
<path class="st1" d="M54.9,23.8c-0.5-1.9-2-3.3-3.8-3.8c-3.4-0.9-16.9-0.9-16.9-0.9s-13.5,0-16.9,0.9c-1.9,0.5-3.3,2-3.8,3.8
	c-0.9,3.4-0.9,10.4-0.9,10.4s0,7,0.9,10.4c0.5,1.9,2,3.3,3.8,3.8c3.4,0.9,16.9,0.9,16.9,0.9s13.5,0,16.9-0.9c1.9-0.5,3.3-2,3.8-3.8
	c0.9-3.4,0.9-10.4,0.9-10.4S55.8,27.2,54.9,23.8L54.9,23.8z M29.9,40.7v-13l11.2,6.5L29.9,40.7z"/>
</svg>
