<?xml version="1.0" encoding="utf-8"?>
<!-- Generator: Adobe Illustrator 24.1.2, SVG Export Plug-In . SVG Version: 6.00 Build 0)  -->
<svg version="1.1" id="Layer_1" xmlns="http://www.w3.org/2000/svg" xmlns:xlink="http://www.w3.org/1999/xlink" x="0px" y="0px"
	 viewBox="0 0 68.4 68.4" style="enable-background:new 0 0 68.4 68.4;" xml:space="preserve">
<style type="text/css">
	.st0{fill-rule:evenodd;clip-rule:evenodd;fill:url(#SVGID_1_);}
	.st1{fill-rule:evenodd;clip-rule:evenodd;fill:#FFFFFF;}
</style>
<linearGradient id="SVGID_1_" gradientUnits="userSpaceOnUse" x1="0" y1="34.2001" x2="68.4003" y2="34.2001">
	<stop  offset="0" style="stop-color:#250427"/>
	<stop  offset="1" style="stop-color:#892968"/>
</linearGradient>
<circle class="st0" cx="34.2" cy="34.2" r="34.2"/>
<path class="st1" d="M57,34.2c0-2.8-2.2-5-5-5c-1.3,0-2.6,0.5-3.5,1.4c-3.4-2.4-8.1-4-13.3-4.2l2.3-10.7l7.4,1.6
	c0.1,1.9,1.6,3.4,3.6,3.4c2,0,3.6-1.6,3.6-3.6c0-2-1.6-3.6-3.6-3.6c-1.4,0-2.6,0.8-3.2,2L37,13.8c-0.2,0-0.5,0-0.7,0.1
	C36.2,14,36,14.2,36,14.5l-2.5,11.9c-5.3,0.2-10.1,1.8-13.5,4.2c-0.9-0.9-2.1-1.4-3.5-1.4c-2.8,0-5,2.2-5,5c0,2,1.2,3.8,2.9,4.5
	c-0.1,0.5-0.1,1-0.1,1.5c0,7.7,8.9,13.9,20,13.9s20-6.2,20-13.9c0-0.5,0-1-0.1-1.5C55.8,38,57,36.2,57,34.2L57,34.2z M22.8,37.8
	c0-2,1.6-3.6,3.6-3.6s3.6,1.6,3.6,3.6c0,2-1.6,3.6-3.6,3.6C24.4,41.3,22.8,39.7,22.8,37.8L22.8,37.8z M42.7,47.2
	c-2.4,2.4-7.1,2.6-8.4,2.6c-1.4,0-6-0.2-8.4-2.6c-0.4-0.4-0.4-0.9,0-1.3c0.4-0.4,0.9-0.4,1.3,0c1.6,1.6,4.8,2.1,7.1,2.1
	c2.3,0,5.6-0.5,7.1-2.1c0.4-0.4,0.9-0.4,1.3,0C43,46.2,43,46.8,42.7,47.2L42.7,47.2z M42,41.3c-2,0-3.6-1.6-3.6-3.6
	c0-2,1.6-3.6,3.6-3.6c2,0,3.6,1.6,3.6,3.6C45.6,39.7,44,41.3,42,41.3z"/>
</svg>
