<?xml version="1.0" encoding="utf-8"?>
<!-- Generator: Adobe Illustrator 24.1.2, SVG Export Plug-In . SVG Version: 6.00 Build 0)  -->
<svg version="1.1" id="Layer_1" xmlns="http://www.w3.org/2000/svg" xmlns:xlink="http://www.w3.org/1999/xlink" x="0px" y="0px"
	 viewBox="0 0 68.4 68.4" style="enable-background:new 0 0 68.4 68.4;" xml:space="preserve">
<style type="text/css">
	.st0{fill-rule:evenodd;clip-rule:evenodd;fill:url(#SVGID_1_);}
	.st1{fill-rule:evenodd;clip-rule:evenodd;fill:#FFFFFF;}
</style>
<linearGradient id="SVGID_1_" gradientUnits="userSpaceOnUse" x1="0" y1="34.2002" x2="68.4002" y2="34.2002">
	<stop  offset="0" style="stop-color:#250427"/>
	<stop  offset="1" style="stop-color:#892968"/>
</linearGradient>
<circle class="st0" cx="34.2" cy="34.2" r="34.2"/>
<path class="st1" d="M49.2,20.3c-2.8-1.3-5.8-2.3-8.9-2.8c-0.4,0.7-0.8,1.6-1.1,2.4c-3.3-0.5-6.6-0.5-9.9,0
	c-0.3-0.7-0.8-1.7-1.2-2.4C25,18,22,19,19.2,20.3c-4.8,7.2-6.6,14.2-6.6,21.2c0,1.3,0.1,2.6,0.2,3.8c3.7,2.8,7.4,4.5,10.9,5.6
	c0.9-1.2,1.7-2.5,2.3-3.9c-1.3-0.5-2.5-1.1-3.7-1.8c0.3-0.2,0.6-0.5,0.9-0.7c7.1,3.3,14.8,3.3,21.9,0c0.3,0.2,0.6,0.5,0.9,0.7
	c-1.2,0.7-2.4,1.3-3.7,1.8c0.7,1.4,1.5,2.6,2.3,3.9c3.6-1.1,7.2-2.8,10.9-5.6C56.5,35.8,54.1,27.6,49.2,20.3L49.2,20.3z M27,40.3
	L27,40.3c-2.1,0-3.9-2-3.9-4.4c0-2.4,1.7-4.4,3.9-4.4c2.2,0,3.9,2,3.9,4.4C30.9,38.3,29.2,40.3,27,40.3L27,40.3z M41.4,40.3
	L41.4,40.3c-2.1,0-3.9-2-3.9-4.4c0-2.4,1.7-4.4,3.9-4.4c2.2,0,3.9,2,3.9,4.4C45.3,38.3,43.5,40.3,41.4,40.3z"/>
</svg>
