<?xml version="1.0" encoding="utf-8"?>
<!-- Generator: Adobe Illustrator 24.1.2, SVG Export Plug-In . SVG Version: 6.00 Build 0)  -->
<svg version="1.1" id="Layer_1" xmlns="http://www.w3.org/2000/svg" xmlns:xlink="http://www.w3.org/1999/xlink" x="0px" y="0px"
	 viewBox="0 0 68.4 68.4" style="enable-background:new 0 0 68.4 68.4;" xml:space="preserve">
<style type="text/css">
	.st0{fill-rule:evenodd;clip-rule:evenodd;fill:url(#SVGID_1_);}
	.st1{fill-rule:evenodd;clip-rule:evenodd;fill:#FFFFFF;}
</style>
<linearGradient id="SVGID_1_" gradientUnits="userSpaceOnUse" x1="0" y1="34.2001" x2="68.4002" y2="34.2001">
	<stop  offset="0" style="stop-color:#250427"/>
	<stop  offset="1" style="stop-color:#892968"/>
</linearGradient>
<circle class="st0" cx="34.2" cy="34.2" r="34.2"/>
<g>
	<g>
		<path class="st1" d="M23.6,20.4c7.6,0,13.7,6.2,13.7,13.8S31.2,48,23.6,48C16,48,9.9,41.8,9.9,34.2S16,20.4,23.6,20.4L23.6,20.4z
			 M45.5,21.2c3.8,0,6.9,5.8,6.9,13h0c0,7.2-3.1,13-6.9,13s-6.9-5.8-6.9-13C38.6,27,41.7,21.2,45.5,21.2L45.5,21.2z M56.1,22.6
			c1.3,0,2.4,5.2,2.4,11.6c0,6.4-1.1,11.6-2.4,11.6c-1.3,0-2.4-5.2-2.4-11.6C53.7,27.8,54.8,22.6,56.1,22.6z"/>
	</g>
</g>
</svg>
