<?xml version="1.0" encoding="utf-8"?>
<!-- Generator: Adobe Illustrator 24.1.2, SVG Export Plug-In . SVG Version: 6.00 Build 0)  -->
<svg version="1.1" id="Layer_1" xmlns="http://www.w3.org/2000/svg" xmlns:xlink="http://www.w3.org/1999/xlink" x="0px" y="0px"
	 viewBox="0 0 68.4 73.1" style="enable-background:new 0 0 68.4 73.1;" xml:space="preserve">
<style type="text/css">
	.st0{fill-rule:evenodd;clip-rule:evenodd;fill:url(#SVGID_1_);}
	.st1{fill-rule:evenodd;clip-rule:evenodd;fill:#FFFFFF;}
</style>
<linearGradient id="SVGID_1_" gradientUnits="userSpaceOnUse" x1="0" y1="38.8633" x2="68.4003" y2="38.8633">
	<stop  offset="0" style="stop-color:#250427"/>
	<stop  offset="1" style="stop-color:#892968"/>
</linearGradient>
<circle class="st0" cx="34.2" cy="38.9" r="34.2"/>
<path class="st1" d="M51.7,26.4c1.2-1.3,2.6-1.7,3.5-4.8c-2.2,0.8-3.1,1.5-5.8,2c-0.9-0.9-0.6-0.9-2-1.7c-0.8-0.5-1.7-0.8-2.8-1
	c-2.2-0.4-4.5-0.1-6.2,0.8c-3.3,1.8-5.2,5.2-4.6,10.2c-4.4-0.4-7.8-1.4-11.2-3.2c-5-2.7-6.3-5.5-7.9-6.2c-1.4,5.7-1.4,8.7,2.8,12.2
	l-3.8-1.1c0.3,6,3.4,7.2,7.1,9.2l-3.8,0c1,3.7,3.9,5.7,8.3,6.4c-3.8,3.3-7.2,3.7-13.1,3.8c5.8,4.5,16.5,5.2,24.1,2.1
	c4.5-1.8,5.9-3.5,8.2-5.6l1.8-2c5.1-7.1,4.8-9.5,5.8-16.9c0.3-2,3.1-2.6,4.3-5.4L51.7,26.4z"/>
</svg>
