<?xml version="1.0" encoding="utf-8"?>
<!-- Generator: Adobe Illustrator 24.1.2, SVG Export Plug-In . SVG Version: 6.00 Build 0)  -->
<svg version="1.1" id="Layer_1" xmlns="http://www.w3.org/2000/svg" xmlns:xlink="http://www.w3.org/1999/xlink" x="0px" y="0px"
	 viewBox="0 0 68.4 68.4" style="enable-background:new 0 0 68.4 68.4;" xml:space="preserve">
<style type="text/css">
	.st0{fill-rule:evenodd;clip-rule:evenodd;fill:url(#SVGID_1_);}
	.st1{fill-rule:evenodd;clip-rule:evenodd;fill:#FFFFFF;}
</style>
<linearGradient id="SVGID_1_" gradientUnits="userSpaceOnUse" x1="0" y1="34.2001" x2="68.4003" y2="34.2001">
	<stop  offset="0" style="stop-color:#250427"/>
	<stop  offset="1" style="stop-color:#892968"/>
</linearGradient>
<circle class="st0" cx="34.2" cy="34.2" r="34.2"/>
<path class="st1" d="M50.2,52.2c1.1,0,2-0.9,2-2v-32c0-1.1-0.9-2-2-2h-32c-1.1,0-2,0.9-2,2v32c0,1.1,0.9,2,2,2h17.3V38.3h-4.7v-5.4
	h4.7v-4c0-4.7,2.8-7.2,7-7.2c2,0,3.7,0.1,4.2,0.2v4.9h-2.9c-2.3,0-2.7,1.1-2.7,2.6v3.5h5.4l-0.7,5.4H41v13.9H50.2z"/>
</svg>
