<?xml version="1.0" encoding="utf-8"?>
<!-- Generator: Adobe Illustrator 24.1.2, SVG Export Plug-In . SVG Version: 6.00 Build 0)  -->
<svg version="1.1" id="Layer_1" xmlns="http://www.w3.org/2000/svg" xmlns:xlink="http://www.w3.org/1999/xlink" x="0px" y="0px"
	 viewBox="0 0 68.4 68.4" style="enable-background:new 0 0 68.4 68.4;" xml:space="preserve">
<style type="text/css">
	.st0{fill-rule:evenodd;clip-rule:evenodd;fill:url(#SVGID_1_);}
	.st1{fill-rule:evenodd;clip-rule:evenodd;fill:#FFFFFF;}
</style>
<linearGradient id="SVGID_1_" gradientUnits="userSpaceOnUse" x1="0" y1="34.2001" x2="68.4003" y2="34.2001">
	<stop  offset="0" style="stop-color:#250427"/>
	<stop  offset="1" style="stop-color:#892968"/>
</linearGradient>
<circle class="st0" cx="34.2" cy="34.2" r="34.2"/>
<g>
	<path class="st1" d="M24,23.7l5.7,0l0-4.4l2.7,0l0,4.5l1.9,0c0.1-1.5-0.3-3.4,0.2-4.6c4.6-0.1,1.9,0.6,2.8,4.7
		c3.9,0.5,7.8,2.2,6.6,6.6c-0.2,0.6-0.5,1-0.8,1.5c-0.6,0.8-0.9,0.5-1.2,1.3c0.4,0.5,0.3,0.2,0.9,0.5c1,0.7,1.7,1.2,2.3,2.4
		c0,0,0.1,0.2,0.1,0.2c0.5,1.2,0.2,3.4-0.2,4.6c-0.4,1.1-1.7,2.5-2.9,2.9c-2.9,1.1-4.5,0.5-4.9,1c-0.4,0.6-0.1,3.4-0.2,4.4l-2.5,0
		l-0.1-4.4c-0.5-0.2-1.9-0.5-2.1,0.3l0,1.7c0,0.8,0,1.6,0,2.4l-2.6,0c-0.4-3.1,1.1-4.7-1.4-4.6l-3.5,0c-0.1,0-0.1,0-0.2,0
		c-0.1,0-0.1,0-0.1,0c0,0-0.1,0-0.1,0L24.3,44c0,0,0-0.1,0-0.1c-0.3-3,0.6-2.1,2.2-2.3c1.7-0.2,1.1-3,1.1-5.8
		c0-11.3,0.9-8.8-3.5-9.3L24,23.7L24,23.7z M34,52.2c3.3,0,6-0.3,8.4-2c0.1-0.1,0.2-0.1,0.3-0.2c0.7-0.4,0.5,0,2.3-1.2
		c5.8-4.2,8.7-11.2,6.9-18.9c-0.4-1.5-0.6-2.1-1.1-3.4c-0.5-1.3-0.9-1.8-1.6-2.9c-0.4-0.6-0.6-0.7-1-1.3l-0.6-0.8
		c-6.6-7.1-18.4-7.5-25.8-0.3C9.9,32.5,18.2,52.2,34,52.2z"/>
	<path class="st1" d="M43.4,13.3c3.1,0.8,6.8,4.4,8.9,6.8c0.3,0.4,0.4,0.6,0.6,0.9c5.5,7.7,5.7,18.4,0.3,26.2
		c-4.2,6-11.1,9.9-18.7,9.9c-5,0-9.5-1.2-13.3-4c-1.8-1.3-3.6-3-5.1-4.8c-3.1-3.8-4.9-8.6-4.9-13.9c-0.1-6.3,2.4-11.9,6.6-16.3
		c3-3,6.8-5.3,10.9-6.3c3.4-0.8,6.9-0.9,10.2-0.2c1.7,0.4,2.9,1,4.5,1.4C43.5,13.3,43.5,13.3,43.4,13.3L43.4,13.3z M34,59.4
		c5.1,0,10.8-1.7,14.8-4.6c6.9-5.1,10.7-12.1,10.6-21c-0.1-6.7-2.9-13.2-7.5-17.6c-1.8-1.7-4.8-4-7.5-5.1c-1.5-0.6-3.2-1.3-4.7-1.5
		c-22.3-4.1-36.4,17.4-28.5,35c1.6,3.4,3.9,6.7,6.7,9C22.1,57,28.4,59.4,34,59.4z"/>
	<path class="st1" d="M32.4,37.2c0,4.9-0.9,4.3,3.6,4.2c1.9-0.1,2.7-0.3,3.7-1.5c0.4-0.5,0.5-1.1,0.5-1.9c0-0.9-0.3-1.2-0.9-1.7
		c-1.2-1.1-3.7-0.9-5.5-0.9C32,35.2,32.4,35.3,32.4,37.2z"/>
	<path class="st1" d="M32.4,28.9l0,3.4c1.2,0.2,3.9,0.3,4.9-0.2c1-0.5,2-1.9,1.4-3.6c-0.4-1.2-1.9-1.6-3.4-1.8
		C32.1,26.3,32.4,26.4,32.4,28.9z"/>
</g>
</svg>
