<?xml version="1.0" encoding="utf-8"?>
<!-- Generator: Adobe Illustrator 24.1.2, SVG Export Plug-In . SVG Version: 6.00 Build 0)  -->
<svg version="1.1" id="Layer_1" xmlns="http://www.w3.org/2000/svg" xmlns:xlink="http://www.w3.org/1999/xlink" x="0px" y="0px"
	 viewBox="0 0 68.4 68.4" style="enable-background:new 0 0 68.4 68.4;" xml:space="preserve">
<style type="text/css">
	.st0{fill-rule:evenodd;clip-rule:evenodd;fill:url(#SVGID_1_);}
	.st1{fill-rule:evenodd;clip-rule:evenodd;fill:#FDFDFD;}
</style>
<linearGradient id="SVGID_1_" gradientUnits="userSpaceOnUse" x1="0" y1="34.2001" x2="68.4003" y2="34.2001">
	<stop  offset="0" style="stop-color:#250427"/>
	<stop  offset="1" style="stop-color:#892968"/>
</linearGradient>
<circle class="st0" cx="34.2" cy="34.2" r="34.2"/>
<path class="st1" d="M34.2,11.7c-11.9,0-21.6,9.7-21.6,21.6c0,9.5,6.2,17.6,14.8,20.5c1.1,0.2,1.5-0.5,1.5-1c0-0.5,0-1.9,0-3.7
	c-6,1.3-7.3-2.9-7.3-2.9c-1-2.5-2.4-3.2-2.4-3.2c-2-1.3,0.1-1.3,0.1-1.3c2.2,0.2,3.3,2.2,3.3,2.2c1.9,3.3,5.1,2.3,6.3,1.8
	c0.2-1.4,0.8-2.3,1.4-2.9c-4.8-0.5-9.8-2.4-9.8-10.7c0-2.4,0.8-4.3,2.2-5.8c-0.2-0.5-1-2.7,0.2-5.7c0,0,1.8-0.6,5.9,2.2
	c1.7-0.5,3.6-0.7,5.4-0.7c1.8,0,3.7,0.2,5.4,0.7c4.1-2.8,5.9-2.2,5.9-2.2c1.2,3,0.4,5.2,0.2,5.7c1.4,1.5,2.2,3.4,2.2,5.8
	c0,8.3-5.1,10.1-9.9,10.7c0.8,0.7,1.5,2,1.5,4c0,2.9,0,5.2,0,5.9c0,0.6,0.4,1.2,1.5,1c8.6-2.9,14.8-11,14.8-20.5
	C55.8,21.4,46.1,11.7,34.2,11.7z"/>
</svg>
