<?xml version="1.0" encoding="utf-8"?>
<!-- Generator: Adobe Illustrator 24.1.2, SVG Export Plug-In . SVG Version: 6.00 Build 0)  -->
<svg version="1.1" id="Layer_1" xmlns="http://www.w3.org/2000/svg" xmlns:xlink="http://www.w3.org/1999/xlink" x="0px" y="0px"
	 viewBox="0 0 68.4 68.4" style="enable-background:new 0 0 68.4 68.4;" xml:space="preserve">
<style type="text/css">
	.st0{fill-rule:evenodd;clip-rule:evenodd;fill:url(#SVGID_1_);}
	.st1{fill-rule:evenodd;clip-rule:evenodd;fill:#FFFFFF;}
</style>
<linearGradient id="SVGID_1_" gradientUnits="userSpaceOnUse" x1="0" y1="34.2001" x2="68.4003" y2="34.2001">
	<stop  offset="0" style="stop-color:#250427"/>
	<stop  offset="1" style="stop-color:#892968"/>
</linearGradient>
<circle class="st0" cx="34.2" cy="34.2" r="34.2"/>
<path class="st1" d="M24.5,50.9h19.3c1.9,0,3.7-0.8,5-2.1c1.3-1.3,2.1-3,2.1-5V24.5c0-1.9-0.8-3.7-2.1-5l0,0c-1.3-1.3-3-2.1-5-2.1
	H24.5c-1.9,0-3.7,0.8-5,2.1l0,0c-1.3,1.3-2.1,3-2.1,5v19.3c0,1.9,0.8,3.7,2.1,5C20.8,50.1,22.6,50.9,24.5,50.9L24.5,50.9z
	 M43.9,54.9H24.5c-3,0-5.8-1.2-7.8-3.2c-2-2-3.2-4.8-3.2-7.8V24.5c0-3,1.2-5.8,3.2-7.8v0c2-2,4.8-3.2,7.8-3.2h19.3
	c3,0,5.8,1.2,7.8,3.2v0c2,2,3.2,4.8,3.2,7.8v19.3c0,3-1.2,5.8-3.2,7.8C49.7,53.7,46.9,54.9,43.9,54.9z"/>
<path class="st1" d="M34.2,41.6c2,0,3.9-0.8,5.2-2.1l0,0c1.3-1.3,2.1-3.2,2.1-5.2c0-2-0.8-3.9-2.1-5.2l0,0c-1.3-1.3-3.2-2.1-5.2-2.1
	c-2,0-3.9,0.8-5.2,2.1l0,0c-1.3,1.3-2.1,3.2-2.1,5.2c0,2,0.8,3.9,2.1,5.2l0,0C30.3,40.7,32.2,41.6,34.2,41.6L34.2,41.6z M42.2,42.2
	c-2.1,2.1-4.9,3.3-8,3.3c-3.1,0-6-1.3-8-3.3l0,0c-2.1-2.1-3.3-4.9-3.3-8c0-3.1,1.3-6,3.3-8l0,0c2.1-2.1,4.9-3.3,8-3.3
	c3.1,0,6,1.3,8,3.3l0,0c2.1,2.1,3.3,4.9,3.3,8C45.6,37.3,44.3,40.2,42.2,42.2L42.2,42.2z"/>
<path class="st1" d="M45.5,25.3c1.3,0,2.3-1,2.3-2.3s-1-2.3-2.3-2.3c-1.3,0-2.3,1-2.3,2.3S44.2,25.3,45.5,25.3z"/>
</svg>
