<?xml version="1.0" encoding="utf-8"?>
<!-- Generator: Adobe Illustrator 24.1.2, SVG Export Plug-In . SVG Version: 6.00 Build 0)  -->
<svg version="1.1" id="Layer_1" xmlns="http://www.w3.org/2000/svg" xmlns:xlink="http://www.w3.org/1999/xlink" x="0px" y="0px"
	 viewBox="0 0 68.4 68.4" style="enable-background:new 0 0 68.4 68.4;" xml:space="preserve">
<style type="text/css">
	.st0{fill-rule:evenodd;clip-rule:evenodd;fill:url(#SVGID_1_);}
	.st1{fill-rule:evenodd;clip-rule:evenodd;fill:#FFFFFF;}
</style>
<linearGradient id="SVGID_1_" gradientUnits="userSpaceOnUse" x1="0" y1="34.2001" x2="68.4003" y2="34.2001">
	<stop  offset="0" style="stop-color:#250427"/>
	<stop  offset="1" style="stop-color:#892968"/>
</linearGradient>
<circle class="st0" cx="34.2" cy="34.2" r="34.2"/>
<g>
	<path class="st1" d="M44.7,36.2l0.1,0.4c0,0.1,0,0.3,0,0.4c0.1,4,0,8.5,0,12.5l7.4,0l0-14.2c0.1-0.8-0.2-2.7-0.3-3.5
		c-0.2-1.1-0.5-2-0.9-2.9c-0.2-0.4-0.5-0.8-0.7-1.2c-0.9-1.2-2-1.9-3.4-2.4c-3.4-1.1-7.7-0.5-10,2.3c-0.3,0.4-0.6,1-0.8,1l0-3.3
		c-0.4-0.1-6.8-0.1-7.1,0v24l7.4,0c0.1-0.4,0-7.2,0-7.8c0-2.1-0.2-5.6,0.4-7.4c0.8-2.3,2.6-3.1,4.9-2.8c1.2,0.2,1.9,0.8,2.4,1.5
		C44.4,33.7,44.8,35.3,44.7,36.2z"/>
	<polygon class="st1" points="24.2,25.6 16.8,25.5 16.8,49.5 24.2,49.5 	"/>
	<path class="st1" d="M19.9,13.6c-4.7,0.7-5,7.1-0.7,8.4c0.6,0.2,1.3,0.3,1.9,0.2c2.2-0.4,4-2.3,3.7-4.9
		C24.5,15.2,22.5,13.2,19.9,13.6z"/>
</g>
</svg>
