<?xml version="1.0" encoding="UTF-8"?>
<!DOCTYPE svg PUBLIC "-//W3C//DTD SVG 1.1//EN" "http://www.w3.org/Graphics/SVG/1.1/DTD/svg11.dtd">
<!-- Creator: CorelDRAW X7 -->
<svg xmlns="http://www.w3.org/2000/svg" xml:space="preserve" width="500px" height="500px" version="1.1" style="shape-rendering:geometricPrecision; text-rendering:geometricPrecision; image-rendering:optimizeQuality; fill-rule:evenodd; clip-rule:evenodd"
viewBox="0 0 138 138"
 xmlns:xlink="http://www.w3.org/1999/xlink">
 <defs>
  <style type="text/css">
   <![CDATA[
    .str0 {stroke:#CCCCCC;stroke-width:2.17514;stroke-linecap:round;stroke-linejoin:round}
    .fil2 {fill:none}
    .fil1 {fill:url(#id0)}
    .fil0 {fill:url(#id1)}
   ]]>
  </style>
  <linearGradient id="id0" gradientUnits="userSpaceOnUse" x1="11.2237" y1="69.0611" x2="126.899" y2="69.0611">
   <stop offset="0" style="stop-opacity:1; stop-color:#89346B"/>
   <stop offset="1" style="stop-opacity:1; stop-color:#280029"/>
  </linearGradient>
  <linearGradient id="id1" gradientUnits="userSpaceOnUse" x1="-0" y1="69.0611" x2="138.122" y2="69.0611">
   <stop offset="0" style="stop-opacity:1; stop-color:#250125"/>
   <stop offset="1" style="stop-opacity:1; stop-color:#8A346C"/>
  </linearGradient>
 </defs>
 <g id="Layer_x0020_1">
  <metadata id="CorelCorpID_0Corel-Layer"/>
  <circle class="fil0" cx="69" cy="69" r="69"/>
  <path class="fil1" d="M69 11c32,0 58,26 58,58 0,32 -26,58 -58,58 -32,0 -58,-26 -58,-58 0,-32 26,-58 58,-58z"/>
  <path class="fil2 str0" d="M75 32c-1,-3 1,-5 4,-4 1,0 2,1 3,2 1,4 3,10 5,13 1,3 0,3 1,3 12,2 14,11 7,19 0,3 6,16 5,18 0,3 -5,4 -6,1l-6 -2c-3,-1 -6,-2 -9,-2 -4,-1 -8,-1 -13,0 4,3 7,7 0,12 0,1 3,4 3,5 4,6 3,6 -3,8 -2,1 -4,2 -5,1 -1,-1 -3,-4 -3,-5 -3,-5 -6,-11 -9,-16 -4,1 -5,2 -8,-2 -3,1 -6,0 -7,-3l-2 -7c-2,-3 0,-5 3,-6 0,-3 1,-4 3,-6 4,-3 21,-5 30,-16 2,-3 4,-8 6,-11l1 -2z"/>
  <path class="fil2 str0" d="M75 40c0,6 2,13 5,20 2,7 5,13 9,18"/>
 </g>
</svg>
