<?xml version="1.0" encoding="UTF-8" standalone="no"?>
<!DOCTYPE svg PUBLIC "-//W3C//DTD SVG 1.1//EN" "http://www.w3.org/Graphics/SVG/1.1/DTD/svg11.dtd">
<svg width="390" height="390" viewBox="0 0 390 390" version="1.1" xmlns="http://www.w3.org/2000/svg" xmlns:xlink="http://www.w3.org/1999/xlink" xml:space="preserve" xmlns:serif="http://www.serif.com/" style="fill-rule:evenodd;clip-rule:evenodd;stroke-linejoin:round;stroke-miterlimit:2;">
    <g transform="matrix(1,0,0,1,-485.315,-7024.5)">
        <g transform="matrix(8.33333,0,0,8.33333,0,0)">
            <g transform="matrix(1,0,0,1,0,652.68)">
                <path d="M81.638,190.26C94.561,190.26 105.038,200.737 105.038,213.66C105.038,226.583 94.561,237.06 81.638,237.06C68.714,237.06 58.238,226.583 58.238,213.66C58.238,200.737 68.714,190.26 81.638,190.26ZM81.638,193.603C86.844,193.603 91.586,195.587 95.151,198.839L81.572,207.281L68.071,198.888C71.642,195.607 76.406,193.603 81.638,193.603ZM95.64,199.302C99.375,202.944 101.695,208.031 101.695,213.66C101.695,215.703 101.389,217.675 100.821,219.532L92.683,206.238L95.66,204.4L95.64,199.302ZM99.181,223.387C95.758,229.548 89.185,233.717 81.638,233.717C74.09,233.717 67.517,229.548 64.095,223.387L65.766,223.387L74.62,208.809L79.142,211.6L79.336,224.219L84.276,224.221L84.082,211.551L88.48,208.835L97.387,223.387L99.181,223.387ZM62.434,219.462C61.88,217.625 61.581,215.678 61.581,213.66C61.581,208.097 63.846,203.064 67.503,199.431L67.486,204.4L70.405,206.231L62.434,219.462Z" style="fill:white;"/>
            </g>
        </g>
    </g>
</svg>
