<?xml version="1.0" encoding="UTF-8"?>
<!DOCTYPE svg PUBLIC "-//W3C//DTD SVG 1.1//EN" "http://www.w3.org/Graphics/SVG/1.1/DTD/svg11.dtd">
<!-- Creator: CorelDRAW X7 -->
<svg xmlns="http://www.w3.org/2000/svg" xml:space="preserve" width="540px" height="488px" version="1.1" style="shape-rendering:geometricPrecision; text-rendering:geometricPrecision; image-rendering:optimizeQuality; fill-rule:evenodd; clip-rule:evenodd"
viewBox="0 0 270 244"
 xmlns:xlink="http://www.w3.org/1999/xlink">
 <defs>
  <style type="text/css">
   <![CDATA[
    .fil0 {fill:white}
   ]]>
  </style>
 </defs>
 <g id="Layer_x0020_1">
  <metadata id="CorelCorpID_0Corel-Layer"/>
  <g id="_723625840">
   <path class="fil0" d="M37 155c6,18 18,34 32,46 18,15 41,24 66,24 25,0 48,-9 66,-24 15,-12 26,-29 32,-48l20 0c-7,25 -21,46 -40,62 -21,18 -48,29 -78,29 -29,0 -57,-11 -78,-28 -19,-16 -33,-37 -39,-61l-18 0 33 -45c-1,4 -1,8 -1,12 0,11 2,22 5,33l0 0z"/>
   <path class="fil0" d="M213 28c19,16 33,37 39,61l18 0 -33 45c1,-4 1,-8 1,-12 0,-12 -2,-23 -5,-33 -6,-18 -17,-34 -32,-46 -18,-15 -41,-24 -66,-24 -25,0 -48,9 -66,24 -15,12 -26,29 -32,48l-20 0c7,-25 21,-47 40,-63 21,-18 49,-28 78,-28 30,0 57,11 78,28z"/>
   <path class="fil0" d="M135 215c51,0 93,-42 93,-93 0,-51 -42,-93 -93,-93 -51,0 -93,42 -93,93 0,51 42,93 93,93zm-48 -149l48 29 48 -30c-13,-11 -30,-17 -48,-17 -18,0 -35,6 -48,18zm102 5l0 13 -12 7 30 49c2,-6 2,-12 2,-18 0,-20 -8,-38 -20,-51zm11 86l-5 0 -34 -56 -17 11 0 48 -18 0 0 -48 -18 -11 -34 56 -4 0c12,23 37,39 65,39 28,0 53,-16 65,-39zm-137 -17l29 -49 -11 -7 0 -13c-13,13 -20,31 -20,51 0,6 0,12 2,18z"/>
  </g>
 </g>
</svg>
