<?xml version="1.0" encoding="UTF-8"?>
<!DOCTYPE svg PUBLIC "-//W3C//DTD SVG 1.1//EN" "http://www.w3.org/Graphics/SVG/1.1/DTD/svg11.dtd">
<!-- Creator: CorelDRAW X7 -->
<svg xmlns="http://www.w3.org/2000/svg" xml:space="preserve" width="866px" height="562px" version="1.1" style="shape-rendering:geometricPrecision; text-rendering:geometricPrecision; image-rendering:optimizeQuality; fill-rule:evenodd; clip-rule:evenodd"
viewBox="0 0 19053 12355"
 xmlns:xlink="http://www.w3.org/1999/xlink">
 <defs>
  <style type="text/css">
   <![CDATA[
    .fil1 {fill:white}
    .fil0 {fill:white;fill-rule:nonzero}
   ]]>
  </style>
 </defs>
 <g id="Layer_x0020_1">
  <metadata id="CorelCorpID_0Corel-Layer"/>
  <g id="_429827544">
   <path class="fil0" d="M10331 8557l2 -1c2411,-926 4477,-2047 5868,-3111 1224,-936 1892,-1747 1714,-2210 -159,-414 -1007,-582 -2284,-524 -216,-381 -466,-738 -746,-1069 63,-6 125,-11 187,-16 2053,-166 3512,223 3890,1208 378,984 -445,2251 -2082,3503 -1464,1119 -3617,2291 -6114,3254l-17 9 -38 12c-2500,958 -4889,1530 -6730,1679 -2053,166 -3512,-223 -3890,-1208 -378,-984 445,-2251 2082,-3503 108,-82 220,-165 335,-248 10,435 60,868 149,1292 -1099,871 -1688,1620 -1519,2058 178,463 1217,618 2754,493 1743,-141 4027,-692 6439,-1618z"/>
   <path class="fil1" d="M9526 12355c2637,0 4888,-1652 5774,-3978 -243,140 -494,279 -753,417 -346,184 -706,366 -1077,544 -926,1155 -2348,1894 -3944,1894 -264,0 -523,-20 -776,-59 -471,142 -934,269 -1386,382 -206,51 -409,100 -609,145 833,419 1775,655 2771,655zm6039 -7484c-599,-2784 -3075,-4871 -6039,-4871 -3411,0 -6177,2766 -6177,6178 0,1139 309,2206 847,3123 382,-43 790,-104 1218,-184 -32,-45 -63,-91 -94,-136 664,-1157 1644,-2718 2438,-4026l1139 704 39 2512c363,-124 728,-256 1096,-397l16 -10 2 -1 1 3 123 -47 -32 -2073 1108 -684 1106 1805c290,-140 572,-284 845,-428 89,-48 178,-95 265,-143l-1156 -1889 750 -463 -5 -1285c804,784 1347,1834 1489,3007 371,-232 713,-465 1021,-695zm-6039 -3748c1312,0 2507,500 3406,1320l-3422 2127 -3402 -2115c900,-827 2100,-1332 3418,-1332zm-4839 6517c-140,-463 -215,-954 -215,-1462 0,-1402 571,-2671 1492,-3586l-4 1252 736 462 -2009 3334z"/>
  </g>
 </g>
</svg>
