<?xml version="1.0" encoding="UTF-8"?>
<!DOCTYPE svg PUBLIC "-//W3C//DTD SVG 1.1//EN" "http://www.w3.org/Graphics/SVG/1.1/DTD/svg11.dtd">
<!-- Creator: CorelDRAW X7 -->
<svg xmlns="http://www.w3.org/2000/svg" xml:space="preserve" width="827px" height="536px" version="1.1" style="shape-rendering:geometricPrecision; text-rendering:geometricPrecision; image-rendering:optimizeQuality; fill-rule:evenodd; clip-rule:evenodd"
viewBox="0 0 414 268"
 xmlns:xlink="http://www.w3.org/1999/xlink">
 <defs>
  <style type="text/css">
   <![CDATA[
    .fil1 {fill:#250125}
    .fil0 {fill:#250125;fill-rule:nonzero}
   ]]>
  </style>
 </defs>
 <g id="Layer_x0020_1">
  <metadata id="CorelCorpID_0Corel-Layer"/>
  <g id="_359366328">
   <path class="fil0" d="M224 186l0 0c53,-20 97,-45 128,-68 26,-20 41,-38 37,-48 -4,-9 -22,-12 -50,-11 -4,-8 -10,-16 -16,-23 1,0 3,-1 4,-1 45,-3 76,5 85,26 8,22 -10,49 -46,77 -31,24 -78,49 -132,70l-1 0 -1 1c-54,20 -106,33 -146,36 -44,4 -76,-5 -84,-26 -8,-22 10,-49 45,-76 3,-2 5,-4 7,-6 1,10 2,19 4,28 -24,19 -37,36 -33,45 4,10 26,14 59,11 38,-3 88,-15 140,-35z"/>
   <path class="fil1" d="M207 268c57,0 106,-36 125,-86 -5,3 -11,6 -16,9 -8,4 -16,8 -24,12 -20,25 -51,41 -85,41 -6,0 -12,-1 -17,-2 -10,4 -20,6 -30,9 -5,1 -9,2 -13,3 18,9 38,14 60,14zm131 -162c-13,-61 -67,-106 -131,-106 -74,0 -134,60 -134,134 0,25 6,48 18,68 8,-1 17,-2 27,-4 -1,-1 -2,-2 -3,-3 15,-25 36,-59 53,-87l25 15 1 54c8,-2 16,-5 24,-8l0 -1 0 0 0 1 3 -1 -1 -45 24 -15 24 39c6,-3 13,-6 18,-9 2,-1 4,-2 6,-4l-25 -41 16 -10 0 -27c18,17 30,39 33,65 8,-5 15,-10 22,-15zm-131 -82c28,0 54,11 74,29l-75 46 -73 -46c19,-18 45,-29 74,-29zm-105 142c-3,-10 -5,-21 -5,-32 0,-30 12,-58 32,-78l0 27 16 10 -43 73z"/>
  </g>
 </g>
</svg>
