<?xml version="1.0" encoding="UTF-8"?>
<!DOCTYPE svg PUBLIC "-//W3C//DTD SVG 1.1//EN" "http://www.w3.org/Graphics/SVG/1.1/DTD/svg11.dtd">
<!-- Creator: CorelDRAW X7 -->
<svg xmlns="http://www.w3.org/2000/svg" xml:space="preserve" width="512px" height="512px" version="1.1" style="shape-rendering:geometricPrecision; text-rendering:geometricPrecision; image-rendering:optimizeQuality; fill-rule:evenodd; clip-rule:evenodd"
viewBox="0 0 335 335"
 xmlns:xlink="http://www.w3.org/1999/xlink">
 <defs>
  <style type="text/css">
   <![CDATA[
    .fil0 {fill:#41B062}
   ]]>
  </style>
 </defs>
 <g id="Layer_x0020_1">
  <metadata id="CorelCorpID_0Corel-Layer"/>
  <path class="fil0" d="M168 335c92,0 167,-75 167,-167 0,-93 -75,-168 -167,-168 -93,0 -168,75 -168,168 0,92 75,167 168,167zm-8 -281c63,0 114,51 114,114l0 0c0,62 -51,113 -114,113l0 -28c24,0 45,-10 60,-25 16,-16 25,-37 25,-60l0 0c0,-24 -9,-45 -25,-60 -15,-16 -36,-25 -60,-25l0 -29zm-51 0l29 0 0 227 -29 0 0 -170 -32 0 32 -57z"/>
 </g>
</svg>
