<?xml version="1.0" encoding="UTF-8" standalone="no"?>
<!DOCTYPE svg PUBLIC "-//W3C//DTD SVG 1.1//EN" "http://www.w3.org/Graphics/SVG/1.1/DTD/svg11.dtd">
<svg width="300" height="68" viewBox="0 0 383 87" version="1.1" xmlns="http://www.w3.org/2000/svg" xmlns:xlink="http://www.w3.org/1999/xlink" xml:space="preserve" xmlns:serif="http://www.serif.com/" style="fill-rule:evenodd;clip-rule:evenodd;stroke-linejoin:round;stroke-miterlimit:2;">
    <g id="Слой_2">
        <g id="Слой_1-2">
            <path d="M158.1,0L188.55,0C213.028,-0 233.17,20.142 233.17,44.62L233.17,75.07C233.17,75.073 233.17,75.077 233.17,75.08C233.17,81.615 227.795,86.995 221.26,87L191,87C190.99,87 190.98,87 190.97,87C166.399,87 146.18,66.781 146.18,42.21C146.18,42.207 146.18,42.203 146.18,42.2L146.18,11.92C146.18,5.381 151.561,0 158.1,-0Z" style="fill:rgb(48,146,69);fill-rule:nonzero;"/>
            <path d="M229.56,83.59C210.682,52.641 180.948,29.797 146.18,19.53L146.18,42.2C146.246,66.759 166.441,86.945 191,87L221.29,87C224.385,86.987 227.356,85.763 229.56,83.59Z" style="fill:rgb(68,162,87);fill-rule:nonzero;"/>
            <path d="M189.92,30.42C197.09,30.42 202.99,36.32 202.99,43.49C202.99,50.66 197.09,56.56 189.92,56.56C182.75,56.56 176.85,50.66 176.85,43.49C176.861,36.324 182.754,30.431 189.92,30.42M189.92,16.42C175.074,16.425 162.86,28.644 162.86,43.49C162.86,58.34 175.08,70.56 189.93,70.56C204.78,70.56 217,58.34 217,43.49C217,28.64 204.78,16.42 189.93,16.42L189.92,16.42Z" style="fill:rgb(241,242,242);fill-rule:nonzero;"/>
            <path d="M176.89,16.42L171.87,16.42C166.669,16.42 162.39,20.699 162.39,25.9C162.39,25.903 162.39,25.907 162.39,25.91L162.39,76.59C166.677,80.17 171.594,82.917 176.89,84.69L176.89,16.42Z" style="fill:rgb(241,242,242);fill-rule:nonzero;"/>
            <rect x="173.16" y="16.43" width="16.9" height="9.01" style="fill:rgb(241,242,242);fill-rule:nonzero;"/>
            <path d="M18.48,18.3L19.88,18.3C24.833,18.3 29.367,20.343 33.48,24.43C36.644,27.78 38.43,32.203 38.48,36.81L38.48,37.12C38.48,43.433 35.607,48.617 29.86,52.67C26.729,54.693 23.078,55.766 19.35,55.76L19,55.76C15.935,55.721 12.919,54.986 10.18,53.61L10.18,74.35C10.181,74.357 10.182,74.364 10.182,74.372C10.182,74.448 10.118,74.512 10.042,74.512C10.034,74.512 10.027,74.511 10.02,74.51L0.16,74.51C0.153,74.511 0.146,74.512 0.138,74.512C0.062,74.512 -0.002,74.448 -0.002,74.372C-0.002,74.364 -0.001,74.357 0,74.35L0,36.35C0,31.683 2.057,27.297 6.17,23.19C10.177,19.93 14.28,18.3 18.48,18.3ZM19.08,28.3L18.72,28.3C15.76,28.3 13.263,29.837 11.23,32.91C10.586,34.198 10.228,35.611 10.18,37.05C10.18,40.463 11.92,43.107 15.4,44.98C16.536,45.476 17.76,45.741 19,45.76L19.4,45.76C22.733,45.76 25.34,44.17 27.22,40.99C27.859,39.828 28.203,38.526 28.22,37.2L28.22,36.81C28.22,33.63 26.59,31.08 23.33,29.16C22.211,28.632 20.996,28.34 19.76,28.3L19.36,28.3C19.356,28.301 19.353,28.301 19.349,28.301C19.311,28.301 19.279,28.269 19.279,28.231C19.279,28.227 19.279,28.224 19.28,28.22L19.08,28.3Z" style="fill:white;fill-rule:nonzero;"/>
            <path d="M113.38,18.3L114.78,18.3C119.72,18.3 124.25,20.343 128.37,24.43C131.534,27.78 133.32,32.203 133.37,36.81L133.37,37.12C133.37,43.433 130.497,48.617 124.75,52.67C121.622,54.691 117.974,55.765 114.25,55.76L113.93,55.76C110.865,55.724 107.848,54.988 105.11,53.61L105.11,74.35C105.11,74.353 105.11,74.357 105.11,74.36C105.11,74.443 105.043,74.51 104.96,74.51C104.957,74.51 104.953,74.51 104.95,74.51L95.05,74.51C95.047,74.51 95.043,74.51 95.04,74.51C94.957,74.51 94.89,74.443 94.89,74.36C94.89,74.357 94.89,74.353 94.89,74.35L94.89,36.35C94.89,31.683 96.95,27.297 101.07,23.19C105.083,19.93 109.187,18.3 113.38,18.3ZM113.98,28.3L113.62,28.3C110.653,28.3 108.153,29.837 106.12,32.91C105.491,34.201 105.15,35.614 105.12,37.05C105.12,40.463 106.857,43.107 110.33,44.98C111.47,45.476 112.697,45.741 113.94,45.76L114.34,45.76C117.673,45.76 120.28,44.17 122.16,40.99C122.799,39.828 123.143,38.526 123.16,37.2L123.16,36.81C123.16,33.63 121.53,31.08 118.27,29.16C117.151,28.635 115.936,28.342 114.7,28.3L114.3,28.3C114.24,28.3 114.22,28.3 114.22,28.22L113.98,28.3Z" style="fill:white;fill-rule:nonzero;"/>
            <path d="M64.22,18.16L65.47,18.16C69.803,18.16 73.837,19.93 77.57,23.47C80.65,27.01 82.187,30.59 82.18,34.21L82.18,35.66C82.18,38.327 81.033,41.15 78.74,44.13L64.3,65.07L81.3,65.07C81.41,65.07 81.46,65.15 81.46,65.23L81.46,73.9C81.46,74 81.46,74.05 81.3,74.05L47.06,74.05L47.06,73.9C58.453,57.36 64.453,48.693 65.06,47.9C69.88,41.827 72.287,38.623 72.28,38.29C72.772,37.294 73.032,36.2 73.04,35.09C73.04,32.09 71.55,29.67 68.55,27.98C67.569,27.48 66.49,27.2 65.39,27.16L64.46,27.16C62.08,27.16 59.997,28.32 58.21,30.64C57.282,31.936 56.791,33.496 56.81,35.09C56.829,36.391 57.173,37.666 57.81,38.8L57.65,38.88L48,38.88C47.7,38.8 47.5,37.48 47.4,34.93C47.4,30.057 49.4,25.827 53.4,22.24C56.418,19.658 60.248,18.214 64.22,18.16Z" style="fill:white;fill-rule:nonzero;"/>
            <path d="M247.83,17.93L257.69,17.93C257.8,17.93 257.85,18.01 257.85,18.09L257.85,38.79L257.93,38.79C260.717,37.37 263.802,36.633 266.93,36.64C273.317,36.64 278.65,39.427 282.93,45C284.982,48.049 286.095,51.635 286.13,55.31L286.13,55.62C286.13,61.72 283.297,66.85 277.63,71.01C274.67,72.915 271.248,73.983 267.73,74.1L266.09,74.1C261.7,74.1 257.5,72.36 253.46,68.87C249.613,64.87 247.69,60.61 247.69,56.09L247.69,18.09C247.69,18 247.75,17.93 247.83,17.93ZM257.93,54.88L257.93,55.36C257.931,55.364 257.931,55.367 257.931,55.371C257.931,55.409 257.899,55.441 257.861,55.441C257.857,55.441 257.854,55.441 257.85,55.44L257.93,55.6L257.93,55.83C257.93,58.96 259.64,61.49 263.06,63.45C264.276,63.926 265.565,64.19 266.87,64.23C270.577,64.23 273.383,62.38 275.29,58.68C275.633,57.716 275.822,56.703 275.85,55.68L275.85,55.29C275.85,52.137 274.273,49.623 271.12,47.75C269.832,47.082 268.401,46.738 266.95,46.75C262.83,46.75 259.93,48.82 258.25,52.96C258.066,53.585 257.958,54.229 257.93,54.88Z" style="fill:white;fill-rule:nonzero;"/>
            <path d="M343.72,17.93L353.58,17.93C353.69,17.93 353.74,18.01 353.74,18.09L353.74,38.79L353.82,38.79C356.608,37.372 359.692,36.635 362.82,36.64C369.213,36.64 374.547,39.427 378.82,45C380.869,48.049 381.975,51.636 382,55.31L382,55.62C382,61.72 379.167,66.85 373.5,71.01C370.539,72.913 367.118,73.981 363.6,74.1L362,74.1C357.62,74.1 353.41,72.357 349.37,68.87C345.523,64.87 343.6,60.61 343.6,56.09L343.6,18.09C343.59,18 343.64,17.93 343.72,17.93ZM353.82,54.88L353.82,55.36C353.82,55.36 353.82,55.44 353.74,55.44L353.82,55.6L353.82,55.83C353.82,58.96 355.53,61.49 358.96,63.45C360.173,63.925 361.458,64.189 362.76,64.23C366.48,64.23 369.287,62.38 371.18,58.68C371.528,57.717 371.717,56.704 371.74,55.68L371.74,55.29C371.74,52.137 370.163,49.623 367.01,47.75C365.723,47.08 364.291,46.736 362.84,46.75C358.733,46.75 355.833,48.82 354.14,52.96C353.956,53.585 353.848,54.229 353.82,54.88Z" style="fill:white;fill-rule:nonzero;"/>
            <path d="M311.89,18.16L313.13,18.16C317.463,18.16 321.5,19.93 325.24,23.47C328.313,27.01 329.85,30.59 329.85,34.21L329.85,35.66C329.85,38.327 328.7,41.15 326.4,44.13L312,65.07L329,65.07C329.11,65.07 329.16,65.15 329.16,65.23L329.16,73.9C329.16,74 329.11,74.05 329,74.05L294.73,74.05L294.73,73.9C306.117,57.36 312.117,48.693 312.73,47.9C317.537,41.827 319.943,38.623 319.95,38.29C320.442,37.294 320.702,36.2 320.71,35.09C320.71,32.043 319.213,29.673 316.22,27.98C315.235,27.48 314.154,27.2 313.05,27.16L312.13,27.16C309.75,27.16 307.667,28.32 305.88,30.64C304.949,31.935 304.455,33.495 304.47,35.09C304.484,36.391 304.829,37.668 305.47,38.8L305.31,38.88L295.8,38.88C295.51,38.8 295.31,37.48 295.2,34.93C295.2,30.057 297.22,25.827 301.26,22.24C304.228,19.699 307.984,18.258 311.89,18.16Z" style="fill:white;fill-rule:nonzero;"/>
        </g>
    </g>
</svg>
