<?xml version="1.0" encoding="UTF-8" standalone="no"?>
<!DOCTYPE svg PUBLIC "-//W3C//DTD SVG 1.1//EN" "http://www.w3.org/Graphics/SVG/1.1/DTD/svg11.dtd">
<svg width="100%" height="100%" viewBox="0 0 20 4" version="1.1" xmlns="http://www.w3.org/2000/svg" xmlns:xlink="http://www.w3.org/1999/xlink" xml:space="preserve" xmlns:serif="http://www.serif.com/" style="fill-rule:evenodd;clip-rule:evenodd;stroke-linejoin:round;stroke-miterlimit:2;">
    <g id="Artboard1" transform="matrix(1,0,0,0.129382,0,0)">
        <rect x="0" y="0" width="20" height="26" style="fill:none;"/>
        <g transform="matrix(1,0,0,7.72907,0,-87.2969)">
            <path d="M3.857,13.845C3.81,13.845 3.777,13.835 3.758,13.816C3.74,13.797 3.731,13.766 3.731,13.724L3.731,12.331C3.731,12.29 3.741,12.259 3.76,12.24C3.78,12.219 3.812,12.209 3.857,12.209L4.446,12.209C4.671,12.209 4.836,12.256 4.942,12.351C5.047,12.445 5.1,12.586 5.1,12.774C5.1,12.96 5.047,13.1 4.942,13.195C4.837,13.288 4.672,13.335 4.446,13.335L4.217,13.335L4.217,13.724C4.217,13.766 4.208,13.797 4.189,13.816C4.169,13.835 4.136,13.845 4.09,13.845L3.857,13.845ZM4.407,12.986C4.473,12.986 4.524,12.968 4.559,12.933C4.596,12.898 4.614,12.845 4.614,12.774C4.614,12.702 4.596,12.648 4.559,12.613C4.524,12.578 4.473,12.56 4.407,12.56L4.217,12.56L4.217,12.986L4.407,12.986Z" style="fill:white;fill-rule:nonzero;"/>
        </g>
        <g transform="matrix(1,0,0,7.72907,0,-87.2969)">
            <path d="M5.669,13.881C5.518,13.881 5.397,13.833 5.305,13.736C5.215,13.639 5.171,13.501 5.171,13.325C5.171,13.19 5.201,13.072 5.262,12.971C5.325,12.87 5.412,12.792 5.524,12.738C5.638,12.682 5.769,12.654 5.916,12.654C6.038,12.654 6.146,12.667 6.239,12.695C6.333,12.72 6.42,12.758 6.499,12.808L6.499,13.77C6.499,13.801 6.493,13.821 6.482,13.83C6.471,13.84 6.448,13.845 6.414,13.845L6.169,13.845C6.151,13.845 6.138,13.842 6.128,13.837C6.118,13.831 6.11,13.821 6.104,13.809L6.073,13.736C6.026,13.786 5.97,13.822 5.904,13.845C5.84,13.869 5.762,13.881 5.669,13.881ZM5.849,13.554C5.912,13.554 5.96,13.538 5.996,13.508C6.031,13.477 6.049,13.434 6.049,13.378L6.049,13.003C6.018,12.988 5.98,12.981 5.933,12.981C5.848,12.981 5.78,13.011 5.729,13.07C5.679,13.129 5.654,13.213 5.654,13.32C5.654,13.476 5.719,13.554 5.849,13.554Z" style="fill:white;fill-rule:nonzero;"/>
        </g>
        <g transform="matrix(1,0,0,7.72907,0,-87.2969)">
            <path d="M6.833,13.845C6.787,13.845 6.754,13.835 6.735,13.816C6.715,13.797 6.706,13.766 6.706,13.724L6.706,12.764C6.706,12.736 6.711,12.716 6.72,12.707C6.732,12.695 6.754,12.69 6.788,12.69L7.035,12.69C7.055,12.69 7.069,12.693 7.079,12.699C7.09,12.704 7.096,12.714 7.098,12.728L7.11,12.8C7.155,12.756 7.214,12.72 7.286,12.695C7.359,12.667 7.441,12.654 7.531,12.654C7.661,12.654 7.766,12.691 7.846,12.764C7.926,12.837 7.967,12.944 7.967,13.087L7.967,13.724C7.967,13.766 7.957,13.797 7.938,13.816C7.92,13.835 7.888,13.845 7.841,13.845L7.608,13.845C7.562,13.845 7.528,13.835 7.507,13.816C7.488,13.797 7.478,13.766 7.478,13.724L7.478,13.118C7.478,13.07 7.468,13.035 7.447,13.015C7.426,12.994 7.393,12.983 7.348,12.983C7.3,12.983 7.262,12.996 7.233,13.022C7.205,13.047 7.192,13.083 7.192,13.128L7.192,13.724C7.192,13.766 7.182,13.797 7.163,13.816C7.145,13.835 7.113,13.845 7.067,13.845L6.833,13.845Z" style="fill:white;fill-rule:nonzero;"/>
        </g>
        <g transform="matrix(1,0,0,7.72907,0,-87.2969)">
            <path d="M8.817,13.881C8.592,13.881 8.419,13.829 8.297,13.724C8.175,13.62 8.114,13.469 8.114,13.27C8.114,13.148 8.142,13.04 8.199,12.947C8.255,12.854 8.336,12.782 8.442,12.731C8.549,12.679 8.676,12.654 8.822,12.654C8.932,12.654 9.025,12.664 9.101,12.685C9.178,12.706 9.246,12.738 9.305,12.781C9.323,12.792 9.332,12.807 9.332,12.825C9.332,12.837 9.325,12.854 9.313,12.875L9.214,13.046C9.203,13.068 9.189,13.08 9.173,13.08C9.163,13.08 9.148,13.073 9.127,13.06C9.084,13.033 9.043,13.013 9.005,13C8.968,12.987 8.921,12.981 8.865,12.981C8.785,12.981 8.72,13.007 8.67,13.058C8.622,13.109 8.598,13.18 8.598,13.27C8.598,13.361 8.623,13.432 8.673,13.481C8.722,13.529 8.79,13.554 8.877,13.554C8.928,13.554 8.975,13.546 9.017,13.532C9.058,13.517 9.101,13.497 9.144,13.472C9.167,13.459 9.183,13.452 9.192,13.452C9.207,13.452 9.22,13.464 9.231,13.486L9.339,13.671C9.347,13.687 9.351,13.7 9.351,13.71C9.351,13.724 9.341,13.738 9.322,13.751C9.255,13.794 9.181,13.826 9.101,13.847C9.022,13.869 8.928,13.881 8.817,13.881Z" style="fill:white;fill-rule:nonzero;"/>
        </g>
        <g transform="matrix(1,0,0,7.72907,0,-87.2969)">
            <path d="M9.961,13.881C9.81,13.881 9.689,13.833 9.598,13.736C9.508,13.639 9.463,13.501 9.463,13.325C9.463,13.19 9.493,13.072 9.554,12.971C9.617,12.87 9.704,12.792 9.817,12.738C9.931,12.682 10.061,12.654 10.209,12.654C10.331,12.654 10.438,12.667 10.531,12.695C10.626,12.72 10.712,12.758 10.791,12.808L10.791,13.77C10.791,13.801 10.785,13.821 10.774,13.83C10.763,13.84 10.741,13.845 10.707,13.845L10.461,13.845C10.444,13.845 10.43,13.842 10.421,13.837C10.411,13.831 10.403,13.821 10.396,13.809L10.365,13.736C10.319,13.786 10.263,13.822 10.197,13.845C10.133,13.869 10.054,13.881 9.961,13.881ZM10.141,13.554C10.204,13.554 10.253,13.538 10.288,13.508C10.323,13.477 10.341,13.434 10.341,13.378L10.341,13.003C10.311,12.988 10.272,12.981 10.226,12.981C10.141,12.981 10.072,13.011 10.021,13.07C9.971,13.129 9.947,13.213 9.947,13.32C9.947,13.476 10.012,13.554 10.141,13.554Z" style="fill:white;fill-rule:nonzero;"/>
        </g>
        <g transform="matrix(1,0,0,7.72907,0,-87.2969)">
            <path d="M12.302,13.753C12.314,13.766 12.319,13.78 12.319,13.797C12.319,13.811 12.314,13.823 12.305,13.833C12.295,13.841 12.282,13.845 12.266,13.845L11.893,13.845C11.871,13.845 11.854,13.843 11.843,13.84C11.833,13.835 11.823,13.826 11.812,13.813L11.484,13.368L11.484,13.724C11.484,13.766 11.475,13.797 11.455,13.816C11.436,13.835 11.403,13.845 11.357,13.845L11.123,13.845C11.077,13.845 11.044,13.835 11.025,13.816C11.007,13.797 10.998,13.766 10.998,13.724L10.998,12.331C10.998,12.29 11.008,12.259 11.027,12.24C11.046,12.219 11.079,12.209 11.123,12.209L11.357,12.209C11.403,12.209 11.436,12.219 11.455,12.24C11.475,12.259 11.484,12.29 11.484,12.331L11.484,13.137L11.802,12.723C11.812,12.711 11.822,12.702 11.833,12.697C11.844,12.692 11.861,12.69 11.884,12.69L12.257,12.69C12.273,12.69 12.285,12.695 12.293,12.704C12.302,12.712 12.307,12.723 12.307,12.738C12.307,12.754 12.302,12.768 12.29,12.781L11.879,13.253L12.302,13.753Z" style="fill:white;fill-rule:nonzero;"/>
        </g>
        <g transform="matrix(1,0,0,7.72907,0,-87.2969)">
            <path d="M13.084,13.881C12.949,13.881 12.829,13.858 12.723,13.813C12.618,13.768 12.536,13.701 12.475,13.611C12.414,13.521 12.383,13.412 12.383,13.282C12.383,13.078 12.441,12.922 12.557,12.815C12.672,12.707 12.838,12.654 13.055,12.654C13.266,12.654 13.427,12.707 13.536,12.813C13.647,12.917 13.702,13.062 13.702,13.248C13.702,13.328 13.666,13.368 13.596,13.368L12.841,13.368C12.841,13.437 12.866,13.49 12.918,13.527C12.97,13.564 13.05,13.582 13.156,13.582C13.221,13.582 13.276,13.577 13.319,13.566C13.364,13.553 13.409,13.534 13.454,13.51C13.473,13.502 13.486,13.498 13.493,13.498C13.507,13.498 13.519,13.508 13.529,13.527L13.61,13.681C13.618,13.697 13.622,13.709 13.622,13.717C13.622,13.732 13.613,13.745 13.594,13.758C13.528,13.801 13.453,13.833 13.37,13.852C13.286,13.871 13.191,13.881 13.084,13.881ZM13.269,13.13C13.269,13.069 13.251,13.022 13.216,12.988C13.181,12.954 13.128,12.938 13.057,12.938C12.987,12.938 12.933,12.955 12.896,12.991C12.859,13.024 12.841,13.071 12.841,13.13L13.269,13.13Z" style="fill:white;fill-rule:nonzero;"/>
        </g>
        <g transform="matrix(1,0,0,7.72907,0,-87.2969)">
            <path d="M14.526,13.881C14.392,13.881 14.264,13.867 14.144,13.84C14.024,13.811 13.927,13.771 13.853,13.72C13.826,13.702 13.812,13.683 13.812,13.664C13.812,13.651 13.817,13.638 13.826,13.623L13.944,13.436C13.957,13.416 13.97,13.407 13.983,13.407C13.991,13.407 14.004,13.412 14.024,13.424C14.083,13.457 14.15,13.485 14.226,13.505C14.301,13.526 14.376,13.537 14.449,13.537C14.525,13.537 14.58,13.525 14.615,13.503C14.652,13.481 14.671,13.444 14.671,13.395C14.671,13.347 14.651,13.309 14.611,13.282C14.572,13.254 14.499,13.22 14.392,13.178C14.23,13.117 14.103,13.049 14.012,12.974C13.922,12.897 13.877,12.792 13.877,12.661C13.877,12.502 13.934,12.381 14.048,12.298C14.162,12.214 14.313,12.173 14.502,12.173C14.634,12.173 14.746,12.185 14.839,12.209C14.934,12.231 15.014,12.266 15.08,12.314C15.107,12.335 15.121,12.355 15.121,12.372C15.121,12.383 15.116,12.396 15.106,12.411L14.988,12.598C14.974,12.618 14.961,12.627 14.95,12.627C14.942,12.627 14.928,12.622 14.909,12.61C14.816,12.549 14.705,12.519 14.577,12.519C14.508,12.519 14.455,12.53 14.418,12.553C14.381,12.575 14.363,12.612 14.363,12.663C14.363,12.699 14.372,12.727 14.392,12.75C14.411,12.772 14.437,12.792 14.469,12.81C14.502,12.826 14.554,12.847 14.623,12.873L14.668,12.889C14.787,12.936 14.88,12.981 14.947,13.024C15.016,13.066 15.069,13.118 15.104,13.181C15.139,13.242 15.157,13.319 15.157,13.412C15.157,13.554 15.103,13.668 14.996,13.753C14.89,13.838 14.733,13.881 14.526,13.881Z" style="fill:white;fill-rule:nonzero;"/>
        </g>
        <g transform="matrix(1,0,0,7.72907,0,-87.2969)">
            <path d="M15.668,13.845C15.644,13.845 15.625,13.841 15.613,13.833C15.6,13.825 15.59,13.809 15.584,13.784L15.273,12.745C15.27,12.736 15.269,12.728 15.269,12.723C15.269,12.701 15.285,12.69 15.317,12.69L15.634,12.69C15.655,12.69 15.67,12.694 15.68,12.702C15.69,12.708 15.696,12.719 15.699,12.736L15.829,13.282L15.993,12.841C16.001,12.822 16.009,12.809 16.017,12.803C16.026,12.795 16.042,12.791 16.065,12.791L16.216,12.791C16.239,12.791 16.254,12.795 16.262,12.803C16.272,12.809 16.281,12.822 16.289,12.841L16.45,13.282L16.582,12.736C16.587,12.719 16.593,12.708 16.601,12.702C16.609,12.694 16.624,12.69 16.645,12.69L16.965,12.69C16.997,12.69 17.013,12.701 17.013,12.723C17.013,12.728 17.011,12.736 17.008,12.745L16.695,13.784C16.689,13.809 16.679,13.825 16.666,13.833C16.655,13.841 16.638,13.845 16.613,13.845L16.378,13.845C16.355,13.845 16.338,13.841 16.327,13.833C16.316,13.823 16.306,13.807 16.298,13.784L16.14,13.349L15.981,13.784C15.974,13.807 15.965,13.823 15.952,13.833C15.941,13.841 15.924,13.845 15.901,13.845L15.668,13.845Z" style="fill:white;fill-rule:nonzero;"/>
        </g>
        <g transform="matrix(1,0,0,7.72907,0,-87.2969)">
            <path d="M17.623,13.881C17.472,13.881 17.351,13.833 17.259,13.736C17.17,13.639 17.125,13.501 17.125,13.325C17.125,13.19 17.155,13.072 17.216,12.971C17.279,12.87 17.366,12.792 17.478,12.738C17.592,12.682 17.723,12.654 17.87,12.654C17.992,12.654 18.1,12.667 18.193,12.695C18.287,12.72 18.374,12.758 18.453,12.808L18.453,13.77C18.453,13.801 18.447,13.821 18.436,13.83C18.424,13.84 18.402,13.845 18.368,13.845L18.123,13.845C18.105,13.845 18.092,13.842 18.082,13.837C18.073,13.831 18.065,13.821 18.058,13.809L18.027,13.736C17.98,13.786 17.924,13.822 17.858,13.845C17.794,13.869 17.716,13.881 17.623,13.881ZM17.803,13.554C17.866,13.554 17.915,13.538 17.95,13.508C17.985,13.477 18.003,13.434 18.003,13.378L18.003,13.003C17.972,12.988 17.934,12.981 17.887,12.981C17.802,12.981 17.734,13.011 17.683,13.07C17.633,13.129 17.608,13.213 17.608,13.32C17.608,13.476 17.673,13.554 17.803,13.554Z" style="fill:white;fill-rule:nonzero;"/>
        </g>
        <g transform="matrix(1,0,0,7.72907,0,-87.2969)">
            <path d="M18.785,14.331C18.738,14.331 18.706,14.321 18.686,14.302C18.669,14.282 18.66,14.252 18.66,14.21L18.66,12.832C18.732,12.78 18.823,12.738 18.932,12.704C19.041,12.671 19.155,12.654 19.273,12.654C19.758,12.654 20,12.859 20,13.27C20,13.456 19.949,13.604 19.846,13.715C19.743,13.825 19.598,13.881 19.411,13.881C19.358,13.881 19.306,13.874 19.257,13.861C19.209,13.849 19.168,13.831 19.136,13.809L19.136,14.21C19.136,14.252 19.127,14.282 19.107,14.302C19.088,14.321 19.055,14.331 19.009,14.331L18.785,14.331ZM19.307,13.556C19.376,13.556 19.427,13.53 19.461,13.479C19.496,13.426 19.514,13.355 19.514,13.267C19.514,13.163 19.493,13.09 19.452,13.048C19.411,13.005 19.349,12.983 19.264,12.983C19.209,12.983 19.166,12.991 19.134,13.005L19.134,13.387C19.134,13.442 19.149,13.484 19.18,13.513C19.21,13.541 19.253,13.556 19.307,13.556Z" style="fill:white;fill-rule:nonzero;"/>
        </g>
        <g transform="matrix(1,0,0,7.72907,0,-87.2969)">
            <path d="M0.549,11.938C0.502,11.686 0.695,11.454 0.95,11.454C1.176,11.454 1.358,11.637 1.358,11.863L1.358,12.366C1.415,12.362 1.472,12.36 1.53,12.36C1.586,12.36 1.641,12.362 1.695,12.365L1.695,11.863C1.695,11.637 1.878,11.454 2.103,11.454C2.359,11.454 2.552,11.686 2.505,11.938L2.394,12.529C2.773,12.695 3.06,12.982 3.06,13.344L3.06,13.562C3.06,13.859 2.864,14.108 2.589,14.276C2.312,14.445 1.937,14.546 1.53,14.546C1.123,14.546 0.748,14.445 0.471,14.276C0.197,14.108 0,13.859 0,13.562L0,13.344C0,12.984 0.284,12.698 0.66,12.532L0.549,11.938ZM2.253,12.607L2.382,11.915C2.414,11.74 2.281,11.579 2.103,11.579C1.947,11.579 1.82,11.706 1.82,11.863L1.82,12.503C1.779,12.498 1.737,12.494 1.695,12.491C1.641,12.487 1.586,12.485 1.53,12.485C1.472,12.485 1.415,12.487 1.358,12.491C1.316,12.494 1.274,12.499 1.233,12.504L1.233,11.863C1.233,11.706 1.107,11.579 0.95,11.579C0.773,11.579 0.639,11.74 0.672,11.915L0.801,12.609C0.396,12.76 0.125,13.032 0.125,13.344L0.125,13.562C0.125,14.036 0.754,14.421 1.53,14.421C2.306,14.421 2.935,14.036 2.935,13.562L2.935,13.344C2.935,13.031 2.662,12.757 2.253,12.607Z" style="fill:rgb(99,48,1);"/>
        </g>
        <g transform="matrix(1,0,0,7.72907,0,-87.2969)">
            <path d="M2.935,13.562C2.935,14.036 2.306,14.421 1.53,14.421C0.754,14.421 0.125,14.036 0.125,13.562L0.125,13.344L2.935,13.344L2.935,13.562Z" style="fill:rgb(254,220,144);fill-rule:nonzero;"/>
        </g>
        <g transform="matrix(1,0,0,7.72907,0,-87.2969)">
            <path d="M0.672,11.915C0.639,11.74 0.773,11.579 0.95,11.579C1.107,11.579 1.233,11.706 1.233,11.863L1.233,12.504C1.329,12.491 1.428,12.485 1.53,12.485C1.629,12.485 1.726,12.491 1.82,12.503L1.82,11.863C1.82,11.706 1.947,11.579 2.103,11.579C2.281,11.579 2.414,11.74 2.382,11.915L2.253,12.607C2.662,12.757 2.935,13.031 2.935,13.343C2.935,13.818 2.306,14.202 1.53,14.202C0.754,14.202 0.125,13.818 0.125,13.343C0.125,13.032 0.396,12.76 0.801,12.609L0.672,11.915Z" style="fill:rgb(209,136,79);"/>
        </g>
        <g transform="matrix(1,0,0,7.72907,0,-87.2969)">
            <path d="M1.14,13.281C1.14,13.41 1.07,13.515 0.984,13.515C0.897,13.515 0.828,13.41 0.828,13.281C0.828,13.152 0.897,13.047 0.984,13.047C1.07,13.047 1.14,13.152 1.14,13.281Z" style="fill:rgb(99,48,1);fill-rule:nonzero;"/>
        </g>
        <g transform="matrix(1,0,0,7.72907,0,-87.2969)">
            <path d="M2.217,13.281C2.217,13.41 2.147,13.515 2.061,13.515C1.975,13.515 1.905,13.41 1.905,13.281C1.905,13.152 1.975,13.047 2.061,13.047C2.147,13.047 2.217,13.152 2.217,13.281Z" style="fill:rgb(99,48,1);fill-rule:nonzero;"/>
        </g>
    </g>
</svg>
