<?xml version="1.0" encoding="UTF-8"?>
<!DOCTYPE svg PUBLIC "-//W3C//DTD SVG 1.1//EN" "http://www.w3.org/Graphics/SVG/1.1/DTD/svg11.dtd">
<!-- Creator: CorelDRAW X7 -->
<svg xmlns="http://www.w3.org/2000/svg" xml:space="preserve" width="1196px" height="404px" version="1.1" style="shape-rendering:geometricPrecision; text-rendering:geometricPrecision; image-rendering:optimizeQuality; fill-rule:evenodd; clip-rule:evenodd"
viewBox="0 0 1181 398"
 xmlns:xlink="http://www.w3.org/1999/xlink">
 <defs>
  <style type="text/css">
   <![CDATA[
    .fil0 {fill:white}
   ]]>
  </style>
 </defs>
 <g id="Layer_x0020_1">
  <metadata id="CorelCorpID_0Corel-Layer"/>
  <g id="_401106488">
   <g>
    <path class="fil0" d="M375 109c0,6 1,13 3,17 1,3 2,5 3,7l5 6c1,1 1,1 2,3l9 7c5,3 9,5 14,7 16,6 51,11 51,31 0,4 -1,6 -3,9 0,1 -1,1 -1,1 -3,4 -13,8 -18,8 -11,0 -52,1 -62,0l-12 0c-4,0 -8,1 -12,2 -6,2 -11,6 -15,11 -2,3 -3,5 -5,8l-5 9c-1,3 -3,6 -4,9l110 0c10,0 23,-3 31,-6 5,-2 9,-5 14,-7 1,-1 1,-2 2,-2l13 -14c11,-17 12,-48 -2,-64 -8,-8 -17,-13 -27,-17 -5,-2 -10,-3 -15,-4 -10,-4 -29,-8 -32,-18 -5,-14 7,-22 19,-24 1,0 1,0 2,-1l111 1c0,5 7,47 8,57 0,7 1,14 2,20 0,3 8,72 9,78l42 0c1,-2 4,-7 4,-8l30 -54c9,-19 20,-36 28,-55 2,-3 7,-14 10,-16 0,2 0,5 0,7 2,9 2,26 4,34 2,8 2,17 3,25l5 42c0,3 0,5 1,8 1,5 1,12 2,17l44 0c5,-9 14,-29 19,-36l51 -97c1,-1 1,-1 2,-3l4 -9c4,-6 7,-12 10,-18l3 -6c2,-4 12,-22 13,-25 -20,0 -37,-3 -49,15l-5 9c-8,15 -16,29 -24,45l-16 32c-1,2 -2,3 -2,5 -1,2 -2,2 -3,4 -4,7 -7,14 -11,21l-1 2 -2 -17c-2,-10 -4,-30 -5,-41 -1,-4 0,-6 -1,-9l-2 -17c-1,-2 -1,-5 -1,-8l-2 -16c-1,-4 -1,-6 -1,-9l-2 -13c0,-2 1,-3 -1,-3 -10,0 -30,-1 -38,2 -13,7 -17,15 -23,27 0,2 -1,3 -2,5 -8,17 -18,33 -26,50 -1,2 -2,4 -2,5 -3,3 -4,6 -6,9 -1,2 -1,3 -2,5l-17 32c-1,-5 -1,-12 -2,-17l-3 -27c0,-3 -1,-7 -1,-10 0,-2 -1,-6 -1,-8 -1,-8 -1,-20 -2,-28l-2 -18c-1,-10 0,-27 -12,-27l-135 0c-14,0 -37,7 -48,16 -12,12 -20,25 -20,44l0 0 0 0z"/>
    <path class="fil0" d="M801 244c12,0 28,1 37,-3 12,-6 15,-14 21,-26 1,-2 2,-3 3,-5l19 -35c23,0 45,0 69,0 17,0 22,-7 30,-21 1,-3 4,-9 6,-12l-87 0 15 -29c5,-10 10,-19 15,-29l131 0 -61 120c-2,3 -3,6 -5,9l-5 10c-3,8 -7,14 -11,21 21,0 37,3 49,-13l7 -12c1,-2 1,-4 3,-6l31 -58c1,-3 2,-3 3,-6l34 -65c9,0 18,0 28,0 10,0 17,2 24,-3 11,-5 13,-11 19,-23 1,-2 4,-7 5,-9l-277 0c-2,2 -2,3 -3,5 -7,14 -16,30 -22,44l-7 12c-1,2 -2,3 -3,6l-10 18c-2,4 -4,8 -6,12 -1,1 -1,2 -2,3l-21 39c-1,3 -2,5 -3,7 -3,4 -5,8 -7,12 -1,1 -1,2 -1,3l-5 9c-1,2 -1,2 -1,3 -1,1 -2,2 -3,3 -1,3 -9,16 -9,19l0 0 0 0z"/>
    <path class="fil0" d="M354 342l-9 0 0 -19c5,0 14,-1 18,1 5,2 10,18 -9,18l0 0zm0 -31l-9 0 0 -18c11,0 21,-2 21,9 -1,7 -5,9 -12,9zm-28 -30l0 72c0,1 1,2 2,2 20,0 44,3 54,-12 4,-6 5,-16 -1,-22 -2,-2 -5,-5 -9,-5l0 -1c11,-2 15,-18 7,-28 -10,-10 -34,-7 -51,-7 -1,0 -2,0 -2,1l0 0z"/>
    <path class="fil0" d="M1142 326l1 0 -1 0 0 0zm0 0l-7 -10c-2,-2 -2,-2 -4,-4l-5 -6c-3,-5 -18,-25 -22,-26 -2,-1 -8,0 -11,0l0 75c19,0 16,3 16,-16l0 -23c0,-3 -1,-5 -1,-8 1,1 1,1 2,3l21 27c2,2 4,4 5,6l3 4c1,0 1,0 2,2 2,3 2,4 6,4 14,3 11,-1 11,-10l0 -64 -16 0 0 46 0 0 0 0z"/>
    <path class="fil0" d="M521 341c-12,0 -21,-9 -21,-21 0,-7 0,-14 6,-21 7,-9 36,-11 36,19 0,8 -5,18 -12,21 -2,1 -7,2 -9,2l0 0zm-39 -26c0,14 3,21 12,30 3,3 6,6 11,7 18,7 37,3 48,-12 15,-21 7,-61 -34,-61 -6,0 -11,1 -16,4 -3,1 -7,3 -10,6l-8 11c-2,4 -3,9 -3,15l0 0 0 0z"/>
    <path class="fil0" d="M850 355l18 0 0 -32 30 0 0 30c0,1 0,2 2,2l14 0c1,0 2,-1 2,-2l0 -72c0,-1 -1,-1 -2,-1l-14 0c-2,0 -2,0 -2,1l0 30 -30 0 0 -31 -18 0 0 75 0 0z"/>
    <path class="fil0" d="M675 353c0,1 0,2 1,2l17 0 0 -32c10,0 8,0 16,11 2,4 11,18 13,20 4,1 15,1 19,1 2,0 1,-1 0,-3 -1,-1 -1,0 -1,-2l-21 -32c-2,-2 -4,-2 -5,-4 3,-1 20,-25 23,-29 2,-2 2,-3 3,-5 -23,0 -18,-4 -34,21 -7,9 -6,9 -13,9l0 -30 -18 0 0 73 0 0 0 0z"/>
    <path class="fil0" d="M978 297c1,1 4,11 5,14l5 15 -20 0c1,-3 4,-12 6,-15 1,-5 3,-10 4,-14l0 0zm-38 58c6,0 15,1 17,-1 3,-2 3,-3 4,-6 1,-3 2,-6 3,-10l28 0c1,2 3,8 4,12 3,6 8,5 20,5 0,-3 -6,-16 -7,-19l-21 -56 -19 0c-1,3 -2,6 -3,9l-11 28c-1,3 -3,6 -3,9 -2,4 -3,6 -4,9 -1,4 -7,17 -8,20l0 0 0 0z"/>
    <path class="fil0" d="M760 313c0,12 1,21 8,30 1,1 1,1 2,3 1,0 2,0 3,1 10,11 34,11 45,1l5 -4c-11,-18 -10,-3 -26,-3 -6,0 -11,-3 -14,-7 -10,-14 -6,-40 14,-40 4,0 6,0 8,1 8,3 8,7 13,-1 5,-6 5,-5 0,-9 -1,-1 -3,-2 -5,-3 -13,-7 -32,-3 -43,7 -5,5 -10,15 -10,24l0 0 0 0z"/>
    <path class="fil0" d="M585 316c0,12 3,22 10,28 11,12 29,14 42,8 3,0 3,0 4,-1 1,-1 1,-1 3,-3 6,-5 4,-5 0,-9 -7,-7 -4,-4 -12,0 -11,5 -29,-1 -29,-21 0,-6 1,-14 5,-19 12,-13 26,0 31,0 3,0 7,-8 9,-10 -4,-3 -2,-2 -10,-6 -10,-6 -22,-5 -32,0 -9,3 -14,10 -18,18 -2,3 -3,10 -3,15l0 0 0 0z"/>
    <path class="fil0" d="M415 353c0,1 0,2 2,2l43 0 0 -15 -27 0 0 -60 -18 0 0 73 0 0z"/>
    <path class="fil0" d="M1041 353c0,1 1,2 2,2l16 0 0 -75 -18 0 0 73 0 0z"/>
   </g>
   <g>
    <path class="fil0" d="M44 306c5,-66 60,-127 112,-108 6,2 16,9 19,12 10,10 15,30 7,47 -18,43 -68,24 -97,28 -28,3 -32,16 -41,21l0 0zm184 -218c5,-20 36,-20 47,-8 -19,0 -34,0 -47,8zm-222 310c6,-10 7,-18 13,-26 50,-65 142,-22 197,-87 27,-31 27,-84 15,-129 -6,-18 -19,-51 0,-61 24,-12 43,-7 70,-3 -5,-14 -25,-33 -36,-43 -35,-32 -88,-35 -106,6 -10,20 -6,46 -16,66 -8,18 -27,25 -45,35 -20,11 -31,19 -46,33 -20,18 -37,48 -45,77 -12,45 -7,86 -1,132l0 0 0 0z"/>
    <g>
     <path class="fil0" d="M111 8c-5,5 -2,9 1,11 12,7 19,-6 35,-7 15,-1 27,4 37,9 -14,-12 -57,-32 -73,-13l0 0 0 0z"/>
     <path class="fil0" d="M126 35c7,7 5,-12 44,-10 -17,-12 -54,-1 -44,10z"/>
     <path class="fil0" d="M142 42c7,8 8,-11 30,-12 -15,-2 -36,5 -30,12z"/>
    </g>
   </g>
  </g>
 </g>
</svg>
