<?xml version="1.0" encoding="UTF-8" standalone="no"?>
<!DOCTYPE svg PUBLIC "-//W3C//DTD SVG 1.1//EN" "http://www.w3.org/Graphics/SVG/1.1/DTD/svg11.dtd">
<svg width="100%" height="100%" viewBox="0 0 301 80" version="1.1" xmlns="http://www.w3.org/2000/svg" xmlns:xlink="http://www.w3.org/1999/xlink" xml:space="preserve" xmlns:serif="http://www.serif.com/" style="fill-rule:evenodd;clip-rule:evenodd;stroke-linejoin:round;stroke-miterlimit:2;">
    <path d="M24.384,29.712C24.273,30.141 24.079,30.544 23.813,30.898C23.318,31.543 22.663,32.046 21.914,32.357C21.239,32.649 20.525,32.838 19.796,32.917C19.645,32.936 19.49,32.948 19.339,32.959L19.315,32.961C18.852,32.979 18.408,33.144 18.046,33.434C17.684,33.724 17.424,34.123 17.305,34.571C17.25,34.795 17.209,35.021 17.182,35.25C17.14,35.594 17.119,35.947 17.095,36.329C17.079,36.603 17.061,36.891 17.034,37.202C16.877,38.47 16.512,39.702 15.954,40.85C15.84,41.091 15.724,41.325 15.609,41.555C14.998,42.786 14.445,43.898 14.603,45.387C14.728,46.535 15.313,47.304 16.09,48.097C16.459,48.476 16.949,48.801 17.458,49.137C18.88,50.079 20.449,51.117 19.932,53.733C19.509,55.853 16.01,58.078 11.093,58.855C11.569,58.782 10.521,56.984 10.403,56.782L10.395,56.769C10.26,56.556 10.121,56.346 9.982,56.136C9.582,55.53 9.183,54.927 8.872,54.259C8.051,52.514 7.67,50.494 8.007,48.582C8.312,46.851 9.451,45.469 10.547,44.137L10.551,44.133C10.728,43.918 10.905,43.703 11.077,43.489C12.543,41.659 14.082,39.262 14.423,36.886C14.452,36.68 14.477,36.455 14.504,36.218C14.553,35.795 14.605,35.333 14.688,34.873C14.81,34.079 15.057,33.31 15.421,32.594C15.669,32.125 15.996,31.702 16.387,31.344C16.591,31.154 16.725,30.901 16.769,30.625C16.812,30.349 16.763,30.067 16.627,29.823L8.788,15.659L20.048,29.617C20.176,29.779 20.338,29.91 20.523,30.002C20.707,30.094 20.91,30.144 21.115,30.148C21.321,30.153 21.525,30.112 21.713,30.028C21.902,29.944 22.069,29.82 22.204,29.664C22.347,29.497 22.428,29.285 22.433,29.065C22.439,28.845 22.368,28.63 22.234,28.456C21.71,27.783 21.165,27.101 20.622,26.422C20.403,26.149 20.184,25.875 19.968,25.603L17.134,22.081L11.447,15.047L0.039,1L12.177,14.417L18.23,21.14L21.25,24.51C21.528,24.824 21.805,25.135 22.083,25.447C22.807,26.259 23.532,27.071 24.256,27.932L24.42,28.134L24.456,28.446C24.505,28.869 24.481,29.297 24.384,29.712ZM53.325,34.446L53.337,34.462L53.337,34.464C53.335,32.963 52.409,30.484 50.536,28.101L50.492,28.043C49.914,27.326 49.286,26.653 48.61,26.03C48.484,25.907 48.347,25.786 48.209,25.665C47.344,24.907 46.397,24.247 45.388,23.697L45.316,23.66C42.143,21.925 38.015,21.031 32.925,22.038C32.242,21.204 31.506,20.415 30.721,19.677C29.52,18.527 28.106,17.625 26.559,17.021C25.026,16.458 23.385,16.256 21.762,16.434C23.326,16.575 24.85,17.012 26.253,17.722C27.607,18.451 28.827,19.408 29.86,20.552C30.906,21.72 31.889,22.943 32.805,24.216C32.882,24.316 32.959,24.416 33.035,24.517L33.036,24.517C33.932,25.69 34.844,26.884 35.981,27.946C36.607,28.538 37.306,29.047 38.059,29.462C38.26,29.565 38.462,29.661 38.661,29.746C38.859,29.83 39.045,29.909 39.246,29.981C39.633,30.132 40.033,30.257 40.434,30.372C42.037,30.831 43.678,30.996 45.281,31.084C45.504,31.096 45.725,31.107 45.946,31.118C46.52,31.146 47.088,31.174 47.648,31.215C48.414,31.261 49.174,31.381 49.916,31.573C51.032,31.866 52.015,32.534 52.7,33.466C52.933,33.776 53.142,34.104 53.325,34.446ZM178.61,24.765C173.343,26.092 170.874,30.222 172.371,35.201C173.013,37.335 174.986,39.487 177.776,41.097C182.804,43.998 184.285,45.173 185.145,46.943C185.862,48.419 185.924,48.913 185.562,50.251C184.713,53.393 182.496,55.126 179.325,55.126C176.088,55.126 173.815,53.31 173.307,50.319C173.104,49.116 172.853,48.732 172.271,48.732C171.577,48.732 171.505,49.05 171.505,52.097L171.505,55.461L173.61,56.176C176.898,57.293 181.574,57.159 184.365,55.869C189.801,53.356 191.885,48.368 189.445,43.706C188.532,41.963 186.242,40.017 182.319,37.65C178.195,35.163 176.358,33.353 176.088,31.514C175.674,28.688 178.216,26.349 181.69,26.359C184.411,26.366 185.579,27.011 186.544,29.036C187.148,30.304 187.58,30.723 188.295,30.734C189.086,30.746 189.204,30.599 189.002,29.849C188.869,29.355 188.758,28.116 188.755,27.095C188.751,25.799 188.564,25.168 188.134,25.004C186.962,24.556 180.121,24.384 178.61,24.765ZM72.848,25.953C72.848,26.528 73.115,26.752 73.801,26.752C75.738,26.752 75.842,27.311 76.056,38.901C76.243,49.026 76.313,49.835 77.122,51.329C78.281,53.47 79.854,54.895 82.272,55.996C83.929,56.75 84.975,56.91 88.288,56.917C91.882,56.923 92.537,56.807 94.596,55.8C95.86,55.181 97.434,54.022 98.094,53.224C100.383,50.458 100.625,49.121 100.885,37.827C101.135,26.951 101.169,26.775 103.026,26.758C103.459,26.755 103.728,26.445 103.728,25.953C103.728,25.198 103.461,25.154 98.916,25.154C94.423,25.154 94.103,25.205 94.103,25.928C94.103,26.507 94.428,26.733 95.397,26.827C97.527,27.033 97.7,27.851 97.706,37.769C97.713,47.824 97.37,49.759 95.217,51.795C93.215,53.689 91.621,54.327 88.893,54.327C84.975,54.327 82.198,52.503 81.288,49.331C80.982,48.265 80.869,44.342 80.949,37.542L81.069,27.352L82.473,26.901C83.245,26.652 83.935,26.158 84.006,25.802C84.121,25.229 83.482,25.154 78.492,25.154C73.115,25.154 72.848,25.192 72.848,25.953ZM110.145,25.953C110.145,26.572 110.412,26.752 111.329,26.752C113.371,26.752 114.521,27.537 114.983,29.246C115.246,30.217 115.359,34.857 115.282,41.488C115.144,53.328 114.982,54.102 112.533,54.59C111.726,54.751 111.348,55.065 111.348,55.575C111.348,56.272 111.74,56.325 116.963,56.325C122.093,56.325 122.577,56.263 122.577,55.608C122.577,55.098 122.063,54.755 120.793,54.416C119.216,53.996 118.961,53.767 118.59,52.435C118.114,50.727 118.001,32.728 118.466,32.78C118.632,32.799 120.187,34.462 121.923,36.477C123.659,38.491 128.408,43.781 132.477,48.232C138.845,55.198 140.036,56.325 141.037,56.325L142.199,56.325L142.314,42.158C142.396,32.099 142.564,27.857 142.893,27.528C143.148,27.274 143.96,26.943 144.698,26.793C145.48,26.634 146.038,26.277 146.038,25.937C146.038,25.459 145.038,25.334 140.524,25.243C135.215,25.135 135.01,25.161 135.01,25.942C135.01,26.535 135.272,26.752 135.99,26.752C136.529,26.752 137.476,27.186 138.095,27.716L139.221,28.68L139.347,38.306C139.419,43.741 139.318,47.933 139.117,47.933C138.922,47.933 137.697,46.719 136.396,45.235C135.096,43.751 131.392,39.66 128.165,36.144C124.939,32.627 121.414,28.73 120.333,27.484L118.366,25.219L114.256,25.187C110.401,25.156 110.145,25.204 110.145,25.953ZM152.254,25.953C152.254,26.563 152.522,26.752 153.381,26.752C154.001,26.752 154.858,27.007 155.286,27.319C156.021,27.854 156.072,28.544 156.19,39.608C156.338,53.423 156.216,54.197 153.843,54.575C152.648,54.766 152.254,55.014 152.254,55.577C152.254,56.274 152.659,56.325 158.27,56.325C164.018,56.325 164.286,56.289 164.286,55.525C164.286,54.957 164.018,54.726 163.36,54.726C162.85,54.726 162.084,54.471 161.655,54.16C160.918,53.622 160.871,52.932 160.761,40.988C160.648,28.753 160.668,28.359 161.462,27.568C161.912,27.119 162.732,26.752 163.283,26.752C164.018,26.752 164.286,26.539 164.286,25.953C164.286,25.189 164.018,25.154 158.27,25.154C152.522,25.154 152.254,25.189 152.254,25.953ZM194.248,25.953C194.378,26.448 194.795,26.752 195.344,26.752C195.831,26.752 196.624,27.171 197.107,27.683C197.597,28.202 200.339,34.772 203.32,42.569L208.657,56.524L210.056,56.644L211.455,56.763L215.204,46.853C217.266,41.403 219.17,36.512 219.434,35.984C219.888,35.081 219.989,35.218 221.194,38.382C221.897,40.228 223.769,45.11 225.354,49.231L228.234,56.724L229.504,56.724C230.202,56.724 230.865,56.485 230.978,56.193C231.09,55.902 232.933,51.181 235.073,45.703C237.213,40.226 239.583,34.157 240.34,32.218C242.064,27.803 242.41,27.258 243.785,26.78C244.396,26.568 244.896,26.115 244.896,25.774C244.896,25.248 244.165,25.154 240.083,25.154C235.538,25.154 235.271,25.198 235.271,25.953C235.271,26.532 235.538,26.752 236.24,26.752C237.799,26.752 238.479,27.174 238.479,28.143C238.479,28.951 230.84,49.683 230.37,50.152C230.08,50.44 223.183,31.181 222.933,29.389C222.691,27.648 223.435,26.752 225.121,26.752C225.779,26.752 226.047,26.522 226.047,25.953C226.047,25.188 225.779,25.154 219.83,25.154C213.882,25.154 213.614,25.188 213.614,25.953C213.614,26.409 213.882,26.752 214.236,26.752C215.488,26.752 217.148,27.958 217.574,29.177C218.187,30.927 217.718,32.702 214.112,42.297L211.049,50.448L210.39,48.89C210.027,48.034 208.138,42.98 206.193,37.661C202.372,27.209 202.316,26.752 204.84,26.752C205.727,26.752 205.994,26.567 205.994,25.953C205.994,25.189 205.727,25.154 200.016,25.154C194.236,25.154 194.045,25.18 194.248,25.953ZM275.467,26.224C275.467,26.224 275.467,26.769 275.534,26.921C275.601,27.073 276.032,27.13 276.032,27.13C276.133,27.157 276.232,27.183 276.329,27.208L276.454,27.239L276.6,27.276L276.795,27.325C278.007,27.625 278.859,27.835 279.199,28.631C279.429,29.169 279.443,31.038 279.446,41.058C279.449,51.624 279.447,52.918 279.164,53.616C278.813,54.482 278.142,54.942 276.594,55.377C276.594,55.377 275.909,55.567 275.725,55.738C275.541,55.908 275.506,56.289 275.506,56.289C275.506,56.289 275.491,56.642 275.649,56.812C275.807,56.981 276.228,56.9 276.228,56.9L280.242,56.911L286.898,56.965C286.898,56.965 287.17,57.001 287.311,56.821C287.452,56.64 287.417,56.288 287.417,56.288C287.417,56.288 287.417,55.91 287.241,55.74C287.066,55.57 286.386,55.411 286.386,55.411C284.882,55.041 284.111,54.559 283.77,53.776C283.516,53.194 283.489,51.623 283.451,48.352L283.451,43.555C283.479,43.571 283.506,43.587 283.533,43.603C283.554,43.616 283.575,43.629 283.595,43.642L283.63,43.664C283.686,43.7 283.741,43.737 283.797,43.775C283.838,43.804 283.88,43.833 283.922,43.862L283.934,43.871L283.935,43.871C284.702,44.408 285.663,45.08 289.252,45.184C293.601,45.31 296.216,43.375 297.772,41.128C299.328,38.881 299.931,35.35 298.79,31.589C297.649,27.828 294.3,25.552 289.591,25.317C287.137,25.194 283.566,25.315 281.571,25.406L281.57,25.406C281.366,25.415 281.18,25.424 281.012,25.431C279.199,25.51 277.026,25.683 275.943,25.786L275.94,25.787C275.646,25.815 275.617,25.818 275.534,25.922C275.452,26.027 275.467,26.224 275.467,26.224ZM293.138,40.957C294.887,39.312 294.916,36.74 294.916,35.097C294.744,32.521 293.706,27.566 287.825,27.566C286.45,27.495 283.637,27.733 283.56,29.64C283.474,29.977 283.436,32.333 283.458,35.95L283.493,41.723L284.091,42.038L284.124,42.055C284.448,42.227 284.87,42.449 285.607,42.594C287.945,43.051 291.388,42.601 293.138,40.957ZM256.344,25.652C256.513,25.588 256.659,25.533 256.775,25.488L256.947,25.423L257.067,25.377C257.067,25.377 257.718,25.11 257.928,25.377C257.993,25.459 258.229,26.068 258.813,27.577L258.842,27.651C258.949,27.929 259.068,28.235 259.2,28.574C260.072,30.82 261.324,34.044 261.983,35.739L262.717,37.624L264.111,41.211L264.88,43.19C265.814,45.593 267.014,48.677 267.545,50.042C268.076,51.407 268.755,52.827 268.945,53.086C269.037,53.211 269.131,53.366 269.234,53.536L269.237,53.542L269.238,53.543L269.238,53.544C269.649,54.224 270.199,55.136 271.305,55.315C271.305,55.315 272.17,55.458 272.299,55.594C272.427,55.729 272.456,55.976 272.456,55.976L272.456,56.439C272.456,56.439 272.441,56.557 272.37,56.658C272.299,56.758 272.037,56.731 272.037,56.731L265.363,56.731L260.615,56.765C260.615,56.765 260.449,56.785 260.351,56.705C260.253,56.624 260.203,56.419 260.203,56.419L260.203,56.07C260.203,56.07 260.162,55.808 260.351,55.58C260.541,55.352 261.304,55.325 261.304,55.325C262.741,55.201 263.311,53.976 263.605,53.346C263.627,53.299 263.647,53.255 263.666,53.215C263.979,52.564 263.866,52.139 262.452,48.656C261.519,46.357 261.201,45.711 260.974,45.654C260.815,45.614 258.331,45.599 255.454,45.621L250.224,45.661L249.911,46.52C249.006,49.007 248.203,51.478 248.082,52.146C247.835,53.505 248.179,55.016 250.178,55.279C250.178,55.279 250.919,55.381 251.116,55.53C251.314,55.679 251.383,56.061 251.383,56.061L251.383,56.414C251.383,56.414 251.346,56.581 251.21,56.694C251.074,56.807 250.721,56.766 250.721,56.766L245.728,56.766L240.899,56.821C240.899,56.821 240.692,56.816 240.54,56.735C240.388,56.654 240.363,56.492 240.363,56.492L240.363,56.157C240.363,56.157 240.337,55.94 240.606,55.674C240.875,55.409 241.601,55.338 241.601,55.338C242.921,55.125 243.669,53.72 244.099,52.911C244.131,52.851 244.161,52.795 244.19,52.743C244.36,52.428 245.129,50.59 245.899,48.659C246.669,46.728 247.533,44.568 247.819,43.859C248.792,41.447 249.716,39.137 251.116,35.62C251.884,33.689 253.021,30.839 253.643,29.286L254.774,26.463L256.344,25.652ZM255.932,32.514C256.175,33.125 256.545,34.044 256.756,34.556C256.967,35.068 257.557,36.519 258.068,37.78C258.578,39.041 259.205,40.575 259.461,41.19C259.717,41.804 259.927,42.336 259.927,42.372C259.927,42.408 258.005,42.437 255.655,42.437C252.958,42.437 251.383,42.385 251.383,42.296C251.383,42.219 251.474,41.913 251.584,41.616C251.76,41.143 252.636,38.635 254.572,33.064C254.871,32.203 255.148,31.445 255.188,31.378C255.324,31.148 255.492,31.404 255.932,32.514ZM28.819,34.634C30.116,36.926 27.216,37.637 25.856,37.768C23.794,37.969 23.367,36.775 23.77,35.276C23.902,34.739 24.195,34.256 24.61,33.892C25.025,33.528 25.541,33.302 26.088,33.243C26.628,33.193 27.17,33.297 27.653,33.543C28.136,33.789 28.541,34.167 28.819,34.634ZM46.659,40.862C41.504,38.76 36.111,36.562 36.914,30.393C38.635,32.239 41.337,32.626 44.276,33.047C46.941,33.429 49.802,33.839 52.302,35.391C58.201,39.051 57.34,46.161 55.336,48.778C55.516,44.472 51.179,42.704 46.659,40.862ZM48.618,26.026C48.537,25.952 48.455,25.878 48.373,25.804L48.373,25.804L48.315,25.752C48.282,25.722 48.249,25.692 48.217,25.662L48.27,25.711L48.403,25.834C48.475,25.901 48.547,25.966 48.618,26.026ZM25.497,19.627C24.644,18.636 23.319,18.117 22.02,17.928C21.972,18.253 21.941,18.58 21.928,18.908C21.87,21.612 22.826,24.581 24.676,26.644C25.267,27.311 25.981,27.858 26.778,28.255C27.239,28.48 28.461,29.04 28.914,28.536C28.948,28.49 28.97,28.436 28.977,28.379C28.983,28.321 28.975,28.263 28.952,28.21C28.877,27.995 28.732,27.799 28.588,27.605C28.486,27.468 28.384,27.331 28.309,27.188C28.232,27.044 28.15,26.903 28.068,26.763C27.915,26.499 27.761,26.236 27.643,25.95C27.333,25.2 27.171,24.403 27.01,23.608C26.978,23.449 26.945,23.29 26.912,23.131C26.666,21.906 26.351,20.617 25.497,19.627ZM43.737,41.193C42.413,44.906 44.549,48.041 46.672,51.158C49.047,54.645 51.406,58.109 48.889,62.33C53.781,60.301 56.103,54.171 54.073,49.308C52.794,46.232 49.711,44.564 46.849,43.016C45.739,42.416 44.662,41.833 43.737,41.193ZM29.395,50.06C28.509,50.423 27.673,50.9 26.908,51.479C28.647,50.846 30.471,50.484 32.319,50.406C32.65,50.387 32.984,50.371 33.32,50.356L33.331,50.355C33.918,50.328 34.515,50.3 35.124,50.249C36.123,50.181 37.108,49.978 38.052,49.645C39.042,49.298 39.942,48.734 40.689,47.995C41.444,47.232 41.973,46.274 42.218,45.227C42.434,44.238 42.403,43.211 42.13,42.236C41.856,41.262 41.347,40.37 40.649,39.641C40.986,40.499 41.193,41.404 41.264,42.324C41.325,43.181 41.209,44.041 40.923,44.85C40.645,45.618 40.189,46.307 39.593,46.863C38.978,47.425 38.265,47.868 37.491,48.172C36.415,48.607 35.198,48.786 33.931,48.971L33.93,48.971C33.352,49.056 32.763,49.142 32.172,49.255C31.222,49.43 30.292,49.7 29.395,50.06ZM44.688,65.441L44.678,65.449C44.454,65.63 44.227,65.814 43.982,65.979C43.67,66.186 43.342,66.369 43.002,66.526C42.295,66.873 41.517,67.05 40.73,67.044C38.598,67.003 37.091,65.409 36.209,63.607C35.978,63.135 35.774,62.649 35.571,62.162L35.57,62.161C35.245,61.382 34.919,60.603 34.48,59.883C33.46,58.21 31.714,56.864 29.67,57.113C28.837,57.218 28.055,57.594 27.592,58.321C26.374,60.219 28.123,62.879 30.354,62.502C30.543,62.473 30.729,62.422 30.907,62.349C31.084,62.273 31.249,62.172 31.398,62.049C31.709,61.789 31.944,61.448 32.077,61.063C32.223,60.662 32.256,60.227 32.171,59.809C32.08,59.371 31.822,58.986 31.454,58.736C31.882,58.937 32.216,59.298 32.386,59.742C32.561,60.199 32.606,60.696 32.516,61.178C32.428,61.679 32.208,62.148 31.879,62.534C31.703,62.733 31.501,62.906 31.277,63.048C31.056,63.188 30.818,63.3 30.57,63.384C30.067,63.557 29.531,63.612 29.003,63.547C28.262,63.441 27.563,63.136 26.979,62.665C26.875,62.583 26.775,62.496 26.679,62.407C26.275,62.059 25.91,61.669 25.588,61.243C25.447,61.087 25.303,60.933 25.154,60.785C24.439,60.032 23.596,59.414 22.665,58.959C22.022,58.676 21.35,58.466 20.661,58.335C20.314,58.263 19.963,58.21 19.613,58.166C19.596,58.164 19.572,58.161 19.543,58.156C19.524,58.153 19.503,58.15 19.479,58.146L19.41,58.133C19.117,58.082 18.641,57.999 18.557,58.078C19.641,57.075 20.822,56.185 22.084,55.42C23.379,54.648 24.769,54.051 26.22,53.643C27.723,53.218 29.296,53.096 30.847,53.286C31.645,53.383 32.426,53.586 33.171,53.89C33.951,54.203 34.671,54.65 35.299,55.211C35.921,55.799 36.423,56.502 36.778,57.282C37.099,58.013 37.338,58.776 37.491,59.559C37.574,59.98 37.636,60.444 37.7,60.923C37.992,63.106 38.329,65.626 40.832,66.065C40.991,66.096 41.152,66.119 41.313,66.134L41.812,66.146C42.155,66.121 42.496,66.072 42.832,65.999C43.528,65.834 44.207,65.602 44.858,65.304C44.801,65.349 44.745,65.395 44.688,65.441ZM25.697,61.364C25.776,61.455 25.856,61.545 25.938,61.635C25.902,61.595 25.866,61.555 25.831,61.515L25.83,61.513L25.829,61.513C25.785,61.463 25.741,61.413 25.697,61.364Z" style="fill:white;"/>
</svg>
