<?xml version="1.0" encoding="UTF-8" standalone="no"?>
<!DOCTYPE svg PUBLIC "-//W3C//DTD SVG 1.1//EN" "http://www.w3.org/Graphics/SVG/1.1/DTD/svg11.dtd">
<svg width="1250" height="300" viewBox="0 0 1250 300" version="1.1" xmlns="http://www.w3.org/2000/svg" xmlns:xlink="http://www.w3.org/1999/xlink" xml:space="preserve" xmlns:serif="http://www.serif.com/" style="fill-rule:evenodd;clip-rule:evenodd;stroke-linejoin:round;stroke-miterlimit:2;">
    <g>
        <g transform="matrix(2.12,0,0,2.12,-639,-429)">
            <g transform="matrix(1,0,0,1,842.868,273.742)">
                <path d="M-45.301,-52.716L-25.327,-52.716L-25.327,52.716L-45.301,52.716L-45.301,-52.716ZM-13.112,-52.716L45.3,-52.716L45.3,-32.934L26.045,-32.934L26.045,52.716L5.641,52.716L5.641,-32.934L-13.112,-32.934L-13.112,-52.716Z" style="fill:rgb(197,179,87);fill-rule:nonzero;"/>
            </g>
            <g transform="matrix(1,0,0,1,739.854,273.653)">
                <path d="M-5.897,-13.887L-7.841,-10.091C-8.08,-9.627 -8.241,-9.268 -8.312,-9.026C-8.386,-8.787 -8.422,-8.536 -8.422,-8.286C-8.422,-7.641 -8.183,-7.065 -7.707,-6.57C-7.229,-6.071 -6.625,-5.818 -5.91,-5.818C-5.225,-5.818 -4.633,-6.06 -4.15,-6.539C-3.664,-7.017 -3.419,-7.611 -3.419,-8.302C-3.419,-9.014 -3.656,-9.617 -4.13,-10.099C-4.493,-10.469 -4.92,-10.698 -5.406,-10.786L-4.237,-13.057L-5.897,-13.887ZM-5.31,-8.32C-5.31,-8.12 -5.371,-7.959 -5.492,-7.833C-5.743,-7.585 -6.089,-7.566 -6.345,-7.836C-6.47,-7.966 -6.531,-8.123 -6.531,-8.32C-6.531,-8.517 -6.472,-8.675 -6.354,-8.802C-6.24,-8.922 -6.108,-8.982 -5.939,-8.982C-5.756,-8.982 -5.609,-8.922 -5.492,-8.799C-5.368,-8.672 -5.31,-8.52 -5.31,-8.32ZM3.328,-43.188L0.187,-38.529L0.139,-38.456L0.139,-36.84L3.221,-36.84L3.221,-35.396L5.112,-35.396L5.112,-36.84L5.738,-36.84L5.738,-38.656L5.112,-38.656L5.112,-43.188L3.328,-43.188ZM2.445,-38.656L3.221,-39.793L3.221,-38.656L2.445,-38.656ZM-37.776,22.883L-35.202,17.626L-37.988,17.626L-37.988,15.793L-32.781,15.793L-32.81,16.911L-36.122,23.685L-37.776,22.883ZM-5.413,41.135C-5.256,40.974 -5.18,40.772 -5.18,40.513C-5.18,40.259 -5.25,40.06 -5.394,39.907C-5.606,39.68 -5.867,39.606 -6.187,39.764C-6.3,39.822 -6.416,39.913 -6.529,40.034L-6.645,40.154L-8.177,39.812L-7.215,35.396L-3.385,35.396L-3.385,37.211L-5.743,37.211L-5.888,37.847L-5.809,37.847C-5.09,37.847 -4.483,38.095 -4.006,38.587C-3.529,39.07 -3.288,39.702 -3.288,40.459C-3.288,41.222 -3.552,41.872 -4.073,42.396C-4.599,42.923 -5.241,43.188 -5.99,43.188C-6.653,43.188 -7.234,42.996 -7.72,42.615C-8.204,42.23 -8.524,41.704 -8.671,41.048L-8.75,40.698L-6.803,40.698L-6.721,40.857C-6.636,41.031 -6.526,41.156 -6.391,41.245C-6.097,41.436 -5.671,41.404 -5.413,41.135ZM-6.309,3.263C-5.823,2.784 -5.577,2.191 -5.577,1.501C-5.577,0.789 -5.815,0.185 -6.288,-0.297C-6.653,-0.665 -7.078,-0.896 -7.565,-0.984L-6.396,-3.254L-8.056,-4.083L-10,-0.289C-10.239,0.175 -10.401,0.533 -10.471,0.776C-10.544,1.015 -10.58,1.266 -10.58,1.516C-10.58,2.16 -10.341,2.736 -9.866,3.232C-9.387,3.731 -8.783,3.984 -8.07,3.984C-7.384,3.984 -6.791,3.741 -6.309,3.263ZM-8.69,1.482C-8.69,1.285 -8.631,1.127 -8.513,1C-8.4,0.879 -8.267,0.819 -8.098,0.819C-7.913,0.819 -7.768,0.879 -7.652,1.003C-7.528,1.13 -7.469,1.282 -7.469,1.482C-7.469,1.682 -7.531,1.843 -7.652,1.969C-7.897,2.217 -8.244,2.235 -8.504,1.966C-8.628,1.836 -8.69,1.68 -8.69,1.482ZM32.6,23.407L32.6,21.964L33.227,21.964L33.227,20.148L32.6,20.148L32.6,15.615L30.817,15.615L27.677,20.276L27.629,20.349L27.629,21.964L30.711,21.964L30.711,23.407L32.6,23.407ZM29.934,20.148L30.711,19.011L30.711,20.148L29.934,20.148ZM-12.068,3.691C-11.679,3.49 -11.363,3.193 -11.134,2.805C-10.906,2.413 -10.789,1.984 -10.789,1.531C-10.789,1.112 -10.889,0.717 -11.086,0.354C-11.233,0.086 -11.422,-0.148 -11.656,-0.344C-11.494,-0.543 -11.377,-0.728 -11.301,-0.906C-11.191,-1.153 -11.137,-1.43 -11.137,-1.723C-11.137,-2.13 -11.241,-2.515 -11.445,-2.867C-11.656,-3.227 -11.941,-3.507 -12.297,-3.698C-13.011,-4.084 -14.058,-4.076 -14.766,-3.701C-15.133,-3.511 -15.424,-3.237 -15.627,-2.891C-15.832,-2.544 -15.934,-2.158 -15.934,-1.742C-15.934,-1.432 -15.871,-1.137 -15.75,-0.862C-15.669,-0.678 -15.562,-0.503 -15.424,-0.331C-15.662,-0.115 -15.853,0.125 -15.99,0.386C-16.174,0.733 -16.265,1.121 -16.265,1.531C-16.265,2.008 -16.152,2.444 -15.923,2.831C-15.692,3.219 -15.381,3.512 -14.994,3.706C-14.618,3.892 -14.119,3.984 -13.51,3.984C-12.935,3.984 -12.448,3.886 -12.068,3.691ZM-13.191,-1.263C-13.375,-1.074 -13.701,-1.068 -13.891,-1.263C-13.989,-1.364 -14.037,-1.483 -14.037,-1.632C-14.037,-1.784 -13.995,-1.894 -13.903,-1.987C-13.818,-2.077 -13.711,-2.118 -13.57,-2.118C-13.406,-2.118 -13.284,-2.077 -13.189,-1.984C-13.098,-1.899 -13.056,-1.79 -13.056,-1.641C-13.056,-1.477 -13.101,-1.355 -13.191,-1.263ZM-14.14,0.927C-13.973,0.777 -13.767,0.706 -13.516,0.706C-13.273,0.706 -13.078,0.778 -12.921,0.922C-12.768,1.069 -12.695,1.235 -12.695,1.443C-12.695,1.651 -12.763,1.811 -12.906,1.94C-13.197,2.211 -13.849,2.217 -14.151,1.927C-14.303,1.783 -14.373,1.619 -14.373,1.414C-14.373,1.225 -14.298,1.069 -14.14,0.927ZM4.392,43.01L4.392,37.228L2.711,37.228L3.843,35.396L6.301,35.396L6.301,43.01L4.392,43.01ZM-19.087,37.698C-19.492,38.101 -19.693,38.59 -19.693,39.193C-19.693,39.611 -19.603,39.984 -19.425,40.302C-19.244,40.623 -18.995,40.868 -18.666,41.05C-18.059,41.391 -17.23,41.405 -16.612,41.133C-16.323,41.004 -15.993,40.755 -15.632,40.397L-15.424,40.193L-14.111,41.555L-14.315,41.754C-14.87,42.298 -15.384,42.662 -15.884,42.87C-16.38,43.081 -16.949,43.188 -17.582,43.188C-18.754,43.188 -19.73,42.81 -20.481,42.064C-21.231,41.32 -21.612,40.352 -21.612,39.19C-21.612,38.438 -21.44,37.76 -21.096,37.174C-20.757,36.589 -20.26,36.111 -19.622,35.753C-18.457,35.098 -17.024,35.038 -15.765,35.612C-15.187,35.875 -14.684,36.251 -14.269,36.732L-14.092,36.94L-15.441,38.221L-15.638,38.01C-16.225,37.391 -16.863,37.09 -17.585,37.09C-18.183,37.09 -18.675,37.291 -19.087,37.698ZM-11.41,43.188C-10.725,43.188 -10.132,42.944 -9.65,42.466C-9.164,41.987 -8.919,41.394 -8.919,40.704C-8.919,39.991 -9.156,39.387 -9.63,38.904C-9.993,38.537 -10.42,38.307 -10.906,38.219L-9.737,35.949L-11.397,35.12L-13.341,38.914C-13.58,39.378 -13.741,39.735 -13.812,39.978C-13.886,40.217 -13.922,40.469 -13.922,40.719C-13.922,41.363 -13.682,41.94 -13.207,42.435C-12.729,42.934 -12.125,43.188 -11.41,43.188ZM-12.031,40.685C-12.031,40.486 -11.972,40.33 -11.854,40.203C-11.74,40.082 -11.608,40.023 -11.439,40.023C-11.256,40.023 -11.109,40.082 -10.992,40.206C-10.868,40.333 -10.81,40.485 -10.81,40.685C-10.81,40.884 -10.871,41.045 -10.992,41.172C-11.239,41.419 -11.586,41.439 -11.845,41.169C-11.97,41.039 -12.031,40.882 -12.031,40.685ZM8.402,42.483L10.976,37.228L8.19,37.228L8.19,35.396L13.397,35.396L13.369,36.513L10.056,43.286L8.402,42.483ZM-0.552,0.281C-0.306,-0.194 -0.151,-0.54 -0.08,-0.776C-0.007,-1.014 0.029,-1.261 0.029,-1.515C0.029,-2.161 -0.211,-2.741 -0.685,-3.234C-1.163,-3.732 -1.768,-3.984 -2.485,-3.984C-3.168,-3.984 -3.761,-3.743 -4.242,-3.266C-4.728,-2.786 -4.974,-2.192 -4.974,-1.497C-4.974,-0.787 -4.737,-0.184 -4.263,0.297C-3.899,0.669 -3.467,0.899 -2.982,0.985L-4.156,3.258L-2.495,4.083L-0.552,0.281ZM-1.861,-1.479C-1.861,-1.285 -1.921,-1.13 -2.038,-1C-2.279,-0.747 -2.671,-0.771 -2.9,-1.007C-3.024,-1.135 -3.082,-1.289 -3.082,-1.483C-3.082,-1.681 -3.021,-1.841 -2.897,-1.968C-2.77,-2.095 -2.632,-2.156 -2.46,-2.156C-2.302,-2.156 -2.172,-2.095 -2.048,-1.968C-1.921,-1.835 -1.861,-1.68 -1.861,-1.479ZM-10.913,-7.87C-10.756,-8.031 -10.68,-8.233 -10.68,-8.492C-10.68,-8.746 -10.75,-8.946 -10.894,-9.099C-11.106,-9.323 -11.365,-9.399 -11.687,-9.241C-11.8,-9.182 -11.916,-9.092 -12.029,-8.971L-12.145,-8.849L-13.677,-9.193L-12.715,-13.609L-8.885,-13.609L-8.885,-11.794L-11.243,-11.794L-11.388,-11.158L-11.309,-11.158C-10.59,-11.158 -9.983,-10.911 -9.506,-10.418C-9.029,-9.934 -8.788,-9.304 -8.788,-8.546C-8.788,-7.783 -9.052,-7.134 -9.573,-6.609C-10.099,-6.083 -10.741,-5.818 -11.489,-5.818C-12.153,-5.818 -12.734,-6.01 -13.22,-6.39C-13.704,-6.775 -14.024,-7.303 -14.171,-7.958L-14.25,-8.307L-12.303,-8.307L-12.221,-8.148C-12.136,-7.973 -12.026,-7.848 -11.891,-7.76C-11.594,-7.565 -11.171,-7.598 -10.913,-7.87ZM30.456,9.87C30.456,10.844 30.563,11.579 30.783,12.116C31.007,12.671 31.328,13.091 31.737,13.37C32.149,13.646 32.651,13.786 33.238,13.786C33.831,13.786 34.33,13.646 34.722,13.37C35.115,13.094 35.431,12.666 35.656,12.094C35.88,11.53 35.987,10.782 35.987,9.803C35.987,8.846 35.88,8.083 35.662,7.534C35.439,6.96 35.112,6.526 34.694,6.245C34.274,5.96 33.771,5.818 33.199,5.818C32.312,5.818 31.607,6.18 31.102,6.898C30.668,7.537 30.456,8.511 30.456,9.87ZM32.375,9.899C32.375,9.243 32.421,8.744 32.505,8.418C32.581,8.125 32.685,7.922 32.815,7.815C32.933,7.717 33.072,7.667 33.23,7.667C33.373,7.667 33.589,7.708 33.795,8.052C33.918,8.26 34.068,8.735 34.068,9.819C34.068,10.676 33.964,11.285 33.758,11.625C33.577,11.929 33.38,11.969 33.23,11.969C33.08,11.969 32.86,11.929 32.651,11.594C32.524,11.394 32.375,10.937 32.375,9.899ZM-35.567,-33.488L-37.511,-29.693C-37.75,-29.228 -37.911,-28.871 -37.982,-28.629C-38.056,-28.39 -38.092,-28.14 -38.092,-27.889C-38.092,-27.244 -37.852,-26.667 -37.378,-26.171C-36.899,-25.673 -36.295,-25.42 -35.58,-25.42C-34.895,-25.42 -34.302,-25.662 -33.82,-26.14C-33.335,-26.619 -33.089,-27.213 -33.089,-27.902C-33.089,-28.615 -33.325,-29.221 -33.8,-29.701C-34.163,-30.07 -34.59,-30.302 -35.075,-30.389L-33.906,-32.657L-35.567,-33.488ZM-34.98,-27.922C-34.98,-27.723 -35.041,-27.562 -35.162,-27.435C-35.411,-27.19 -35.756,-27.168 -36.015,-27.438C-36.14,-27.567 -36.201,-27.725 -36.201,-27.922C-36.201,-28.119 -36.142,-28.277 -36.024,-28.404C-35.91,-28.525 -35.778,-28.584 -35.609,-28.584C-35.426,-28.584 -35.279,-28.525 -35.162,-28.401C-35.038,-28.274 -34.98,-28.122 -34.98,-27.922ZM-34.963,-7.843C-34.813,-7.989 -34.74,-8.163 -34.74,-8.374C-34.74,-8.605 -34.839,-8.791 -35.047,-8.957C-35.276,-9.138 -35.619,-9.23 -36.076,-9.236L-36.362,-9.237L-36.362,-10.939L-36.097,-10.958C-35.741,-10.987 -35.561,-11.04 -35.474,-11.082C-35.365,-11.134 -35.281,-11.203 -35.222,-11.291C-35.166,-11.375 -35.138,-11.46 -35.138,-11.547C-35.138,-11.659 -35.174,-11.741 -35.25,-11.814C-35.299,-11.859 -35.389,-11.924 -35.58,-11.924C-35.713,-11.924 -35.823,-11.886 -35.931,-11.807C-36.034,-11.727 -36.109,-11.626 -36.151,-11.499L-36.213,-11.299L-38.044,-11.299L-38.002,-11.622C-37.926,-12.205 -37.709,-12.682 -37.359,-13.039C-36.872,-13.537 -36.261,-13.788 -35.535,-13.788C-34.887,-13.788 -34.33,-13.575 -33.882,-13.159C-33.43,-12.739 -33.204,-12.228 -33.204,-11.643C-33.204,-11.274 -33.306,-10.932 -33.51,-10.625C-33.611,-10.473 -33.735,-10.335 -33.885,-10.211C-33.636,-10.071 -33.43,-9.89 -33.261,-9.666C-32.982,-9.298 -32.841,-8.861 -32.841,-8.369C-32.841,-7.659 -33.106,-7.048 -33.631,-6.557C-34.15,-6.066 -34.816,-5.818 -35.612,-5.818C-36.373,-5.818 -37.003,-6.053 -37.488,-6.516C-37.974,-6.981 -38.241,-7.613 -38.283,-8.393L-38.301,-8.698L-36.419,-8.698L-36.382,-8.456C-36.337,-8.16 -36.238,-7.946 -36.092,-7.814C-35.809,-7.553 -35.265,-7.556 -34.963,-7.843ZM-18.59,-39.965C-18.44,-40.247 -18.361,-40.497 -18.361,-40.708C-18.361,-40.9 -18.423,-41.056 -18.548,-41.177C-18.799,-41.423 -19.267,-41.443 -19.547,-41.134C-19.693,-40.971 -19.769,-40.739 -19.781,-40.447L-19.788,-40.168L-21.68,-40.168L-21.666,-40.47C-21.629,-41.297 -21.361,-41.968 -20.864,-42.454C-20.364,-42.941 -19.724,-43.188 -18.957,-43.188C-18.48,-43.188 -18.051,-43.087 -17.684,-42.885C-17.311,-42.682 -17.01,-42.381 -16.783,-41.992C-16.564,-41.612 -16.45,-41.215 -16.45,-40.813C-16.45,-40.356 -16.58,-39.861 -16.837,-39.337C-17.089,-38.831 -17.531,-38.248 -18.195,-37.556L-18.525,-37.209L-16.394,-37.209L-16.394,-35.396L-21.858,-35.396L-21.858,-36.444L-19.594,-38.749C-19.084,-39.262 -18.747,-39.672 -18.59,-39.965ZM-16.9,-13.887L-18.844,-10.091C-19.084,-9.627 -19.244,-9.268 -19.315,-9.026C-19.388,-8.787 -19.425,-8.536 -19.425,-8.286C-19.425,-7.641 -19.185,-7.065 -18.711,-6.57C-18.231,-6.071 -17.628,-5.818 -16.913,-5.818C-16.228,-5.818 -15.635,-6.06 -15.153,-6.539C-14.666,-7.017 -14.422,-7.611 -14.422,-8.302C-14.422,-9.014 -14.658,-9.617 -15.133,-10.099C-15.496,-10.469 -15.923,-10.698 -16.407,-10.786L-15.239,-13.057L-16.9,-13.887ZM-16.313,-8.32C-16.313,-8.12 -16.375,-7.959 -16.495,-7.833C-16.739,-7.585 -17.089,-7.566 -17.348,-7.836C-17.472,-7.966 -17.533,-8.123 -17.533,-8.32C-17.533,-8.517 -17.475,-8.675 -17.357,-8.802C-17.243,-8.922 -17.111,-8.982 -16.942,-8.982C-16.758,-8.982 -16.612,-8.922 -16.495,-8.799C-16.371,-8.672 -16.313,-8.52 -16.313,-8.32ZM-19.058,25.319L-21.003,29.113C-21.241,29.579 -21.403,29.937 -21.474,30.18C-21.547,30.419 -21.584,30.668 -21.584,30.919C-21.584,31.564 -21.344,32.141 -20.869,32.636C-20.39,33.134 -19.785,33.388 -19.072,33.388C-18.387,33.388 -17.794,33.146 -17.311,32.667C-16.825,32.189 -16.58,31.595 -16.58,30.904C-16.58,30.193 -16.818,29.588 -17.291,29.107C-17.656,28.737 -18.082,28.506 -18.567,28.419L-17.399,26.151L-19.058,25.319ZM-18.471,30.885C-18.471,31.085 -18.532,31.245 -18.655,31.372C-18.897,31.62 -19.25,31.641 -19.507,31.37C-19.631,31.24 -19.693,31.082 -19.693,30.885C-19.693,30.688 -19.634,30.53 -19.515,30.404C-19.403,30.283 -19.27,30.224 -19.101,30.224C-18.916,30.224 -18.77,30.282 -18.655,30.406C-18.531,30.532 -18.471,30.685 -18.471,30.885ZM-37.977,12.116C-37.754,12.671 -37.432,13.091 -37.023,13.37C-36.611,13.646 -36.109,13.786 -35.522,13.786C-34.929,13.786 -34.429,13.646 -34.036,13.37C-33.645,13.094 -33.328,12.666 -33.103,12.094C-33.004,11.847 -32.931,11.566 -32.875,11.245L-32.875,12.165L-29.793,12.165L-29.793,13.609L-27.902,13.609L-27.902,12.165L-27.276,12.165L-27.276,10.349L-27.902,10.349L-27.902,5.818L-29.686,5.818L-32.786,10.417C-32.776,10.222 -32.773,10.02 -32.773,9.803C-32.773,8.846 -32.88,8.083 -33.097,7.534C-33.32,6.96 -33.648,6.526 -34.065,6.245C-34.486,5.96 -34.988,5.818 -35.561,5.818C-36.447,5.818 -37.153,6.18 -37.657,6.898C-38.092,7.537 -38.304,8.511 -38.304,9.87C-38.304,10.844 -38.197,11.579 -37.977,12.116ZM-30.569,10.349L-29.793,9.212L-29.793,10.349L-30.569,10.349ZM-36.385,9.899C-36.385,9.243 -36.34,8.744 -36.255,8.418C-36.179,8.125 -36.074,7.922 -35.945,7.815C-35.825,7.717 -35.688,7.667 -35.53,7.667C-35.386,7.667 -35.172,7.708 -34.966,8.052C-34.841,8.26 -34.692,8.735 -34.692,9.819C-34.692,10.676 -34.796,11.285 -35.002,11.625C-35.183,11.929 -35.38,11.969 -35.53,11.969C-35.68,11.969 -35.9,11.929 -36.109,11.594C-36.235,11.394 -36.385,10.937 -36.385,9.899ZM-19.058,-4.083L-21.003,-0.289C-21.241,0.175 -21.403,0.533 -21.474,0.776C-21.547,1.015 -21.584,1.266 -21.584,1.516C-21.584,2.16 -21.344,2.736 -20.869,3.232C-20.39,3.731 -19.785,3.984 -19.072,3.984C-18.387,3.984 -17.794,3.741 -17.311,3.263C-16.825,2.784 -16.58,2.191 -16.58,1.501C-16.58,0.789 -16.818,0.185 -17.291,-0.297C-17.656,-0.665 -18.082,-0.896 -18.567,-0.984L-17.399,-3.254L-19.058,-4.083ZM-18.471,1.482C-18.471,1.682 -18.532,1.843 -18.655,1.969C-18.897,2.217 -19.25,2.235 -19.507,1.966C-19.631,1.836 -19.693,1.68 -19.693,1.482C-19.693,1.285 -19.634,1.127 -19.515,1C-19.403,0.879 -19.27,0.819 -19.101,0.819C-18.916,0.819 -18.77,0.879 -18.655,1.003C-18.531,1.13 -18.471,1.282 -18.471,1.482ZM-24.505,-15.518L-22.56,-19.319C-22.315,-19.795 -22.159,-20.141 -22.089,-20.378C-22.016,-20.614 -21.979,-20.862 -21.979,-21.115C-21.979,-21.764 -22.219,-22.344 -22.693,-22.835C-23.173,-23.334 -23.777,-23.587 -24.492,-23.587C-25.176,-23.587 -25.769,-23.346 -26.25,-22.866C-26.737,-22.389 -26.982,-21.794 -26.982,-21.099C-26.982,-20.39 -26.744,-19.787 -26.271,-19.306C-25.906,-18.934 -25.475,-18.703 -24.99,-18.615L-26.163,-16.345L-24.505,-15.518ZM-25.092,-21.084C-25.092,-21.281 -25.03,-21.442 -24.905,-21.569C-24.778,-21.695 -24.64,-21.757 -24.468,-21.757C-24.31,-21.757 -24.18,-21.695 -24.056,-21.569C-23.929,-21.436 -23.869,-21.281 -23.869,-21.082C-23.869,-20.888 -23.929,-20.732 -24.047,-20.603C-24.286,-20.352 -24.68,-20.372 -24.907,-20.609C-25.031,-20.735 -25.092,-20.89 -25.092,-21.084ZM9.037,-17.641C9.187,-17.788 9.26,-17.962 9.26,-18.175C9.26,-18.404 9.161,-18.59 8.952,-18.756C8.724,-18.936 8.381,-19.029 7.923,-19.035L7.637,-19.038L7.637,-20.738L7.903,-20.759C8.259,-20.786 8.439,-20.839 8.526,-20.882C8.634,-20.932 8.719,-21.003 8.777,-21.09C8.834,-21.175 8.862,-21.26 8.862,-21.347C8.862,-21.459 8.825,-21.54 8.75,-21.614C8.701,-21.659 8.611,-21.724 8.42,-21.724C8.286,-21.724 8.177,-21.684 8.069,-21.605C7.966,-21.526 7.891,-21.426 7.849,-21.298L7.787,-21.099L5.955,-21.099L5.998,-21.422C6.074,-22.005 6.291,-22.481 6.641,-22.838C7.128,-23.336 7.739,-23.587 8.465,-23.587C9.113,-23.587 9.67,-23.376 10.118,-22.959C10.569,-22.54 10.796,-22.027 10.796,-21.442C10.796,-21.073 10.694,-20.732 10.49,-20.427C10.389,-20.274 10.265,-20.137 10.115,-20.013C10.363,-19.871 10.569,-19.688 10.739,-19.467C11.018,-19.095 11.159,-18.661 11.159,-18.168C11.159,-17.458 10.894,-16.848 10.369,-16.354C9.85,-15.864 9.184,-15.617 8.388,-15.617C7.627,-15.617 6.997,-15.85 6.511,-16.315C6.026,-16.779 5.759,-17.413 5.717,-18.193L5.699,-18.497L7.581,-18.497L7.618,-18.255C7.663,-17.96 7.762,-17.745 7.905,-17.612C8.193,-17.351 8.735,-17.352 9.037,-17.641ZM-32.773,-27.872C-32.773,-27.396 -32.659,-26.959 -32.432,-26.574C-32.199,-26.185 -31.89,-25.893 -31.503,-25.698C-31.128,-25.513 -30.628,-25.42 -30.019,-25.42C-29.443,-25.42 -28.957,-25.518 -28.576,-25.712C-28.187,-25.912 -27.87,-26.211 -27.643,-26.599C-27.413,-26.99 -27.298,-27.418 -27.298,-27.872C-27.298,-28.291 -27.397,-28.688 -27.595,-29.052C-27.74,-29.318 -27.931,-29.553 -28.164,-29.746C-28.004,-29.946 -27.885,-30.132 -27.809,-30.309C-27.698,-30.557 -27.646,-30.833 -27.646,-31.126C-27.646,-31.534 -27.75,-31.92 -27.952,-32.272C-28.164,-32.632 -28.449,-32.911 -28.805,-33.102C-29.522,-33.488 -30.569,-33.479 -31.275,-33.105C-31.641,-32.913 -31.932,-32.641 -32.135,-32.294C-32.341,-31.948 -32.443,-31.562 -32.443,-31.145C-32.443,-30.836 -32.381,-30.54 -32.259,-30.267C-32.178,-30.081 -32.07,-29.907 -31.932,-29.735C-32.172,-29.518 -32.361,-29.279 -32.498,-29.017C-32.683,-28.671 -32.773,-28.283 -32.773,-27.872ZM-29.699,-30.667C-29.886,-30.478 -30.211,-30.474 -30.4,-30.667C-30.497,-30.768 -30.546,-30.888 -30.546,-31.036C-30.546,-31.188 -30.504,-31.298 -30.41,-31.39C-30.325,-31.48 -30.219,-31.523 -30.077,-31.523C-29.913,-31.523 -29.793,-31.48 -29.697,-31.389C-29.607,-31.304 -29.564,-31.193 -29.564,-31.044C-29.564,-30.881 -29.61,-30.761 -29.699,-30.667ZM-30.024,-28.699C-29.781,-28.699 -29.587,-28.626 -29.429,-28.482C-29.277,-28.336 -29.202,-28.17 -29.202,-27.962C-29.202,-27.753 -29.271,-27.594 -29.414,-27.463C-29.705,-27.196 -30.357,-27.187 -30.658,-27.477C-30.812,-27.621 -30.882,-27.784 -30.882,-27.99C-30.882,-28.179 -30.806,-28.333 -30.648,-28.477C-30.482,-28.626 -30.276,-28.699 -30.024,-28.699ZM-30.064,-23.685L-32.008,-19.891C-32.247,-19.427 -32.408,-19.069 -32.48,-18.827C-32.553,-18.587 -32.59,-18.337 -32.59,-18.086C-32.59,-17.442 -32.35,-16.865 -31.875,-16.369C-31.396,-15.871 -30.791,-15.617 -30.077,-15.617C-29.392,-15.617 -28.8,-15.86 -28.317,-16.338C-27.832,-16.817 -27.586,-17.411 -27.586,-18.1C-27.586,-18.813 -27.823,-19.418 -28.297,-19.899C-28.66,-20.268 -29.088,-20.499 -29.573,-20.586L-28.405,-22.855L-30.064,-23.685ZM-29.477,-18.12C-29.477,-17.92 -29.538,-17.761 -29.659,-17.634C-29.906,-17.389 -30.253,-17.366 -30.513,-17.637C-30.637,-17.765 -30.698,-17.923 -30.698,-18.12C-30.698,-18.317 -30.64,-18.475 -30.521,-18.601C-30.407,-18.723 -30.276,-18.782 -30.106,-18.782C-29.923,-18.782 -29.776,-18.723 -29.659,-18.599C-29.535,-18.473 -29.477,-18.32 -29.477,-18.12ZM-24.093,9.04C-23.943,8.759 -23.864,8.508 -23.864,8.297C-23.864,8.105 -23.926,7.951 -24.05,7.831C-24.301,7.583 -24.77,7.562 -25.049,7.872C-25.196,8.034 -25.272,8.267 -25.283,8.56L-25.291,8.837L-27.183,8.837L-27.169,8.536C-27.132,7.708 -26.864,7.039 -26.366,6.552C-25.867,6.065 -25.227,5.818 -24.46,5.818C-23.983,5.818 -23.554,5.918 -23.187,6.121C-22.814,6.322 -22.512,6.625 -22.286,7.013C-22.067,7.393 -21.953,7.79 -21.953,8.193C-21.953,8.649 -22.082,9.144 -22.34,9.668C-22.591,10.174 -23.033,10.757 -23.698,11.449L-24.028,11.797L-21.897,11.797L-21.897,13.609L-27.36,13.609L-27.36,12.562L-25.097,10.256C-24.587,9.744 -24.25,9.333 -24.093,9.04ZM-24.561,-33.488L-26.505,-29.693C-26.744,-29.228 -26.906,-28.871 -26.977,-28.629C-27.05,-28.39 -27.087,-28.14 -27.087,-27.889C-27.087,-27.244 -26.847,-26.667 -26.372,-26.171C-25.893,-25.673 -25.288,-25.42 -24.574,-25.42C-23.889,-25.42 -23.297,-25.662 -22.814,-26.14C-22.328,-26.619 -22.082,-27.213 -22.082,-27.902C-22.082,-28.615 -22.32,-29.221 -22.795,-29.701C-23.158,-30.07 -23.585,-30.302 -24.07,-30.389L-22.902,-32.657L-24.561,-33.488ZM-23.974,-27.922C-23.974,-27.723 -24.035,-27.562 -24.157,-27.435C-24.403,-27.19 -24.75,-27.168 -25.01,-27.438C-25.134,-27.567 -25.196,-27.725 -25.196,-27.922C-25.196,-28.119 -25.137,-28.277 -25.018,-28.404C-24.905,-28.525 -24.773,-28.584 -24.603,-28.584C-24.42,-28.584 -24.273,-28.525 -24.157,-28.401C-24.032,-28.274 -23.974,-28.122 -23.974,-27.922ZM-32.273,3.279L-29.699,-1.974L-32.485,-1.974L-32.485,-3.807L-27.279,-3.807L-27.307,-2.69L-30.619,4.083L-32.273,3.279ZM-27.115,-9.815C-27.115,-10.567 -26.943,-11.246 -26.599,-11.831C-26.26,-12.417 -25.763,-12.895 -25.125,-13.253C-23.963,-13.909 -22.524,-13.969 -21.268,-13.393C-20.689,-13.132 -20.187,-12.754 -19.772,-12.273L-19.594,-12.065L-20.943,-10.784L-21.141,-10.995C-21.728,-11.614 -22.365,-11.916 -23.088,-11.916C-23.686,-11.916 -24.177,-11.715 -24.589,-11.307C-24.995,-10.904 -25.196,-10.414 -25.196,-9.812C-25.196,-9.392 -25.106,-9.021 -24.928,-8.703C-24.746,-8.383 -24.498,-8.139 -24.169,-7.955C-23.562,-7.614 -22.732,-7.602 -22.114,-7.872C-21.826,-8.002 -21.495,-8.25 -21.135,-8.608L-20.926,-8.812L-19.614,-7.451L-19.817,-7.25C-20.372,-6.707 -20.887,-6.345 -21.386,-6.137C-21.883,-5.926 -22.452,-5.818 -23.085,-5.818C-24.256,-5.818 -25.233,-6.194 -25.983,-6.94C-26.734,-7.683 -27.115,-8.653 -27.115,-9.815ZM-18.786,13.609L-16.897,13.609L-16.897,12.165L-16.27,12.165L-16.27,10.349L-16.897,10.349L-16.897,5.818L-18.68,5.818L-21.821,10.477L-21.868,10.549L-21.868,12.165L-18.786,12.165L-18.786,13.609ZM-19.563,10.349L-18.786,9.212L-18.786,10.349L-19.563,10.349ZM-31.875,-6.57C-31.396,-6.071 -30.791,-5.818 -30.077,-5.818C-29.392,-5.818 -28.8,-6.06 -28.317,-6.539C-27.832,-7.017 -27.586,-7.611 -27.586,-8.302C-27.586,-9.014 -27.823,-9.617 -28.297,-10.099C-28.66,-10.469 -29.088,-10.698 -29.573,-10.786L-28.405,-13.057L-30.064,-13.887L-32.008,-10.091C-32.247,-9.627 -32.408,-9.268 -32.48,-9.026C-32.553,-8.787 -32.59,-8.536 -32.59,-8.286C-32.59,-7.641 -32.35,-7.065 -31.875,-6.57ZM-30.698,-8.32C-30.698,-8.517 -30.64,-8.675 -30.521,-8.802C-30.407,-8.922 -30.276,-8.982 -30.106,-8.982C-29.923,-8.982 -29.776,-8.922 -29.659,-8.799C-29.535,-8.672 -29.477,-8.52 -29.477,-8.32C-29.477,-8.12 -29.538,-7.959 -29.659,-7.833C-29.906,-7.585 -30.253,-7.566 -30.513,-7.836C-30.637,-7.966 -30.698,-8.123 -30.698,-8.32ZM-20.496,23.307C-20.121,23.493 -19.622,23.586 -19.013,23.586C-18.437,23.586 -17.951,23.486 -17.571,23.293C-17.182,23.093 -16.865,22.795 -16.637,22.405C-16.407,22.015 -16.293,21.587 -16.293,21.134C-16.293,20.714 -16.392,20.317 -16.589,19.954C-16.736,19.687 -16.925,19.453 -17.158,19.259C-16.997,19.059 -16.88,18.873 -16.804,18.695C-16.693,18.447 -16.64,18.172 -16.64,17.879C-16.64,17.471 -16.743,17.086 -16.947,16.734C-17.158,16.373 -17.444,16.095 -17.8,15.902C-18.514,15.518 -19.563,15.527 -20.269,15.901C-20.636,16.093 -20.926,16.364 -21.13,16.711C-21.336,17.057 -21.437,17.443 -21.437,17.859C-21.437,18.169 -21.375,18.465 -21.254,18.737C-21.172,18.924 -21.065,19.099 -20.926,19.271C-21.166,19.487 -21.355,19.726 -21.493,19.987C-21.677,20.334 -21.767,20.723 -21.767,21.134C-21.767,21.609 -21.654,22.046 -21.426,22.431C-21.195,22.819 -20.884,23.112 -20.496,23.307ZM-18.694,18.339C-18.881,18.527 -19.204,18.533 -19.394,18.339C-19.492,18.237 -19.541,18.119 -19.541,17.97C-19.541,17.817 -19.498,17.709 -19.405,17.615C-19.321,17.526 -19.213,17.482 -19.072,17.482C-18.908,17.482 -18.786,17.525 -18.691,17.618C-18.601,17.702 -18.559,17.812 -18.559,17.961C-18.559,18.124 -18.604,18.246 -18.694,18.339ZM-19.019,20.306C-18.776,20.306 -18.58,20.379 -18.423,20.523C-18.271,20.669 -18.198,20.835 -18.198,21.044C-18.198,21.252 -18.265,21.412 -18.408,21.542C-18.697,21.809 -19.352,21.818 -19.654,21.527C-19.806,21.384 -19.877,21.222 -19.877,21.016C-19.877,20.828 -19.8,20.672 -19.642,20.527C-19.476,20.379 -19.27,20.306 -19.019,20.306ZM-26.017,32.971C-25.605,33.247 -25.103,33.388 -24.516,33.388C-23.923,33.388 -23.424,33.247 -23.031,32.971C-22.639,32.694 -22.323,32.267 -22.098,31.695C-21.875,31.133 -21.767,30.385 -21.767,29.404C-21.767,28.447 -21.875,27.684 -22.092,27.135C-22.315,26.561 -22.642,26.128 -23.06,25.846C-23.48,25.562 -23.983,25.418 -24.555,25.418C-25.442,25.418 -26.147,25.781 -26.652,26.5C-27.087,27.139 -27.298,28.111 -27.298,29.472C-27.298,30.445 -27.191,31.182 -26.971,31.719C-26.747,32.274 -26.426,32.692 -26.017,32.971ZM-25.379,29.5C-25.379,28.844 -25.334,28.346 -25.25,28.019C-25.173,27.727 -25.069,27.524 -24.939,27.417C-24.821,27.318 -24.682,27.268 -24.524,27.268C-24.38,27.268 -24.166,27.31 -23.96,27.652C-23.836,27.861 -23.686,28.339 -23.686,29.422C-23.686,30.277 -23.791,30.886 -23.996,31.227C-24.177,31.53 -24.375,31.568 -24.524,31.568C-24.674,31.568 -24.894,31.529 -25.103,31.194C-25.23,30.995 -25.379,30.539 -25.379,29.5ZM-37.977,-17.286C-37.754,-16.731 -37.432,-16.313 -37.023,-16.034C-36.611,-15.759 -36.109,-15.617 -35.522,-15.617C-34.929,-15.617 -34.429,-15.759 -34.036,-16.034C-33.645,-16.31 -33.328,-16.738 -33.103,-17.309C-32.88,-17.872 -32.773,-18.621 -32.773,-19.601C-32.773,-20.558 -32.88,-21.321 -33.097,-21.87C-33.32,-22.444 -33.648,-22.878 -34.065,-23.159C-34.486,-23.443 -34.988,-23.587 -35.561,-23.587C-36.447,-23.587 -37.153,-23.224 -37.657,-22.506C-38.092,-21.867 -38.304,-20.893 -38.304,-19.533C-38.304,-18.559 -38.197,-17.823 -37.977,-17.286ZM-36.385,-19.505C-36.385,-20.161 -36.34,-20.659 -36.255,-20.986C-36.179,-21.279 -36.074,-21.481 -35.945,-21.588C-35.825,-21.687 -35.688,-21.737 -35.53,-21.737C-35.386,-21.737 -35.172,-21.695 -34.966,-21.352C-34.841,-21.143 -34.692,-20.668 -34.692,-19.584C-34.692,-18.728 -34.796,-18.12 -35.002,-17.779C-35.183,-17.475 -35.38,-17.435 -35.53,-17.435C-35.68,-17.435 -35.9,-17.475 -36.109,-17.81C-36.235,-18.011 -36.385,-18.467 -36.385,-19.505ZM-37.977,2.315C-37.754,2.869 -37.432,3.29 -37.023,3.568C-36.611,3.844 -36.109,3.984 -35.522,3.984C-34.929,3.984 -34.429,3.844 -34.036,3.568C-33.645,3.293 -33.328,2.863 -33.103,2.292C-32.88,1.729 -32.773,0.98 -32.773,0.001C-32.773,-0.956 -32.88,-1.72 -33.097,-2.268C-33.32,-2.844 -33.648,-3.275 -34.065,-3.557C-34.486,-3.842 -34.988,-3.984 -35.561,-3.984C-36.447,-3.984 -37.153,-3.622 -37.657,-2.904C-38.092,-2.266 -38.304,-1.291 -38.304,0.068C-38.304,1.042 -38.197,1.776 -37.977,2.315ZM-36.385,0.096C-36.385,-0.559 -36.34,-1.058 -36.255,-1.385C-36.179,-1.678 -36.074,-1.88 -35.945,-1.987C-35.825,-2.085 -35.688,-2.137 -35.53,-2.137C-35.386,-2.137 -35.172,-2.095 -34.966,-1.75C-34.841,-1.542 -34.692,-1.066 -34.692,0.018C-34.692,0.873 -34.796,1.481 -35.002,1.821C-35.183,2.126 -35.38,2.167 -35.53,2.167C-35.68,2.167 -35.9,2.127 -36.109,1.792C-36.235,1.592 -36.385,1.135 -36.385,0.096ZM-19.002,-25.321L-17.058,-29.121C-16.812,-29.598 -16.656,-29.943 -16.586,-30.181C-16.513,-30.416 -16.476,-30.664 -16.476,-30.917C-16.476,-31.565 -16.716,-32.145 -17.19,-32.638C-17.67,-33.137 -18.274,-33.39 -18.99,-33.39C-19.673,-33.39 -20.266,-33.147 -20.748,-32.668C-21.234,-32.19 -21.48,-31.597 -21.48,-30.901C-21.48,-30.191 -21.241,-29.589 -20.768,-29.107C-20.404,-28.736 -19.973,-28.505 -19.487,-28.418L-20.66,-26.146L-19.002,-25.321ZM-19.589,-30.888C-19.589,-31.084 -19.527,-31.244 -19.403,-31.371C-19.276,-31.497 -19.137,-31.559 -18.965,-31.559C-18.807,-31.559 -18.677,-31.497 -18.553,-31.371C-18.426,-31.238 -18.366,-31.084 -18.366,-30.885C-18.366,-30.689 -18.426,-30.535 -18.545,-30.405C-18.784,-30.152 -19.177,-30.171 -19.405,-30.411C-19.53,-30.537 -19.589,-30.692 -19.589,-30.888ZM-26.771,3.279L-24.197,-1.974L-26.982,-1.974L-26.982,-3.807L-21.776,-3.807L-21.804,-2.69L-25.116,4.083L-26.771,3.279ZM-21.48,-23.41L-16.273,-23.41L-16.301,-22.292L-19.614,-15.518L-21.268,-16.32L-18.694,-21.577L-21.48,-21.577L-21.48,-23.41ZM-27.4,33.211L-32.863,33.211L-32.863,32.164L-30.6,29.858C-30.089,29.345 -29.753,28.934 -29.595,28.642C-29.446,28.359 -29.366,28.109 -29.366,27.898C-29.366,27.707 -29.429,27.552 -29.553,27.431C-29.804,27.186 -30.273,27.165 -30.552,27.474C-30.698,27.638 -30.775,27.866 -30.785,28.159L-30.795,28.44L-32.685,28.44L-32.671,28.138C-32.635,27.31 -32.366,26.64 -31.869,26.152C-31.369,25.666 -30.73,25.418 -29.962,25.418C-29.485,25.418 -29.056,25.52 -28.69,25.722C-28.317,25.925 -28.015,26.227 -27.788,26.615C-27.569,26.996 -27.455,27.392 -27.455,27.794C-27.455,28.25 -27.586,28.746 -27.843,29.269C-28.094,29.776 -28.536,30.36 -29.199,31.052L-29.531,31.398L-27.4,31.398L-27.4,33.211ZM-27.307,16.911L-30.619,23.685L-32.273,22.883L-29.699,17.626L-32.485,17.626L-32.485,15.793L-27.279,15.793L-27.307,16.911ZM-24.561,15.518L-26.505,19.312C-26.744,19.776 -26.906,20.134 -26.977,20.376C-27.05,20.615 -27.087,20.865 -27.087,21.116C-27.087,21.761 -26.847,22.339 -26.372,22.834C-25.893,23.332 -25.288,23.586 -24.574,23.586C-23.889,23.586 -23.297,23.345 -22.814,22.865C-22.328,22.387 -22.082,21.792 -22.082,21.103C-22.082,20.39 -22.32,19.785 -22.795,19.305C-23.158,18.936 -23.585,18.704 -24.07,18.616L-22.902,16.349L-24.561,15.518ZM-23.974,21.083C-23.974,21.282 -24.035,21.443 -24.157,21.569C-24.403,21.815 -24.75,21.838 -25.01,21.568C-25.134,21.439 -25.196,21.279 -25.196,21.083C-25.196,20.886 -25.137,20.728 -25.018,20.602C-24.905,20.481 -24.773,20.422 -24.603,20.422C-24.42,20.422 -24.273,20.481 -24.157,20.604C-24.032,20.731 -23.974,20.883 -23.974,21.083ZM-32.903,-35.396L-38.365,-35.396L-38.365,-36.444L-36.103,-38.749C-35.592,-39.262 -35.256,-39.672 -35.098,-39.965C-34.948,-40.247 -34.869,-40.497 -34.869,-40.708C-34.869,-40.9 -34.932,-41.056 -35.056,-41.177C-35.31,-41.423 -35.776,-41.443 -36.055,-41.134C-36.201,-40.971 -36.278,-40.739 -36.288,-40.447L-36.298,-40.168L-38.188,-40.168L-38.174,-40.47C-38.137,-41.297 -37.868,-41.968 -37.372,-42.454C-36.872,-42.941 -36.233,-43.188 -35.465,-43.188C-34.988,-43.188 -34.559,-43.087 -34.192,-42.885C-33.82,-42.682 -33.518,-42.381 -33.291,-41.992C-33.072,-41.612 -32.959,-41.215 -32.959,-40.813C-32.959,-40.356 -33.089,-39.861 -33.346,-39.337C-33.597,-38.831 -34.039,-38.248 -34.702,-37.556L-35.032,-37.209L-32.903,-37.209L-32.903,-35.396ZM-29.699,-50.981L-32.485,-50.981L-32.485,-52.813L-27.279,-52.813L-27.307,-51.696L-30.619,-44.923L-32.273,-45.725L-29.699,-50.981ZM-35.202,-50.981L-37.988,-50.981L-37.988,-52.813L-32.781,-52.813L-32.81,-51.696L-36.122,-44.923L-37.776,-45.725L-35.202,-50.981ZM-31.986,42.488C-32.471,42.025 -32.739,41.391 -32.781,40.61L-32.798,40.307L-30.916,40.307L-30.879,40.549C-30.834,40.845 -30.736,41.059 -30.589,41.191C-30.304,41.453 -29.762,41.45 -29.46,41.164C-29.31,41.018 -29.237,40.842 -29.237,40.631C-29.237,40.4 -29.336,40.214 -29.545,40.048C-29.773,39.868 -30.117,39.776 -30.574,39.771L-30.86,39.767L-30.86,38.066L-30.594,38.047C-30.239,38.019 -30.058,37.965 -29.971,37.923C-29.864,37.872 -29.779,37.802 -29.72,37.715C-29.662,37.63 -29.635,37.546 -29.635,37.458C-29.635,37.346 -29.672,37.264 -29.747,37.191C-29.796,37.146 -29.886,37.081 -30.077,37.081C-30.211,37.081 -30.321,37.121 -30.428,37.198C-30.531,37.277 -30.606,37.38 -30.648,37.506L-30.71,37.706L-32.541,37.706L-32.498,37.383C-32.423,36.801 -32.205,36.323 -31.856,35.966C-31.369,35.468 -30.758,35.219 -30.032,35.219C-29.384,35.219 -28.827,35.429 -28.379,35.845C-27.931,36.265 -27.701,36.776 -27.701,37.362C-27.701,37.731 -27.804,38.071 -28.007,38.379C-28.108,38.53 -28.232,38.669 -28.382,38.793C-28.134,38.934 -27.928,39.116 -27.758,39.339C-27.479,39.708 -27.338,40.145 -27.338,40.638C-27.338,41.347 -27.603,41.957 -28.128,42.449C-28.647,42.939 -29.313,43.188 -30.109,43.188C-30.87,43.188 -31.5,42.953 -31.986,42.488ZM-35.58,43.188C-34.895,43.188 -34.302,42.944 -33.82,42.466C-33.335,41.987 -33.089,41.394 -33.089,40.704C-33.089,39.991 -33.325,39.387 -33.8,38.904C-34.163,38.537 -34.59,38.307 -35.075,38.219L-33.906,35.949L-35.567,35.12L-37.511,38.914C-37.75,39.378 -37.911,39.735 -37.982,39.978C-38.056,40.217 -38.092,40.469 -38.092,40.719C-38.092,41.363 -37.852,41.94 -37.378,42.435C-36.899,42.934 -36.295,43.188 -35.58,43.188ZM-36.201,40.685C-36.201,40.486 -36.142,40.33 -36.024,40.203C-35.91,40.082 -35.778,40.023 -35.609,40.023C-35.426,40.023 -35.279,40.082 -35.162,40.206C-35.038,40.333 -34.98,40.485 -34.98,40.685C-34.98,40.884 -35.041,41.045 -35.162,41.172C-35.411,41.419 -35.756,41.439 -36.015,41.169C-36.14,41.039 -36.201,40.882 -36.201,40.685ZM-37.988,45.196L-32.781,45.196L-32.81,46.315L-36.122,53.089L-37.776,52.286L-35.202,47.029L-37.988,47.029L-37.988,45.196ZM-24.574,-45.021C-23.889,-45.021 -23.297,-45.263 -22.814,-45.742C-22.328,-46.22 -22.082,-46.814 -22.082,-47.504C-22.082,-48.216 -22.32,-48.821 -22.795,-49.303C-23.158,-49.672 -23.585,-49.902 -24.07,-49.99L-22.902,-52.259L-24.561,-53.089L-26.505,-49.294C-26.744,-48.83 -26.906,-48.472 -26.977,-48.23C-27.05,-47.991 -27.087,-47.74 -27.087,-47.49C-27.087,-46.845 -26.847,-46.268 -26.372,-45.773C-25.893,-45.274 -25.288,-45.021 -24.574,-45.021ZM-25.196,-47.524C-25.196,-47.721 -25.137,-47.878 -25.018,-48.005C-24.905,-48.126 -24.773,-48.185 -24.603,-48.185C-24.42,-48.185 -24.273,-48.126 -24.157,-48.002C-24.032,-47.876 -23.974,-47.724 -23.974,-47.524C-23.974,-47.324 -24.035,-47.163 -24.157,-47.037C-24.403,-46.789 -24.75,-46.769 -25.01,-47.04C-25.134,-47.169 -25.196,-47.327 -25.196,-47.524ZM-37.39,32.816C-37.875,32.431 -38.194,31.903 -38.341,31.248L-38.42,30.899L-36.473,30.899L-36.391,31.057C-36.306,31.231 -36.196,31.358 -36.061,31.444C-35.767,31.64 -35.341,31.609 -35.084,31.336C-34.926,31.175 -34.85,30.973 -34.85,30.714C-34.85,30.461 -34.92,30.26 -35.064,30.108C-35.276,29.877 -35.537,29.81 -35.857,29.965C-35.97,30.024 -36.086,30.113 -36.198,30.234L-36.315,30.357L-37.847,30.013L-36.885,25.596L-33.055,25.596L-33.055,27.411L-35.413,27.411L-35.558,28.048L-35.479,28.048C-34.76,28.048 -34.153,28.296 -33.676,28.789C-33.198,29.273 -32.959,29.902 -32.959,30.659C-32.959,31.423 -33.222,32.072 -33.743,32.597C-34.269,33.123 -34.911,33.388 -35.659,33.388C-36.323,33.388 -36.904,33.195 -37.39,32.816ZM-27.595,-41.472C-27.818,-42.046 -28.145,-42.479 -28.563,-42.762C-28.983,-43.045 -29.485,-43.188 -30.058,-43.188C-30.944,-43.188 -31.65,-42.825 -32.155,-42.107C-32.59,-41.469 -32.801,-40.494 -32.801,-39.136C-32.801,-38.161 -32.694,-37.427 -32.474,-36.889C-32.25,-36.334 -31.929,-35.914 -31.52,-35.637C-31.108,-35.36 -30.606,-35.22 -30.019,-35.22C-29.426,-35.22 -28.927,-35.36 -28.533,-35.637C-28.142,-35.911 -27.825,-36.339 -27.6,-36.911C-27.502,-37.159 -27.428,-37.44 -27.371,-37.762L-27.371,-36.84L-24.289,-36.84L-24.289,-35.396L-22.399,-35.396L-22.399,-36.84L-21.773,-36.84L-21.773,-38.656L-22.399,-38.656L-22.399,-43.188L-24.183,-43.188L-27.283,-38.589C-27.273,-38.783 -27.27,-38.986 -27.27,-39.202C-27.27,-40.159 -27.377,-40.922 -27.595,-41.472ZM-29.189,-39.185C-29.189,-38.33 -29.294,-37.723 -29.498,-37.381C-29.68,-37.077 -29.878,-37.037 -30.027,-37.037C-30.177,-37.037 -30.397,-37.077 -30.606,-37.412C-30.733,-37.612 -30.882,-38.068 -30.882,-39.107C-30.882,-39.763 -30.837,-40.262 -30.752,-40.587C-30.676,-40.88 -30.572,-41.083 -30.442,-41.19C-30.323,-41.288 -30.185,-41.339 -30.027,-41.339C-29.883,-41.339 -29.669,-41.297 -29.463,-40.953C-29.339,-40.745 -29.189,-40.269 -29.189,-39.185ZM-25.066,-38.656L-24.289,-39.793L-24.289,-38.656L-25.066,-38.656ZM-5.326,-37.358L-5.406,-37.707L-3.459,-37.707L-3.377,-37.551C-3.291,-37.375 -3.182,-37.249 -3.047,-37.161C-2.753,-36.968 -2.326,-36.998 -2.07,-37.271C-1.911,-37.432 -1.836,-37.635 -1.836,-37.893C-1.836,-38.147 -1.906,-38.348 -2.05,-38.499C-2.262,-38.727 -2.522,-38.801 -2.843,-38.642C-2.955,-38.583 -3.072,-38.493 -3.185,-38.372L-3.301,-38.251L-4.832,-38.595L-3.87,-43.012L-0.041,-43.012L-0.041,-41.195L-2.4,-41.195L-2.544,-40.559L-2.465,-40.559C-1.745,-40.559 -1.139,-40.311 -0.661,-39.819C-0.185,-39.335 0.055,-38.704 0.055,-37.947C0.055,-37.184 -0.207,-36.534 -0.73,-36.011C-1.255,-35.484 -1.898,-35.22 -2.646,-35.22C-3.309,-35.22 -3.89,-35.41 -4.375,-35.79C-4.861,-36.177 -5.18,-36.702 -5.326,-37.358ZM-2.189,-50.981L-4.974,-50.981L-4.974,-52.813L0.233,-52.813L0.204,-51.696L-3.109,-44.923L-4.762,-45.725L-2.189,-50.981ZM-8.484,-48.019L-9.657,-45.747L-7.998,-44.923L-6.055,-48.723C-5.809,-49.199 -5.654,-49.545 -5.582,-49.781C-5.51,-50.018 -5.473,-50.266 -5.473,-50.519C-5.473,-51.166 -5.713,-51.746 -6.187,-52.239C-6.666,-52.737 -7.271,-52.991 -7.988,-52.991C-8.671,-52.991 -9.263,-52.749 -9.745,-52.27C-10.231,-51.791 -10.477,-51.197 -10.477,-50.502C-10.477,-49.793 -10.239,-49.19 -9.766,-48.709C-9.402,-48.337 -8.97,-48.106 -8.484,-48.019ZM-8.586,-50.488C-8.586,-50.685 -8.524,-50.846 -8.4,-50.972C-8.273,-51.099 -8.135,-51.161 -7.962,-51.161C-7.804,-51.161 -7.675,-51.099 -7.55,-50.972C-7.423,-50.84 -7.364,-50.685 -7.364,-50.485C-7.364,-50.291 -7.423,-50.136 -7.541,-50.007C-7.781,-49.756 -8.174,-49.773 -8.403,-50.012C-8.527,-50.139 -8.586,-50.294 -8.586,-50.488ZM0.139,-48.258L0.139,-46.643L3.221,-46.643L3.221,-45.198L5.112,-45.198L5.112,-46.643L5.738,-46.643L5.738,-48.458L5.112,-48.458L5.112,-52.991L3.328,-52.991L0.187,-48.332L0.139,-48.258ZM2.445,-48.458L3.221,-49.596L3.221,-48.458L2.445,-48.458ZM-13.57,-45.021C-12.884,-45.021 -12.291,-45.263 -11.809,-45.742C-11.323,-46.22 -11.077,-46.814 -11.077,-47.504C-11.077,-48.216 -11.315,-48.821 -11.788,-49.303C-12.153,-49.672 -12.578,-49.902 -13.064,-49.99L-11.896,-52.259L-13.556,-53.089L-15.5,-49.294C-15.739,-48.83 -15.901,-48.472 -15.971,-48.23C-16.044,-47.991 -16.08,-47.74 -16.08,-47.49C-16.08,-46.845 -15.841,-46.268 -15.366,-45.773C-14.887,-45.274 -14.283,-45.021 -13.57,-45.021ZM-14.19,-47.524C-14.19,-47.721 -14.131,-47.878 -14.013,-48.005C-13.9,-48.126 -13.767,-48.185 -13.598,-48.185C-13.413,-48.185 -13.268,-48.126 -13.152,-48.002C-13.028,-47.876 -12.969,-47.724 -12.969,-47.524C-12.969,-47.324 -13.031,-47.163 -13.152,-47.037C-13.395,-46.789 -13.744,-46.769 -14.004,-47.04C-14.128,-47.169 -14.19,-47.327 -14.19,-47.524ZM-20.496,-45.3C-20.121,-45.114 -19.622,-45.021 -19.013,-45.021C-18.437,-45.021 -17.951,-45.12 -17.571,-45.314C-17.182,-45.514 -16.865,-45.812 -16.637,-46.201C-16.407,-46.592 -16.293,-47.02 -16.293,-47.473C-16.293,-47.892 -16.392,-48.289 -16.589,-48.653C-16.736,-48.92 -16.925,-49.154 -17.158,-49.348C-16.997,-49.548 -16.88,-49.734 -16.804,-49.911C-16.693,-50.159 -16.64,-50.435 -16.64,-50.727C-16.64,-51.135 -16.743,-51.521 -16.947,-51.873C-17.158,-52.233 -17.444,-52.512 -17.8,-52.703C-18.514,-53.089 -19.563,-53.081 -20.269,-52.706C-20.636,-52.515 -20.926,-52.242 -21.13,-51.896C-21.336,-51.549 -21.437,-51.164 -21.437,-50.747C-21.437,-50.437 -21.375,-50.142 -21.254,-49.869C-21.172,-49.683 -21.065,-49.508 -20.926,-49.337C-21.166,-49.12 -21.355,-48.881 -21.493,-48.619C-21.677,-48.273 -21.767,-47.884 -21.767,-47.473C-21.767,-46.997 -21.654,-46.561 -21.426,-46.175C-21.195,-45.787 -20.884,-45.494 -20.496,-45.3ZM-18.694,-50.268C-18.881,-50.077 -19.204,-50.074 -19.394,-50.268C-19.492,-50.37 -19.541,-50.488 -19.541,-50.637C-19.541,-50.789 -19.498,-50.899 -19.405,-50.992C-19.321,-51.082 -19.213,-51.124 -19.072,-51.124C-18.908,-51.124 -18.786,-51.082 -18.691,-50.989C-18.601,-50.905 -18.559,-50.795 -18.559,-50.646C-18.559,-50.482 -18.604,-50.361 -18.694,-50.268ZM-19.019,-48.301C-18.776,-48.301 -18.58,-48.227 -18.423,-48.084C-18.271,-47.938 -18.198,-47.771 -18.198,-47.563C-18.198,-47.355 -18.265,-47.194 -18.408,-47.065C-18.697,-46.797 -19.352,-46.789 -19.654,-47.079C-19.806,-47.223 -19.877,-47.386 -19.877,-47.591C-19.877,-47.78 -19.8,-47.935 -19.642,-48.078C-19.476,-48.227 -19.27,-48.301 -19.019,-48.301ZM-11.394,-43.188L-13.177,-43.188L-16.318,-38.529L-16.365,-38.456L-16.365,-36.84L-13.284,-36.84L-13.284,-35.396L-11.394,-35.396L-11.394,-36.84L-10.767,-36.84L-10.767,-38.656L-11.394,-38.656L-11.394,-43.188ZM-14.061,-38.656L-13.284,-39.793L-13.284,-38.656L-14.061,-38.656ZM-8.484,-38.218L-9.657,-35.945L-7.998,-35.12L-6.055,-38.921C-5.809,-39.397 -5.654,-39.743 -5.582,-39.979C-5.51,-40.217 -5.473,-40.463 -5.473,-40.718C-5.473,-41.364 -5.713,-41.944 -6.187,-42.437C-6.666,-42.935 -7.271,-43.188 -7.988,-43.188C-8.671,-43.188 -9.263,-42.946 -9.745,-42.469C-10.231,-41.989 -10.477,-41.395 -10.477,-40.7C-10.477,-39.991 -10.239,-39.389 -9.766,-38.907C-9.402,-38.535 -8.97,-38.305 -8.484,-38.218ZM-8.586,-40.686C-8.586,-40.884 -8.524,-41.043 -8.4,-41.17C-8.273,-41.297 -8.135,-41.359 -7.962,-41.359C-7.804,-41.359 -7.675,-41.297 -7.55,-41.17C-7.423,-41.038 -7.364,-40.884 -7.364,-40.683C-7.364,-40.489 -7.423,-40.334 -7.541,-40.204C-7.781,-39.951 -8.174,-39.972 -8.403,-40.21C-8.527,-40.337 -8.586,-40.492 -8.586,-40.686ZM28.621,35.646C28.201,35.36 27.699,35.219 27.127,35.219C26.24,35.219 25.534,35.581 25.029,36.299C24.594,36.938 24.384,37.912 24.384,39.271C24.384,40.245 24.49,40.98 24.711,41.518C24.933,42.071 25.256,42.491 25.664,42.771C26.076,43.046 26.578,43.188 27.165,43.188C27.759,43.188 28.258,43.046 28.65,42.771C29.043,42.495 29.358,42.067 29.584,41.495C29.807,40.932 29.914,40.183 29.914,39.204C29.914,38.247 29.807,37.484 29.59,36.935C29.366,36.36 29.039,35.927 28.621,35.646ZM27.995,39.221C27.995,40.075 27.89,40.686 27.684,41.026C27.505,41.33 27.306,41.37 27.157,41.37C27.008,41.37 26.787,41.33 26.578,40.995C26.451,40.795 26.302,40.338 26.302,39.299C26.302,38.644 26.347,38.145 26.432,37.818C26.509,37.526 26.612,37.322 26.742,37.216C26.86,37.118 27,37.068 27.157,37.068C27.302,37.068 27.515,37.109 27.721,37.453C27.845,37.661 27.995,38.137 27.995,39.221ZM19.992,51L22.122,51L22.122,52.812L16.659,52.812L16.659,51.766L18.923,49.459C19.433,48.946 19.769,48.536 19.927,48.243C20.076,47.962 20.155,47.711 20.155,47.5C20.155,47.308 20.094,47.153 19.969,47.032C19.719,46.784 19.25,46.765 18.97,47.074C18.824,47.237 18.747,47.47 18.736,47.763L18.728,48.04L16.838,48.04L16.851,47.738C16.888,46.911 17.156,46.241 17.652,45.754C18.152,45.267 18.793,45.021 19.56,45.021C20.037,45.021 20.467,45.121 20.834,45.323C21.205,45.526 21.508,45.828 21.733,46.216C21.953,46.596 22.066,46.993 22.066,47.396C22.066,47.852 21.936,48.347 21.679,48.871C21.428,49.378 20.985,49.96 20.322,50.652L19.992,51ZM22.151,41.196L24.281,41.196L24.281,43.01L18.818,43.01L18.818,41.964L21.081,39.656C21.593,39.145 21.928,38.734 22.087,38.441C22.235,38.159 22.314,37.91 22.314,37.698C22.314,37.507 22.253,37.351 22.129,37.23C21.875,36.985 21.408,36.963 21.13,37.273C20.982,37.436 20.906,37.667 20.895,37.959L20.886,38.237L18.996,38.237L19.011,37.938C19.047,37.11 19.315,36.439 19.811,35.952C20.311,35.465 20.951,35.219 21.719,35.219C22.196,35.219 22.625,35.318 22.992,35.522C23.364,35.724 23.666,36.026 23.892,36.414C24.112,36.794 24.225,37.191 24.225,37.594C24.225,38.05 24.095,38.545 23.839,39.068C23.588,39.574 23.144,40.158 22.481,40.852L22.151,41.196ZM8.944,48.021L10.112,45.753L8.453,44.922L6.51,48.716C6.269,49.18 6.108,49.538 6.037,49.779C5.965,50.019 5.927,50.271 5.927,50.521C5.927,51.166 6.168,51.741 6.641,52.237C7.121,52.735 7.725,52.988 8.439,52.988C9.125,52.988 9.718,52.747 10.2,52.269C10.685,51.79 10.931,51.195 10.931,50.506C10.931,49.794 10.694,49.189 10.219,48.708C9.855,48.339 9.429,48.108 8.944,48.021ZM9.04,50.487C9.04,50.688 8.978,50.847 8.856,50.974C8.608,51.221 8.264,51.24 8.005,50.971C7.881,50.841 7.818,50.685 7.818,50.487C7.818,50.291 7.878,50.132 7.996,50.005C8.109,49.884 8.241,49.824 8.411,49.824C8.594,49.824 8.741,49.884 8.856,50.008C8.981,50.135 9.04,50.288 9.04,50.487ZM-32.485,45.196L-27.279,45.196L-27.307,46.315L-30.619,53.089L-32.273,52.286L-29.699,47.029L-32.485,47.029L-32.485,45.196ZM7.722,-40.168L5.831,-40.168L5.845,-40.47C5.883,-41.297 6.15,-41.968 6.647,-42.454C7.146,-42.941 7.787,-43.188 8.554,-43.188C9.031,-43.188 9.461,-43.087 9.827,-42.885C10.2,-42.682 10.503,-42.381 10.727,-41.992C10.947,-41.612 11.06,-41.215 11.06,-40.813C11.06,-40.356 10.931,-39.861 10.675,-39.337C10.424,-38.831 9.98,-38.248 9.316,-37.556L8.986,-37.209L11.117,-37.209L11.117,-35.396L5.653,-35.396L5.653,-36.444L7.918,-38.749C8.427,-39.262 8.763,-39.672 8.922,-39.965C9.071,-40.247 9.15,-40.497 9.15,-40.708C9.15,-40.9 9.089,-41.056 8.965,-41.177C8.711,-41.423 8.244,-41.443 7.966,-41.134C7.818,-40.971 7.742,-40.739 7.73,-40.447L7.722,-40.168ZM37.709,19.305C37.344,18.936 36.918,18.704 36.432,18.616L37.601,16.349L35.941,15.518L33.997,19.312C33.758,19.776 33.596,20.134 33.526,20.376C33.453,20.615 33.416,20.865 33.416,21.116C33.416,21.761 33.656,22.339 34.131,22.834C34.61,23.332 35.214,23.586 35.927,23.586C36.613,23.586 37.206,23.345 37.688,22.865C38.175,22.387 38.42,21.792 38.42,21.103C38.42,20.39 38.182,19.785 37.709,19.305ZM36.528,21.083C36.528,21.282 36.467,21.443 36.345,21.569C36.102,21.815 35.75,21.838 35.493,21.568C35.369,21.439 35.307,21.279 35.307,21.083C35.307,20.886 35.366,20.728 35.484,20.602C35.597,20.481 35.73,20.422 35.899,20.422C36.084,20.422 36.229,20.481 36.345,20.604C36.469,20.731 36.528,20.883 36.528,21.083ZM28.223,31.398L30.354,31.398L30.354,33.211L24.891,33.211L24.891,32.164L27.154,29.858C27.665,29.345 28.002,28.934 28.159,28.642C28.308,28.359 28.387,28.109 28.387,27.898C28.387,27.707 28.325,27.552 28.201,27.431C27.95,27.186 27.481,27.165 27.202,27.474C27.055,27.638 26.979,27.866 26.969,28.159L26.959,28.44L25.069,28.44L25.084,28.138C25.119,27.31 25.387,26.64 25.885,26.152C26.385,25.666 27.024,25.418 27.793,25.418C28.269,25.418 28.698,25.52 29.064,25.722C29.437,25.925 29.739,26.227 29.966,26.615C30.185,26.996 30.299,27.392 30.299,27.794C30.299,28.25 30.168,28.746 29.911,29.269C29.66,29.776 29.218,30.36 28.554,31.052L28.223,31.398ZM34.694,25.846C34.274,25.562 33.771,25.418 33.199,25.418C32.312,25.418 31.607,25.781 31.102,26.5C30.668,27.139 30.456,28.111 30.456,29.472C30.456,30.445 30.563,31.182 30.783,31.719C31.007,32.274 31.328,32.692 31.737,32.971C32.149,33.247 32.651,33.388 33.238,33.388C33.831,33.388 34.33,33.247 34.722,32.971C35.115,32.694 35.431,32.267 35.656,31.695C35.88,31.133 35.987,30.385 35.987,29.404C35.987,28.447 35.88,27.684 35.662,27.135C35.439,26.561 35.112,26.128 34.694,25.846ZM34.068,29.422C34.068,30.277 33.964,30.886 33.758,31.227C33.577,31.53 33.38,31.568 33.23,31.568C33.08,31.568 32.86,31.529 32.651,31.194C32.524,30.995 32.375,30.539 32.375,29.5C32.375,28.844 32.421,28.346 32.505,28.019C32.581,27.727 32.685,27.524 32.815,27.417C32.933,27.318 33.072,27.268 33.23,27.268C33.373,27.268 33.589,27.31 33.795,27.652C33.918,27.861 34.068,28.339 34.068,29.422ZM15.846,48.389C16.323,48.874 16.563,49.504 16.563,50.261C16.563,51.024 16.302,51.676 15.779,52.198C15.255,52.726 14.61,52.988 13.863,52.988C13.199,52.988 12.618,52.798 12.134,52.418C11.647,52.031 11.328,51.506 11.182,50.85L11.103,50.501L13.051,50.501L13.133,50.657C13.217,50.833 13.326,50.96 13.463,51.047C13.756,51.24 14.181,51.211 14.438,50.938C14.596,50.777 14.673,50.573 14.673,50.315C14.673,50.062 14.602,49.862 14.459,49.711C14.246,49.48 13.987,49.409 13.665,49.566C13.552,49.625 13.436,49.715 13.324,49.836L13.209,49.957L11.677,49.613L12.638,45.196L16.468,45.196L16.468,47.013L14.108,47.013L13.965,47.649L14.043,47.649C14.763,47.649 15.369,47.897 15.846,48.389ZM-24.07,38.219L-22.902,35.949L-24.561,35.12L-26.505,38.914C-26.744,39.378 -26.906,39.735 -26.977,39.978C-27.05,40.217 -27.087,40.469 -27.087,40.719C-27.087,41.363 -26.847,41.94 -26.372,42.435C-25.893,42.934 -25.288,43.188 -24.574,43.188C-23.889,43.188 -23.297,42.944 -22.814,42.466C-22.328,41.987 -22.082,41.394 -22.082,40.704C-22.082,39.991 -22.32,39.387 -22.795,38.904C-23.158,38.537 -23.585,38.307 -24.07,38.219ZM-23.974,40.685C-23.974,40.884 -24.035,41.045 -24.157,41.172C-24.403,41.419 -24.75,41.439 -25.01,41.169C-25.134,41.039 -25.196,40.882 -25.196,40.685C-25.196,40.486 -25.137,40.33 -25.018,40.203C-24.905,40.082 -24.773,40.023 -24.603,40.023C-24.42,40.023 -24.273,40.082 -24.157,40.206C-24.032,40.333 -23.974,40.485 -23.974,40.685ZM-17.158,48.664C-16.997,48.464 -16.88,48.276 -16.804,48.099C-16.693,47.852 -16.64,47.575 -16.64,47.282C-16.64,46.875 -16.743,46.489 -16.947,46.138C-17.158,45.777 -17.444,45.498 -17.8,45.307C-18.514,44.924 -19.563,44.928 -20.269,45.305C-20.636,45.497 -20.926,45.77 -21.13,46.115C-21.336,46.462 -21.437,46.847 -21.437,47.263C-21.437,47.572 -21.375,47.869 -21.254,48.142C-21.172,48.327 -21.065,48.502 -20.926,48.674C-21.166,48.891 -21.355,49.13 -21.493,49.392C-21.677,49.737 -21.767,50.126 -21.767,50.537C-21.767,51.013 -21.654,51.449 -21.426,51.836C-21.195,52.225 -20.884,52.516 -20.496,52.711C-20.121,52.896 -19.622,52.988 -19.013,52.988C-18.437,52.988 -17.951,52.891 -17.571,52.696C-17.182,52.497 -16.865,52.197 -16.637,51.81C-16.407,51.418 -16.293,50.99 -16.293,50.537C-16.293,50.118 -16.392,49.721 -16.589,49.358C-16.736,49.09 -16.925,48.858 -17.158,48.664ZM-18.694,47.741C-18.881,47.933 -19.204,47.936 -19.394,47.741C-19.492,47.641 -19.541,47.522 -19.541,47.373C-19.541,47.221 -19.498,47.11 -19.405,47.018C-19.321,46.928 -19.213,46.886 -19.072,46.886C-18.908,46.886 -18.786,46.928 -18.691,47.021C-18.601,47.106 -18.559,47.217 -18.559,47.365C-18.559,47.528 -18.604,47.649 -18.694,47.741ZM-19.642,49.932C-19.476,49.782 -19.27,49.711 -19.019,49.711C-18.776,49.711 -18.58,49.783 -18.423,49.927C-18.271,50.073 -18.198,50.238 -18.198,50.446C-18.198,50.655 -18.265,50.816 -18.408,50.945C-18.697,51.21 -19.352,51.224 -19.654,50.931C-19.806,50.788 -19.877,50.625 -19.877,50.419C-19.877,50.23 -19.8,50.075 -19.642,49.932ZM-24.07,48.021L-22.902,45.753L-24.561,44.922L-26.505,48.716C-26.744,49.18 -26.906,49.538 -26.977,49.779C-27.05,50.019 -27.087,50.271 -27.087,50.521C-27.087,51.166 -26.847,51.741 -26.372,52.237C-25.893,52.735 -25.288,52.988 -24.574,52.988C-23.889,52.988 -23.297,52.747 -22.814,52.269C-22.328,51.79 -22.082,51.195 -22.082,50.506C-22.082,49.794 -22.32,49.189 -22.795,48.708C-23.158,48.339 -23.585,48.108 -24.07,48.021ZM-23.974,50.487C-23.974,50.688 -24.035,50.847 -24.157,50.974C-24.403,51.221 -24.75,51.24 -25.01,50.971C-25.134,50.841 -25.196,50.685 -25.196,50.487C-25.196,50.291 -25.137,50.132 -25.018,50.005C-24.905,49.884 -24.773,49.824 -24.603,49.824C-24.42,49.824 -24.273,49.884 -24.157,50.008C-24.032,50.135 -23.974,50.288 -23.974,50.487ZM-13.064,48.021L-11.896,45.753L-13.556,44.922L-15.5,48.716C-15.739,49.18 -15.901,49.538 -15.971,49.779C-16.044,50.019 -16.08,50.271 -16.08,50.521C-16.08,51.166 -15.841,51.741 -15.366,52.237C-14.887,52.735 -14.283,52.988 -13.57,52.988C-12.884,52.988 -12.291,52.747 -11.809,52.269C-11.323,51.79 -11.077,51.195 -11.077,50.506C-11.077,49.794 -11.315,49.189 -11.788,48.708C-12.153,48.339 -12.578,48.108 -13.064,48.021ZM-12.969,50.487C-12.969,50.688 -13.031,50.847 -13.152,50.974C-13.395,51.221 -13.744,51.24 -14.004,50.971C-14.128,50.841 -14.19,50.685 -14.19,50.487C-14.19,50.291 -14.131,50.132 -14.013,50.005C-13.9,49.884 -13.767,49.824 -13.598,49.824C-13.413,49.824 -13.268,49.884 -13.152,50.008C-13.028,50.135 -12.969,50.288 -12.969,50.487ZM0.204,46.315L-3.109,53.089L-4.762,52.286L-2.189,47.029L-4.974,47.029L-4.974,45.196L0.233,45.196L0.204,46.315ZM5.112,45.021L3.328,45.021L0.187,49.68L0.139,49.753L0.139,51.368L3.221,51.368L3.221,52.812L5.112,52.812L5.112,51.368L5.738,51.368L5.738,49.552L5.112,49.552L5.112,45.021ZM2.445,49.552L3.221,48.415L3.221,49.552L2.445,49.552ZM-7.988,45.021C-8.671,45.021 -9.263,45.263 -9.745,45.74C-10.231,46.22 -10.477,46.813 -10.477,47.508C-10.477,48.218 -10.239,48.819 -9.766,49.302C-9.402,49.673 -8.97,49.903 -8.484,49.99L-9.657,52.263L-7.998,53.089L-6.055,49.287C-5.809,48.812 -5.654,48.465 -5.582,48.229C-5.51,47.993 -5.473,47.745 -5.473,47.49C-5.473,46.844 -5.713,46.264 -6.187,45.771C-6.666,45.273 -7.271,45.021 -7.988,45.021ZM-7.364,47.526C-7.364,47.72 -7.423,47.874 -7.541,48.004C-7.781,48.254 -8.174,48.235 -8.403,47.998C-8.527,47.871 -8.586,47.717 -8.586,47.522C-8.586,47.324 -8.524,47.166 -8.4,47.039C-8.273,46.912 -8.135,46.85 -7.962,46.85C-7.804,46.85 -7.675,46.912 -7.55,47.039C-7.423,47.171 -7.364,47.325 -7.364,47.526ZM25.825,1.648L25.495,1.995L27.625,1.995L27.625,3.807L22.162,3.807L22.162,2.76L24.426,0.454C24.936,-0.058 25.272,-0.47 25.43,-0.763C25.579,-1.044 25.658,-1.294 25.658,-1.505C25.658,-1.697 25.596,-1.852 25.472,-1.974C25.221,-2.219 24.753,-2.24 24.473,-1.931C24.326,-1.767 24.25,-1.535 24.239,-1.243L24.23,-0.966L22.341,-0.966L22.354,-1.266C22.39,-2.095 22.659,-2.764 23.155,-3.25C23.655,-3.737 24.296,-3.984 25.063,-3.984C25.54,-3.984 25.969,-3.885 26.337,-3.682C26.709,-3.479 27.01,-3.179 27.236,-2.789C27.456,-2.409 27.569,-2.013 27.569,-1.609C27.569,-1.153 27.439,-0.658 27.182,-0.135C26.931,0.372 26.488,0.955 25.825,1.648ZM19.526,-12.707C19.093,-12.068 18.881,-11.095 18.881,-9.734C18.881,-8.761 18.987,-8.025 19.207,-7.487C19.43,-6.933 19.753,-6.513 20.161,-6.234C20.573,-5.958 21.075,-5.818 21.662,-5.818C22.256,-5.818 22.756,-5.958 23.147,-6.234C23.539,-6.511 23.855,-6.937 24.081,-7.51C24.304,-8.072 24.411,-8.822 24.411,-9.802C24.411,-10.76 24.304,-11.521 24.087,-12.07C23.864,-12.645 23.536,-13.077 23.119,-13.359C22.698,-13.643 22.196,-13.788 21.623,-13.788C20.737,-13.788 20.031,-13.425 19.526,-12.707ZM22.219,-11.552C22.344,-11.344 22.492,-10.867 22.492,-9.784C22.492,-8.929 22.388,-8.32 22.182,-7.979C22.002,-7.676 21.803,-7.638 21.654,-7.638C21.505,-7.638 21.284,-7.677 21.075,-8.012C20.948,-8.211 20.8,-8.667 20.8,-9.706C20.8,-10.362 20.844,-10.859 20.929,-11.185C21.006,-11.478 21.109,-11.682 21.239,-11.789C21.358,-11.888 21.496,-11.938 21.654,-11.938C21.799,-11.938 22.012,-11.895 22.219,-11.552ZM8.439,-45.021C9.125,-45.021 9.718,-45.263 10.2,-45.742C10.685,-46.22 10.931,-46.814 10.931,-47.504C10.931,-48.216 10.694,-48.821 10.219,-49.303C9.855,-49.672 9.429,-49.902 8.944,-49.99L10.112,-52.259L8.453,-53.089L6.51,-49.294C6.269,-48.83 6.108,-48.472 6.037,-48.23C5.965,-47.991 5.927,-47.74 5.927,-47.49C5.927,-46.845 6.168,-46.268 6.641,-45.773C7.121,-45.274 7.725,-45.021 8.439,-45.021ZM7.818,-47.524C7.818,-47.721 7.878,-47.878 7.996,-48.005C8.109,-48.126 8.241,-48.185 8.411,-48.185C8.594,-48.185 8.741,-48.126 8.856,-48.002C8.981,-47.876 9.04,-47.724 9.04,-47.524C9.04,-47.324 8.978,-47.163 8.856,-47.037C8.608,-46.789 8.264,-46.769 8.005,-47.04C7.881,-47.169 7.818,-47.327 7.818,-47.524ZM13.956,-4.083L12.011,-0.289C11.771,0.175 11.611,0.533 11.54,0.776C11.468,1.015 11.43,1.266 11.43,1.516C11.43,2.16 11.671,2.736 12.144,3.232C12.625,3.731 13.228,3.984 13.942,3.984C14.628,3.984 15.22,3.741 15.702,3.263C16.188,2.784 16.433,2.191 16.433,1.501C16.433,0.789 16.196,0.185 15.722,-0.297C15.358,-0.665 14.932,-0.896 14.447,-0.984L15.615,-3.254L13.956,-4.083ZM14.543,1.482C14.543,1.682 14.481,1.843 14.359,1.969C14.114,2.217 13.767,2.235 13.508,1.966C13.384,1.836 13.321,1.68 13.321,1.482C13.321,1.285 13.381,1.127 13.5,1C13.611,0.879 13.744,0.819 13.913,0.819C14.097,0.819 14.244,0.879 14.359,1.003C14.483,1.13 14.543,1.282 14.543,1.482ZM24.942,-23.685L22.997,-19.891C22.758,-19.427 22.596,-19.069 22.526,-18.827C22.453,-18.587 22.416,-18.337 22.416,-18.086C22.416,-17.442 22.656,-16.865 23.131,-16.369C23.61,-15.871 24.214,-15.617 24.927,-15.617C25.613,-15.617 26.206,-15.86 26.688,-16.338C27.175,-16.817 27.42,-17.411 27.42,-18.1C27.42,-18.813 27.182,-19.418 26.709,-19.899C26.344,-20.268 25.918,-20.499 25.433,-20.586L26.601,-22.855L24.942,-23.685ZM25.528,-18.12C25.528,-17.92 25.467,-17.761 25.345,-17.634C25.102,-17.389 24.753,-17.366 24.493,-17.637C24.369,-17.765 24.307,-17.923 24.307,-18.12C24.307,-18.317 24.366,-18.475 24.484,-18.601C24.597,-18.723 24.73,-18.782 24.899,-18.782C25.084,-18.782 25.229,-18.723 25.345,-18.599C25.469,-18.473 25.528,-18.32 25.528,-18.12ZM16.978,-8.155L16.648,-7.807L18.778,-7.807L18.778,-5.995L13.315,-5.995L13.315,-7.043L15.578,-9.349C16.09,-9.861 16.426,-10.272 16.584,-10.564C16.732,-10.847 16.811,-11.096 16.811,-11.307C16.811,-11.498 16.75,-11.654 16.625,-11.775C16.375,-12.023 15.906,-12.042 15.627,-11.733C15.48,-11.569 15.403,-11.338 15.392,-11.046L15.385,-10.767L13.493,-10.767L13.508,-11.068C13.545,-11.896 13.812,-12.566 14.308,-13.054C14.808,-13.54 15.448,-13.788 16.217,-13.788C16.693,-13.788 17.122,-13.686 17.489,-13.484C17.861,-13.281 18.163,-12.98 18.389,-12.591C18.609,-12.211 18.722,-11.813 18.722,-11.411C18.722,-10.955 18.593,-10.46 18.336,-9.937C18.084,-9.431 17.641,-8.848 16.978,-8.155ZM8.76,8.305C8.76,9.015 8.998,9.617 9.472,10.099C9.837,10.471 10.267,10.701 10.754,10.789L9.579,13.06L11.238,13.885L13.182,10.084C13.428,9.609 13.584,9.262 13.654,9.026C13.727,8.789 13.764,8.543 13.764,8.289C13.764,7.642 13.524,7.061 13.051,6.568C12.57,6.069 11.967,5.818 11.25,5.818C10.567,5.818 9.974,6.059 9.491,6.537C9.007,7.016 8.76,7.609 8.76,8.305ZM10.651,8.318C10.651,8.122 10.714,7.963 10.838,7.836C10.965,7.709 11.103,7.647 11.275,7.647C11.433,7.647 11.563,7.709 11.687,7.836C11.814,7.968 11.873,8.122 11.873,8.321C11.873,8.516 11.814,8.672 11.695,8.802C11.453,9.052 11.063,9.034 10.836,8.795C10.711,8.668 10.651,8.514 10.651,8.318ZM16.592,13.786C15.928,13.786 15.347,13.596 14.862,13.216C14.377,12.83 14.057,12.303 13.911,11.647L13.832,11.298L15.779,11.298L15.861,11.456C15.945,11.631 16.055,11.757 16.191,11.844C16.487,12.034 16.907,12.007 17.168,11.734C17.325,11.573 17.401,11.372 17.401,11.112C17.401,10.86 17.331,10.66 17.187,10.508C16.975,10.279 16.717,10.208 16.394,10.362C16.281,10.422 16.165,10.512 16.052,10.633L15.937,10.754L14.404,10.411L15.367,5.995L19.196,5.995L19.196,7.81L16.838,7.81L16.693,8.445L16.772,8.445C17.492,8.445 18.098,8.693 18.575,9.186C19.052,9.671 19.293,10.301 19.293,11.058C19.293,11.82 19.03,12.472 18.508,12.995C17.983,13.522 17.34,13.786 16.592,13.786ZM20.94,-23.159C20.52,-23.443 20.017,-23.587 19.444,-23.587C18.558,-23.587 17.853,-23.224 17.348,-22.506C16.913,-21.867 16.701,-20.893 16.701,-19.533C16.701,-18.559 16.809,-17.823 17.029,-17.286C17.253,-16.731 17.573,-16.313 17.983,-16.034C18.395,-15.759 18.897,-15.617 19.484,-15.617C20.076,-15.617 20.576,-15.759 20.969,-16.034C21.36,-16.31 21.677,-16.738 21.902,-17.309C22.125,-17.872 22.232,-18.621 22.232,-19.601C22.232,-20.558 22.125,-21.321 21.908,-21.87C21.685,-22.444 21.358,-22.878 20.94,-23.159ZM20.314,-19.584C20.314,-18.728 20.209,-18.12 20.004,-17.779C19.823,-17.475 19.625,-17.435 19.475,-17.435C19.326,-17.435 19.106,-17.475 18.897,-17.81C18.77,-18.011 18.62,-18.467 18.62,-19.505C18.62,-20.161 18.666,-20.659 18.75,-20.986C18.826,-21.279 18.931,-21.481 19.061,-21.588C19.179,-21.687 19.317,-21.737 19.475,-21.737C19.619,-21.737 19.834,-21.695 20.04,-21.352C20.164,-21.143 20.314,-20.668 20.314,-19.584ZM15.677,22.865C16.162,22.387 16.408,21.792 16.408,21.103C16.408,20.39 16.172,19.785 15.697,19.305C15.334,18.936 14.907,18.704 14.422,18.616L15.591,16.349L13.93,15.518L11.986,19.312C11.746,19.776 11.586,20.134 11.515,20.376C11.441,20.615 11.405,20.865 11.405,21.116C11.405,21.761 11.644,22.339 12.119,22.834C12.598,23.332 13.202,23.586 13.916,23.586C14.602,23.586 15.194,23.345 15.677,22.865ZM13.296,21.083C13.296,20.886 13.355,20.728 13.473,20.602C13.587,20.481 13.719,20.422 13.888,20.422C14.071,20.422 14.219,20.481 14.334,20.604C14.459,20.731 14.517,20.883 14.517,21.083C14.517,21.282 14.455,21.443 14.334,21.569C14.089,21.815 13.738,21.838 13.482,21.568C13.357,21.439 13.296,21.279 13.296,21.083ZM28.554,11.449L28.223,11.797L30.354,11.797L30.354,13.609L24.891,13.609L24.891,12.562L27.154,10.256C27.665,9.744 28.002,9.333 28.159,9.04C28.308,8.759 28.387,8.508 28.387,8.297C28.387,8.105 28.325,7.951 28.201,7.831C27.95,7.583 27.481,7.562 27.202,7.872C27.055,8.034 26.979,8.267 26.969,8.56L26.959,8.837L25.069,8.837L25.084,8.536C25.119,7.708 25.387,7.039 25.885,6.552C26.385,6.065 27.024,5.818 27.793,5.818C28.269,5.818 28.698,5.918 29.064,6.121C29.437,6.322 29.739,6.625 29.966,7.013C30.185,7.393 30.299,7.79 30.299,8.193C30.299,8.649 30.168,9.144 29.911,9.668C29.66,10.174 29.218,10.757 28.554,11.449ZM14.314,-33.39L11.174,-28.73L11.125,-28.657L11.125,-27.041L14.207,-27.041L14.207,-25.598L16.098,-25.598L16.098,-27.041L16.724,-27.041L16.724,-28.857L16.098,-28.857L16.098,-33.39L14.314,-33.39ZM13.431,-28.857L14.207,-29.994L14.207,-28.857L13.431,-28.857ZM25.425,-27.473C25.582,-27.632 25.658,-27.835 25.658,-28.095C25.658,-28.348 25.589,-28.547 25.444,-28.699C25.232,-28.928 24.973,-29 24.651,-28.844C24.538,-28.784 24.423,-28.694 24.309,-28.572L24.194,-28.451L22.661,-28.795L23.625,-33.212L27.453,-33.212L27.453,-31.396L25.094,-31.396L24.95,-30.761L25.029,-30.761C25.75,-30.761 26.355,-30.513 26.832,-30.019C27.309,-29.535 27.55,-28.905 27.55,-28.147C27.55,-27.386 27.287,-26.734 26.764,-26.211C26.24,-25.684 25.596,-25.42 24.848,-25.42C24.185,-25.42 23.604,-25.611 23.119,-25.991C22.634,-26.377 22.314,-26.903 22.168,-27.559L22.09,-27.908L24.036,-27.908L24.118,-27.75C24.202,-27.576 24.312,-27.449 24.448,-27.362C24.744,-27.171 25.164,-27.199 25.425,-27.473ZM24.349,13.609L24.349,12.165L24.975,12.165L24.975,10.349L24.349,10.349L24.349,5.818L22.565,5.818L19.426,10.477L19.378,10.549L19.378,12.165L22.459,12.165L22.459,13.609L24.349,13.609ZM21.682,10.349L22.459,9.212L22.459,10.349L21.682,10.349ZM19.49,23.685L21.434,19.884C21.679,19.407 21.836,19.062 21.905,18.824C21.978,18.589 22.015,18.342 22.015,18.089C22.015,17.441 21.775,16.859 21.302,16.368C20.821,15.869 20.219,15.615 19.502,15.615C18.818,15.615 18.225,15.858 17.743,16.337C17.258,16.815 17.012,17.409 17.012,18.105C17.012,18.814 17.25,19.416 17.723,19.898C18.088,20.269 18.519,20.501 19.005,20.589L17.83,22.859L19.49,23.685ZM18.903,18.12C18.903,17.923 18.966,17.761 19.09,17.635C19.217,17.508 19.354,17.445 19.526,17.445C19.684,17.445 19.814,17.508 19.938,17.635C20.065,17.767 20.125,17.922 20.125,18.122C20.125,18.316 20.065,18.471 19.947,18.6C19.704,18.851 19.312,18.834 19.087,18.594C18.963,18.468 18.903,18.314 18.903,18.12ZM11.08,-10.564C11.23,-10.847 11.309,-11.096 11.309,-11.307C11.309,-11.498 11.247,-11.654 11.122,-11.775C10.871,-12.023 10.403,-12.042 10.123,-11.733C9.977,-11.569 9.901,-11.338 9.889,-11.046L9.882,-10.767L7.99,-10.767L8.005,-11.068C8.041,-11.896 8.309,-12.566 8.806,-13.054C9.305,-13.54 9.946,-13.788 10.714,-13.788C11.19,-13.788 11.619,-13.686 11.986,-13.484C12.358,-13.281 12.66,-12.98 12.886,-12.591C13.106,-12.211 13.219,-11.813 13.219,-11.411C13.219,-10.955 13.09,-10.46 12.834,-9.937C12.581,-9.431 12.138,-8.848 11.475,-8.155L11.145,-7.807L13.276,-7.807L13.276,-5.995L7.812,-5.995L7.812,-7.043L10.075,-9.349C10.587,-9.861 10.923,-10.272 11.08,-10.564ZM14.404,-20.364C14.554,-20.645 14.634,-20.896 14.634,-21.107C14.634,-21.298 14.571,-21.453 14.447,-21.574C14.196,-21.822 13.727,-21.843 13.448,-21.532C13.302,-21.369 13.225,-21.139 13.215,-20.846L13.205,-20.566L11.314,-20.566L11.328,-20.868C11.365,-21.695 11.634,-22.365 12.131,-22.852C12.63,-23.339 13.27,-23.587 14.037,-23.587C14.514,-23.587 14.943,-23.486 15.31,-23.283C15.683,-23.08 15.985,-22.779 16.211,-22.391C16.431,-22.011 16.543,-21.614 16.543,-21.211C16.543,-20.755 16.414,-20.261 16.157,-19.736C15.906,-19.229 15.464,-18.646 14.8,-17.954L14.469,-17.608L16.6,-17.608L16.6,-15.794L11.137,-15.794L11.137,-16.843L13.4,-19.148C13.911,-19.66 14.246,-20.071 14.404,-20.364ZM11.238,33.485L13.182,29.686C13.428,29.21 13.584,28.864 13.654,28.628C13.727,28.392 13.764,28.144 13.764,27.891C13.764,27.242 13.524,26.663 13.051,26.17C12.57,25.672 11.967,25.418 11.25,25.418C10.567,25.418 9.974,25.659 9.491,26.139C9.007,26.616 8.76,27.211 8.76,27.906C8.76,28.615 8.998,29.219 9.472,29.699C9.837,30.071 10.267,30.303 10.754,30.391L9.579,32.661L11.238,33.485ZM10.651,27.922C10.651,27.725 10.714,27.564 10.838,27.438C10.965,27.311 11.103,27.248 11.275,27.248C11.433,27.248 11.563,27.311 11.687,27.438C11.814,27.569 11.873,27.724 11.873,27.924C11.873,28.118 11.814,28.273 11.695,28.401C11.453,28.655 11.063,28.636 10.836,28.397C10.711,28.27 10.651,28.115 10.651,27.922ZM18.141,-3.807L21.97,-3.807L21.97,-1.992L19.611,-1.992L19.468,-1.356L19.547,-1.356C20.266,-1.356 20.872,-1.108 21.349,-0.616C21.826,-0.132 22.066,0.5 22.066,1.257C22.066,2.02 21.803,2.669 21.281,3.193C20.758,3.719 20.113,3.984 19.365,3.984C18.702,3.984 18.121,3.794 17.636,3.414C17.15,3.027 16.831,2.501 16.684,1.845L16.605,1.496L18.553,1.496L18.635,1.652C18.719,1.828 18.829,1.954 18.966,2.042C19.259,2.235 19.681,2.205 19.941,1.932C20.099,1.771 20.176,1.568 20.176,1.31C20.176,1.056 20.105,0.858 19.962,0.706C19.75,0.477 19.487,0.402 19.168,0.561C19.055,0.62 18.939,0.71 18.826,0.831L18.712,0.953L17.178,0.609L18.141,-3.807ZM25.325,-41.179L22.54,-41.179L22.54,-43.012L27.747,-43.012L27.719,-41.894L24.405,-35.12L22.753,-35.923L25.325,-41.179ZM19.47,30.812L19.453,30.508L21.336,30.508L21.372,30.75C21.418,31.046 21.516,31.26 21.662,31.392C21.947,31.653 22.486,31.653 22.791,31.363C22.941,31.217 23.014,31.043 23.014,30.832C23.014,30.601 22.915,30.416 22.707,30.25C22.478,30.069 22.135,29.976 21.677,29.97L21.392,29.967L21.392,28.267L21.657,28.247C22.012,28.219 22.193,28.167 22.28,28.125C22.388,28.073 22.472,28.002 22.532,27.915C22.589,27.831 22.616,27.746 22.616,27.659C22.616,27.546 22.58,27.465 22.504,27.392C22.455,27.347 22.365,27.281 22.174,27.281C22.041,27.281 21.93,27.321 21.823,27.401C21.719,27.48 21.645,27.58 21.603,27.707L21.541,27.906L19.711,27.906L19.753,27.583C19.828,27 20.046,26.525 20.395,26.167C20.882,25.669 21.493,25.418 22.219,25.418C22.867,25.418 23.424,25.63 23.872,26.047C24.321,26.466 24.55,26.978 24.55,27.563C24.55,27.932 24.448,28.274 24.244,28.581C24.143,28.733 24.019,28.87 23.869,28.993C24.118,29.134 24.324,29.317 24.493,29.54C24.772,29.911 24.913,30.345 24.913,30.837C24.913,31.547 24.648,32.158 24.123,32.651C23.604,33.141 22.938,33.388 22.142,33.388C21.381,33.388 20.752,33.153 20.266,32.69C19.78,32.225 19.512,31.592 19.47,30.812ZM27.693,16.911L24.381,23.685L22.726,22.883L25.301,17.626L22.515,17.626L22.515,15.793L27.721,15.793L27.693,16.911ZM19.823,-41.179L17.037,-41.179L17.037,-43.012L22.244,-43.012L22.217,-41.894L18.903,-35.12L17.25,-35.923L19.823,-41.179ZM29.714,-30.369L27.823,-30.369L27.838,-30.67C27.875,-31.497 28.142,-32.167 28.638,-32.654C29.138,-33.141 29.778,-33.39 30.547,-33.39C31.023,-33.39 31.452,-33.288 31.819,-33.085C32.191,-32.882 32.493,-32.581 32.719,-32.193C32.939,-31.813 33.052,-31.416 33.052,-31.014C33.052,-30.557 32.923,-30.062 32.665,-29.538C32.414,-29.031 31.971,-28.449 31.308,-27.756L30.978,-27.41L33.108,-27.41L33.108,-25.598L27.645,-25.598L27.645,-26.644L29.908,-28.95C30.42,-29.462 30.756,-29.873 30.913,-30.166C31.062,-30.447 31.141,-30.698 31.141,-30.909C31.141,-31.1 31.079,-31.255 30.955,-31.376C30.701,-31.621 30.236,-31.644 29.956,-31.334C29.809,-31.171 29.733,-30.94 29.722,-30.647L29.714,-30.369ZM14.438,-47.073C14.596,-47.234 14.673,-47.436 14.673,-47.695C14.673,-47.949 14.602,-48.149 14.459,-48.301C14.246,-48.529 13.987,-48.602 13.665,-48.444C13.552,-48.385 13.436,-48.295 13.324,-48.174L13.209,-48.053L11.677,-48.396L12.638,-52.813L16.468,-52.813L16.468,-50.998L14.108,-50.998L13.965,-50.361L14.043,-50.361C14.763,-50.361 15.369,-50.114 15.846,-49.621C16.323,-49.137 16.563,-48.506 16.563,-47.749C16.563,-46.986 16.302,-46.336 15.779,-45.812C15.255,-45.286 14.61,-45.021 13.863,-45.021C13.199,-45.021 12.618,-45.213 12.134,-45.593C11.647,-45.978 11.328,-46.505 11.182,-47.161L11.103,-47.51L13.051,-47.51L13.133,-47.352C13.217,-47.177 13.326,-47.051 13.463,-46.964C13.756,-46.769 14.181,-46.8 14.438,-47.073ZM15.457,-42.762C15.036,-43.045 14.534,-43.188 13.962,-43.188C13.075,-43.188 12.37,-42.825 11.865,-42.107C11.43,-41.469 11.219,-40.494 11.219,-39.136C11.219,-38.161 11.326,-37.427 11.547,-36.889C11.769,-36.334 12.091,-35.914 12.5,-35.637C12.912,-35.36 13.414,-35.22 14.002,-35.22C14.594,-35.22 15.094,-35.36 15.485,-35.637C15.878,-35.911 16.193,-36.339 16.42,-36.911C16.642,-37.474 16.75,-38.224 16.75,-39.202C16.75,-40.159 16.642,-40.922 16.426,-41.472C16.202,-42.046 15.875,-42.479 15.457,-42.762ZM14.83,-39.185C14.83,-38.33 14.726,-37.723 14.52,-37.381C14.34,-37.077 14.142,-37.037 13.992,-37.037C13.844,-37.037 13.623,-37.077 13.414,-37.412C13.287,-37.612 13.137,-38.068 13.137,-39.107C13.137,-39.763 13.182,-40.262 13.267,-40.587C13.344,-40.88 13.448,-41.083 13.578,-41.19C13.696,-41.288 13.834,-41.339 13.992,-41.339C14.136,-41.339 14.351,-41.297 14.557,-40.953C14.681,-40.745 14.83,-40.269 14.83,-39.185ZM19.426,-25.42C20.11,-25.42 20.703,-25.662 21.185,-26.14C21.672,-26.619 21.916,-27.213 21.916,-27.902C21.916,-28.615 21.679,-29.221 21.205,-29.701C20.842,-30.07 20.415,-30.302 19.93,-30.389L21.098,-32.657L19.439,-33.488L17.494,-29.693C17.256,-29.228 17.094,-28.871 17.023,-28.629C16.95,-28.39 16.913,-28.14 16.913,-27.889C16.913,-27.244 17.153,-26.667 17.628,-26.171C18.107,-25.673 18.712,-25.42 19.426,-25.42ZM18.804,-27.922C18.804,-28.119 18.863,-28.277 18.982,-28.404C19.094,-28.525 19.227,-28.584 19.396,-28.584C19.58,-28.584 19.727,-28.525 19.843,-28.401C19.967,-28.274 20.026,-28.122 20.026,-27.922C20.026,-27.723 19.965,-27.562 19.843,-27.435C19.597,-27.19 19.25,-27.168 18.99,-27.438C18.866,-27.567 18.804,-27.725 18.804,-27.922ZM-0.407,43.188C0.278,43.188 0.87,42.944 1.353,42.466C1.839,41.987 2.084,41.394 2.084,40.704C2.084,39.991 1.847,39.387 1.373,38.904C1.01,38.537 0.582,38.307 0.097,38.219L1.265,35.949L-0.394,35.12L-2.338,38.914C-2.577,39.378 -2.739,39.735 -2.81,39.978C-2.883,40.217 -2.92,40.469 -2.92,40.719C-2.92,41.363 -2.68,41.94 -2.205,42.435C-1.726,42.934 -1.121,43.188 -0.407,43.188ZM-1.029,40.685C-1.029,40.486 -0.97,40.33 -0.851,40.203C-0.738,40.082 -0.606,40.023 -0.436,40.023C-0.253,40.023 -0.106,40.082 0.011,40.206C0.135,40.333 0.193,40.485 0.193,40.685C0.193,40.884 0.132,41.045 0.011,41.172C-0.233,41.419 -0.586,41.439 -0.843,41.169C-0.967,41.039 -1.029,40.882 -1.029,40.685ZM-1.66,-13.609L0.798,-13.609L0.798,-5.995L-1.111,-5.995L-1.111,-11.778L-2.793,-11.778L-1.66,-13.609ZM6.012,-33.212L11.219,-33.212L11.19,-32.095L7.878,-25.321L6.224,-26.123L8.798,-31.379L6.012,-31.379L6.012,-33.212ZM19.442,26.714L16.13,33.485L14.475,32.685L17.05,27.428L14.263,27.428L14.263,25.596L19.47,25.596L19.442,26.714ZM2.688,-13.609L7.894,-13.609L7.866,-12.492L4.553,-5.721L2.899,-6.521L5.473,-11.778L2.688,-11.778L2.688,-13.609ZM18.778,43.01L13.315,43.01L13.315,41.964L15.578,39.656C16.09,39.145 16.426,38.734 16.584,38.441C16.732,38.159 16.811,37.91 16.811,37.698C16.811,37.507 16.75,37.351 16.625,37.23C16.375,36.985 15.906,36.963 15.627,37.273C15.48,37.436 15.403,37.667 15.392,37.959L15.385,38.237L13.493,38.237L13.508,37.938C13.545,37.11 13.812,36.439 14.308,35.952C14.808,35.465 15.448,35.219 16.217,35.219C16.693,35.219 17.122,35.318 17.489,35.522C17.861,35.724 18.163,36.026 18.389,36.414C18.609,36.794 18.722,37.191 18.722,37.594C18.722,38.05 18.593,38.545 18.336,39.068C18.084,39.574 17.641,40.158 16.978,40.852L16.648,41.196L18.778,41.196L18.778,43.01ZM2.394,4.083L0.741,3.279L3.314,-1.974L0.529,-1.974L0.529,-3.807L5.735,-3.807L5.707,-2.69L2.394,4.083ZM8.724,3.807L10.614,3.807L10.614,2.362L11.241,2.362L11.241,0.547L10.614,0.547L10.614,-3.984L8.831,-3.984L5.69,0.674L5.642,0.747L5.642,2.362L8.724,2.362L8.724,3.807ZM7.948,0.547L8.724,-0.591L8.724,0.547L7.948,0.547Z" style="fill:rgb(197,179,87);fill-rule:nonzero;"/>
            </g>
        </g>
        <g transform="matrix(2.12,0,0,2.12,-639,-429)">
            <g transform="matrix(1,0,0,1,489.214,273.419)">
                <path d="M-186.214,-24.943L-167.015,-24.943L-151.295,19.423L-134.382,-24.943L-122.639,-24.943L-106.031,18.921L-90.293,-24.943L-70.969,-24.943L-99.492,53.038L-111.922,53.038L-128.591,8.6L-145.763,53.038L-158.049,53.038L-186.214,-24.943ZM-59.796,-55.046L-40.325,-55.046L-40.325,-17.057C-36.494,-20.354 -32.637,-22.826 -28.757,-24.477C-24.877,-26.123 -20.95,-26.949 -16.974,-26.949C-9.214,-26.949 -2.676,-24.27 2.641,-18.921C7.19,-14.286 9.466,-7.476 9.466,1.506L9.466,53.038L-9.861,53.038L-9.861,18.85C-9.861,9.82 -10.292,3.704 -11.154,0.501C-12.017,-2.698 -13.489,-5.088 -15.573,-6.665C-17.657,-8.242 -20.232,-9.031 -23.297,-9.031C-27.273,-9.031 -30.686,-7.715 -33.535,-5.089C-36.386,-2.46 -38.362,1.124 -39.463,5.663C-40.038,8.005 -40.325,13.358 -40.325,21.717L-40.325,53.038L-59.796,53.038L-59.796,-55.046ZM45.893,-15.155C45.893,-20.559 41.5,-24.943 36.082,-24.943C30.663,-24.943 26.271,-20.559 26.271,-15.155C26.271,-15.142 26.275,-15.132 26.275,-15.121L26.275,53.038L45.889,53.038L45.889,-15.122C45.889,-15.132 45.893,-15.143 45.893,-15.155ZM186.142,19.71L123.131,19.71C124.039,25.255 126.473,29.661 130.422,32.936C134.377,36.206 139.415,37.845 145.548,37.845C152.876,37.845 159.173,35.289 164.444,30.174L180.969,37.915C176.848,43.747 171.916,48.056 166.169,50.855C160.421,53.647 153.594,55.046 145.692,55.046C133.427,55.046 123.441,51.188 115.731,43.47C108.018,35.754 104.163,26.09 104.163,14.48C104.163,2.581 108.007,-7.298 115.696,-15.16C123.381,-23.017 133.02,-26.949 144.614,-26.949C156.923,-26.949 166.932,-23.017 174.647,-15.16C182.358,-7.298 186.214,3.081 186.214,15.984L186.142,19.71ZM166.528,4.301C165.232,-0.045 162.677,-3.583 158.863,-6.306C155.046,-9.031 150.623,-10.392 145.585,-10.392C140.113,-10.392 135.317,-8.862 131.19,-5.805C128.6,-3.893 126.2,-0.524 123.993,4.301L166.528,4.301ZM85.698,-24.943L85.698,-53.684L66.083,-53.684L66.083,53.038L85.698,53.038L85.698,-8.098L97.337,-8.098L97.337,-24.943L85.698,-24.943Z" style="fill:white;fill-rule:nonzero;"/>
            </g>
            <g transform="matrix(1,0,0,1,525.336,229.053)">
                <path d="M-0.036,-12.686C3.403,-12.686 6.351,-11.442 8.811,-8.959C11.271,-6.474 12.501,-3.463 12.501,0.072C12.501,3.561 11.282,6.534 8.847,8.994C6.411,11.456 3.497,12.686 0.107,12.686C-3.381,12.686 -6.354,11.431 -8.814,8.924C-11.274,6.413 -12.502,3.369 -12.502,-0.215C-12.502,-3.655 -11.285,-6.594 -8.85,-9.031C-6.413,-11.468 -3.476,-12.686 -0.036,-12.686Z" style="fill:rgb(197,179,87);fill-rule:nonzero;"/>
            </g>
        </g>
    </g>
</svg>
